<?xml version="1.0" encoding="utf-8"?>
<!-- Generator: Adobe Illustrator 23.0.3, SVG Export Plug-In . SVG Version: 6.00 Build 0)  -->
<svg version="1.1" id="Capa_1" xmlns="http://www.w3.org/2000/svg" xmlns:xlink="http://www.w3.org/1999/xlink" x="0px" y="0px"
	 viewBox="0 0 303.8 303.8" style="enable-background:new 0 0 303.8 303.8;" xml:space="preserve">
<style type="text/css">
	.st0{fill:#FFFFFF;}
	.st1{fill:#ED1C24;}
	.st2{fill:#FFFFFF;stroke:#FFFFFF;stroke-width:0.22;stroke-miterlimit:22.93;}
</style>
<title>LOGO-GAMESTOP</title>
<g>
	<polygon class="st0" points="214.8,0 89,0 0,89 0,214.8 89,303.8 214.8,303.8 303.8,214.8 303.8,89 	"/>
	<polygon class="st1" points="213.8,2.4 90,2.4 2.4,90 2.4,213.8 90,301.4 213.8,301.4 301.4,213.8 301.4,90 	"/>
	<path class="st0" d="M208.5,16.5l-0.3-0.3H95.7L16.5,95.4l-0.3,0.3v112.4l79.2,79.2l0.3,0.3h112.4l79.3-79.1l0.3-0.3V95.7
		L208.5,16.5z M97.4,283.5l-77.1-77.1v-109l77.1-77.1h109l77.1,77.1v109l-77.1,77.1H97.4z"/>
	<path class="st0" d="M76.2,126.4v-5.9h21.9c0,4.6,0,9.2,0,13.8c-2.9,1.7-6,2.9-9.3,3.6c-4,1.1-8.2,1.7-12.3,1.7
		c-4.7,0.1-9.4-0.7-13.8-2.3c-3.5-1.2-6.6-3.5-8.8-6.5c-1.9-2.7-3-5.9-3-9.1c0-3.5,1.1-6.8,3.3-9.5c2.2-2.8,5.5-4.8,9.7-6.3
		c3.9-1.3,7.9-1.9,12-1.8c6.3,0,11.2,0.9,14.7,2.7c3.2,1.4,5.6,4.1,6.8,7.4c-3.3,0.5-6.7,1-10,1.3c-0.8-1.8-2.2-3.2-4-4
		c-2.3-1-4.9-1.5-7.4-1.4c-4.4,0-8,0.9-10.6,2.9s-3.9,4.8-3.9,8.6c0,4,1.3,7.2,4,9.2c2.7,2,6.2,3,10.4,3c2.2,0,4.4-0.3,6.5-0.9
		c1.9-0.5,3.8-1.2,5.6-2.1v-4.3L76.2,126.4z M153.1,139H142c-1.5-2.5-2.9-5.2-4.4-7.8h-20.2c-1.4,2.6-2.8,5.2-4.1,7.8h-10.8
		l19.5-34.4h10.7C139.4,116.1,146.2,127.6,153.1,139L153.1,139z M134.2,125.4c-2.4-4.2-4.7-8.4-7-12.7c-2.3,4.3-4.5,8.5-6.7,12.7
		H134.2z M158.3,139c-0.1-11.4-0.1-22.9-0.2-34.3h15.3c3.1,7.9,6.2,15.7,9.3,23.5c2.9-7.9,5.8-15.7,8.8-23.5h15.3
		c0.1,11.4,0.2,23,0.3,34.3h-9.4c-0.1-9-0.1-18-0.2-27c-3.3,9.1-6.6,18-9.8,27h-9.8c-3.4-9-6.8-18-10.2-27c0.1,9,0.1,18,0.2,27
		H158.3z M217.1,139c-0.1-11.4-0.2-22.9-0.3-34.3h37.3c0,2,0,3.9,0.1,5.9h-27.1c0,2.5,0,5,0.1,7.6h25.3c0,1.9,0,3.9,0.1,5.8h-25.3
		c0,3.1,0.1,6.2,0.1,9.4h28.1c0,1.9,0,3.9,0.1,5.8C242.7,139.1,229.9,139.1,217.1,139z"/>
	<path class="st2" d="M51.8,189.6l10.9-1.1c0.7,3.9,2,6.9,4,8.8c2.2,1.9,5.2,2.9,8.1,2.7c3.6,0,6.3-0.8,8.2-2.4
		c1.7-1.5,2.7-3.6,2.7-5.9c0-1.3-0.4-2.5-1.1-3.6c-1.1-1.2-2.5-2.1-4.1-2.7c-1.3-0.5-4.3-1.4-9-2.6c-6-1.6-10.2-3.7-12.6-6
		c-3.3-3.1-5.2-7.5-5.1-12c0-3,0.8-6,2.4-8.5c1.6-2.7,4-4.8,6.9-6.1c3.4-1.5,7.1-2.2,10.9-2.1c7,0,12.2,1.7,15.7,5s5.4,7.7,5.6,13.2
		c-3.8,0.2-7.5,0.4-11.2,0.5c-0.5-3.1-1.5-5.4-3-6.7s-4-2-7.1-2.1c-2.7-0.2-5.4,0.6-7.7,2.2c-1.1,0.9-1.8,2.3-1.8,3.7
		s0.6,2.7,1.7,3.6c1.4,1.3,4.9,2.6,10.3,4c4.2,0.9,8.3,2.4,12.1,4.4c2.6,1.4,4.7,3.5,6.2,6.1c1.6,2.9,2.3,6.2,2.2,9.5
		c0,3.4-0.9,6.7-2.6,9.7s-4.3,5.4-7.5,6.8c-3.8,1.6-8,2.3-12.1,2.2c-7,0-12.4-1.8-16.2-5.3S52.6,196.3,51.8,189.6L51.8,189.6z
		 M118.9,209.1c-0.1-16.7-0.2-33.3-0.2-49.9h-16.5v-10.1h44c0,3.4,0,6.8,0.1,10.2h-16.4c0.1,16.6,0.2,33.2,0.3,49.9L118.9,209.1z
		 M149.9,179.4c0-6.1,0.7-11.2,2.4-15.3c1.2-3,2.9-5.9,5.1-8.3c2-2.2,4.4-4,7.1-5.3c3.8-1.7,7.8-2.5,11.9-2.4
		c8.1,0,14.7,2.7,19.6,8.1s7.5,13.2,7.6,23c0.1,9.6-2.3,17.2-7.1,22.8s-11.3,8.2-19.4,8.2c-8.3,0-14.9-2.7-19.8-8.2
		S149.9,189,149.9,179.4L149.9,179.4z M161.3,179c0,6.8,1.6,12,4.5,15.5c2.7,3.4,6.8,5.3,11.1,5.3c4.3,0.1,8.4-1.9,11-5.3
		c2.8-3.4,4.2-8.7,4.1-15.6s-1.5-12.1-4.3-15.4c-5.3-6.1-14.6-6.7-20.7-1.4c-0.5,0.5-1,0.9-1.5,1.5C162.7,167,161.3,172.2,161.3,179
		L161.3,179z M212.6,209.1c-0.2-20-0.4-40-0.6-60h18c6.8,0,11.2,0.3,13.3,0.9c3.3,1,6.1,3,8,5.9c2.2,3,3.3,6.9,3.4,11.6
		c0.1,3.2-0.5,6.4-1.8,9.3c-1,2.3-2.6,4.3-4.6,5.9c-1.7,1.4-3.6,2.4-5.7,2.9c-3.8,0.7-7.7,1-11.6,0.9h-7.2
		c0.1,7.5,0.1,15.1,0.2,22.6L212.6,209.1z M223.3,159.3c0,5.7,0.1,11.3,0.2,17h6.1c4.4,0,7.4-0.3,8.9-1c1.4-0.6,2.7-1.6,3.5-2.9
		c0.9-1.4,1.3-3.1,1.2-4.7c0.1-2-0.6-3.9-1.8-5.4c-1.2-1.3-2.8-2.2-4.5-2.6c-2.7-0.4-5.4-0.5-8.1-0.4L223.3,159.3z"/>
	<path class="st0" d="M257,207.8v-7h3.2c0.5,0,1,0,1.5,0.2c0.3,0.1,0.6,0.4,0.8,0.7c0.2,0.3,0.3,0.6,0.3,1c0,0.5-0.2,0.9-0.5,1.3
		c-0.4,0.4-1,0.6-1.5,0.6c0.2,0.1,0.4,0.2,0.6,0.4c0.3,0.3,0.6,0.6,0.8,0.9l1.2,1.9h-1.2l-0.9-1.4c-0.3-0.4-0.5-0.7-0.7-1
		c-0.1-0.2-0.3-0.3-0.5-0.5c-0.1-0.1-0.3-0.2-0.4-0.2c-0.2,0-0.3,0-0.5,0h-1v3.1H257z M257.9,203.9h2c0.3,0,0.7,0,1-0.1
		c0.4-0.1,0.7-0.5,0.8-1c0-0.3-0.1-0.6-0.4-0.8s-0.7-0.4-1.2-0.3h-2.3L257.9,203.9z"/>
	<path class="st0" d="M260.2,210.2c-3.3-0.1-5.9-2.7-5.8-6s2.7-5.9,6-5.8c3.2,0.1,5.8,2.7,5.8,5.9
		C266.1,207.6,263.4,210.2,260.2,210.2z M260.2,198.9c-3,0.1-5.4,2.6-5.3,5.6c0.1,3,2.6,5.4,5.6,5.3c3-0.1,5.3-2.5,5.3-5.4
		C265.7,201.3,263.2,198.8,260.2,198.9C260.2,198.8,260.2,198.8,260.2,198.9L260.2,198.9L260.2,198.9z"/>
</g>
</svg>
