<?xml version="1.0" encoding="utf-8"?>
<!-- Generator: Adobe Illustrator 16.0.0, SVG Export Plug-In . SVG Version: 6.00 Build 0)  -->
<!DOCTYPE svg PUBLIC "-//W3C//DTD SVG 1.1//EN" "http://www.w3.org/Graphics/SVG/1.1/DTD/svg11.dtd">
<svg version="1.1" id="Capa_1" xmlns="http://www.w3.org/2000/svg" xmlns:xlink="http://www.w3.org/1999/xlink" x="0px" y="0px"
	 width="200px" height="31.842px" viewBox="436.881 473.802 200 31.842" enable-background="new 436.881 473.802 200 31.842"
	 xml:space="preserve">
<path fill="#FFFFFF" d="M552.162,495.384h-13.81v-21.282h4.156v17.578h9.654V495.384z M559.692,495.384h-4.156v-21.282h4.156
	V495.384z M580.08,489.254c0,1.936-0.597,3.442-1.794,4.516c-1.193,1.076-2.77,1.612-4.72,1.612h-8.912v-21.281h8.553
	c2.048,0,3.66,0.537,4.826,1.613c1.167,1.077,1.75,2.532,1.75,4.365c0,1.076-0.298,2.042-0.896,2.901
	c-0.502,0.677-1.08,1.174-1.735,1.491C579.103,485.391,580.08,486.985,580.08,489.254z M575.628,480.258
	c0-0.736-0.239-1.329-0.717-1.776c-0.48-0.448-1.156-0.676-2.034-0.676h-4.067v4.904h4.067c0.878,0,1.553-0.225,2.034-0.674
	C575.389,481.59,575.628,480.999,575.628,480.258z M575.926,489.048c0-0.758-0.239-1.38-0.716-1.869
	c-0.482-0.487-1.167-0.731-2.066-0.731h-4.334v5.232h4.334c0.9,0,1.583-0.251,2.066-0.75
	C575.687,490.436,575.926,489.805,575.926,489.048z M600.438,495.384h-4.812l-4.16-8.488h-2.988v8.488h-4.156v-21.282h8.342
	c2.112,0,3.806,0.639,5.081,1.913c1.214,1.216,1.823,2.752,1.823,4.604c0,1.414-0.39,2.628-1.166,3.645
	c-0.699,0.897-1.603,1.545-2.718,1.944L600.438,495.384z M595.415,480.62c0-0.839-0.279-1.516-0.835-2.032
	c-0.56-0.521-1.286-0.781-2.186-0.781h-3.915v5.622h3.915c0.901,0,1.626-0.26,2.186-0.777
	C595.135,482.131,595.415,481.455,595.415,480.62z M618.88,484.744c0,2.31-0.088,3.914-0.271,4.813
	c-0.258,1.475-0.878,2.699-1.85,3.677c-1.558,1.554-3.473,2.329-5.74,2.329c-2.291,0-4.214-0.775-5.771-2.329
	c-0.954-0.958-1.575-2.184-1.855-3.677c-0.156-0.877-0.239-2.483-0.239-4.813c0-2.332,0.083-3.938,0.239-4.813
	c0.28-1.495,0.901-2.719,1.855-3.675c1.558-1.556,3.48-2.332,5.771-2.332c2.268,0,4.183,0.776,5.74,2.332
	c0.972,0.974,1.592,2.201,1.85,3.675C618.792,480.828,618.88,482.43,618.88,484.744z M614.724,484.744
	c0-1.636-0.017-2.672-0.059-3.106c-0.119-1.319-0.449-2.273-0.987-2.87c-0.674-0.762-1.565-1.137-2.658-1.137
	c-1.114,0-2.016,0.375-2.695,1.137c-0.513,0.597-0.835,1.551-0.955,2.87c-0.036,0.354-0.059,1.394-0.059,3.106
	c0,1.712,0.022,2.749,0.059,3.105c0.12,1.315,0.442,2.273,0.955,2.873c0.68,0.757,1.58,1.134,2.695,1.134
	c1.236,0,2.2-0.479,2.896-1.436C614.453,489.684,614.724,487.793,614.724,484.744z M636.881,489.105
	c0,2.016-0.744,3.595-2.227,4.741c-1.487,1.145-3.375,1.716-5.666,1.716c-3.328,0-5.918-0.937-7.771-2.808l2.69-2.692
	c1.193,1.196,2.91,1.794,5.142,1.794c2.511,0,3.766-0.876,3.766-2.63c0-0.796-0.211-1.389-0.628-1.779
	c-0.418-0.391-1.057-0.643-1.911-0.762l-2.57-0.358c-3.766-0.518-5.651-2.5-5.651-5.95c0-1.93,0.67-3.489,2.001-4.677
	c1.337-1.187,3.14-1.778,5.413-1.778c2.869,0,5.16,0.826,6.872,2.481L633.71,479c-1.015-0.974-2.47-1.463-4.363-1.463
	c-1.054,0-1.867,0.254-2.436,0.76c-0.565,0.51-0.85,1.153-0.85,1.93c0,0.618,0.224,1.136,0.67,1.558
	c0.449,0.415,1.092,0.685,1.928,0.805l2.512,0.358c1.813,0.262,3.168,0.806,4.063,1.646
	C636.331,485.629,636.881,487.136,636.881,489.105z M453.331,496.454c0,2.72-0.771,4.942-2.311,6.641
	c-1.534,1.695-3.655,2.55-6.354,2.55c-1.524,0-2.782-0.209-3.759-0.615c-0.979-0.406-2.057-1.143-3.234-2.199l1.498-1.495
	c0.937,0.85,1.736,1.417,2.373,1.714c0.849,0.399,1.892,0.617,3.122,0.617c2.14,0,3.769-0.71,4.88-2.108
	c1.024-1.289,1.542-3.038,1.542-5.235v-3.784c-1.497,1.995-3.594,2.991-6.289,2.991c-2.227,0-3.957-0.616-5.188-1.847
	c-1.822-1.82-2.731-4.826-2.731-9.016c0-4.192,0.918-7.202,2.731-9.015c1.226-1.228,2.961-1.85,5.188-1.85
	c2.695,0,4.793,0.998,6.289,2.992v-2.727h2.242V496.454L453.331,496.454z M451.09,484.667c0-2.694-0.358-4.738-1.055-6.111
	c-0.938-1.845-2.581-2.772-4.927-2.772c-2.346,0-3.989,0.928-4.926,2.772c-0.697,1.373-1.056,3.417-1.056,6.111
	c0,2.697,0.367,4.721,1.056,6.069c0.95,1.864,2.581,2.813,4.926,2.813c2.346,0,3.977-0.949,4.927-2.813
	C450.719,489.385,451.09,487.364,451.09,484.667z M472.323,475.826l-1.63,1.628c-1.11-1.113-2.447-1.673-4.003-1.673
	c-1.753,0-3.145,0.626-4.154,1.87c-1.01,1.244-1.517,2.769-1.517,4.552v13.063h-2.244v-21.198h2.244v2.812
	c1.292-2.052,3.357-3.076,6.199-3.076C469.271,473.802,470.974,474.477,472.323,475.826z M490.486,495.266h-2.246v-2.508
	c-1.578,1.848-3.662,2.771-6.244,2.771c-2.433,0-4.347-0.709-5.738-2.131c-1.393-1.423-2.088-3.351-2.088-5.784v-13.546h2.239
	v13.147c0,4.223,1.952,6.334,5.854,6.334c1.873,0,3.343-0.554,4.398-1.672c1.051-1.113,1.578-2.668,1.578-4.662v-13.147h2.246
	V495.266z M512.38,484.667c0,4.191-0.913,7.199-2.727,9.018c-1.229,1.229-2.966,1.845-5.191,1.845c-2.696,0-4.793-0.996-6.29-2.989
	v12.843h-2.241v-31.313h2.241v2.728c1.497-1.996,3.594-2.991,6.29-2.991c2.225,0,3.957,0.615,5.191,1.849
	C511.467,477.468,512.38,480.474,512.38,484.667z M510.136,484.667c0-2.694-0.358-4.735-1.057-6.111
	c-0.94-1.847-2.58-2.772-4.926-2.772c-2.346,0-3.986,0.926-4.926,2.772c-0.698,1.376-1.056,3.417-1.056,6.111
	c0,2.697,0.367,4.716,1.056,6.069c0.951,1.869,2.581,2.813,4.926,2.813c2.346,0,3.975-0.944,4.926-2.813
	C509.768,489.38,510.136,487.364,510.136,484.667z M532.43,484.667c0,3.931-0.877,6.774-2.636,8.533
	c-1.557,1.553-3.521,2.329-5.894,2.329s-4.338-0.776-5.896-2.329c-1.757-1.759-2.638-4.604-2.638-8.533
	c0-3.929,0.881-6.773,2.638-8.532c1.557-1.555,3.522-2.331,5.896-2.331c2.374,0,4.337,0.776,5.894,2.331
	C531.553,477.893,532.43,480.738,532.43,484.667z M530.19,484.667c0-3.459-0.617-5.805-1.847-7.036
	c-1.234-1.232-2.713-1.848-4.443-1.848c-1.731,0-3.21,0.615-4.444,1.848c-1.23,1.231-1.847,3.577-1.847,7.036
	c0,3.462,0.616,5.806,1.847,7.038c1.234,1.231,2.713,1.845,4.444,1.845c1.73,0,3.209-0.613,4.443-1.845
	C529.573,490.47,530.19,488.128,530.19,484.667z"/>
</svg>
