<?xml version="1.0" encoding="utf-8"?>
<!-- Generator: Adobe Illustrator 16.0.0, SVG Export Plug-In . SVG Version: 6.00 Build 0)  -->
<!DOCTYPE svg PUBLIC "-//W3C//DTD SVG 1.1//EN" "http://www.w3.org/Graphics/SVG/1.1/DTD/svg11.dtd">
<svg version="1.1" id="Capa_1" xmlns="http://www.w3.org/2000/svg" xmlns:xlink="http://www.w3.org/1999/xlink" x="0px" y="0px"
	 width="250px" height="52.025px" viewBox="0 0 250 52.025" enable-background="new 0 0 250 52.025" xml:space="preserve">
<g>
	<g>
		<g>
			<g>
				<defs>
					<circle id="SVGID_1_" cx="222.473" cy="25.242" r="24.599"/>
				</defs>
				<clipPath id="SVGID_2_">
					<use xlink:href="#SVGID_1_"  overflow="visible"/>
				</clipPath>
				
					<radialGradient id="SVGID_3_" cx="212.6348" cy="798.5574" r="45.2559" gradientTransform="matrix(1 0 0 1 0.0801 -790.5449)" gradientUnits="userSpaceOnUse">
					<stop  offset="0" style="stop-color:#FFFFFF"/>
					<stop  offset="0.3455" style="stop-color:#F58440"/>
					<stop  offset="0.8325" style="stop-color:#D54243"/>
				</radialGradient>
				<circle clip-path="url(#SVGID_2_)" fill="url(#SVGID_3_)" cx="212.714" cy="8.013" r="45.256"/>
			</g>
		</g>
	</g>
	<path opacity="0.2" fill="#231F20" enable-background="new    " d="M247.07,25.241c0-6.425-2.481-12.253-6.514-16.635
		c1.151,3.352,1.801,6.957,1.801,10.733c0,14.706-9.539,27.027-22.383,30.374c0.819,0.084,1.653,0.127,2.496,0.127
		C236.059,49.842,247.07,38.827,247.07,25.241z"/>
	<path fill="#EEC449" d="M184.29,19.894c23.582-13.209,71.263-4.25,60.408,15.815c3.368-2.252,5.247-5.55,5.302-8.776v-0.319
		c-0.036-2.163-0.904-4.272-2.695-5.993C236.754,10.39,203.846,6.365,184.29,19.894L184.29,19.894z"/>
	<g>
		<path fill="#FFFFFF" d="M15.655,22.286h4.096l-0.566,3.086c-0.586,0.088-1.1,0.143-1.632,0.143c-3.794,0-6.259-2.554-6.259-6.438
			c0-4.627,2.766-7.907,6.791-7.907c1.896,0,3.262,0.709,4.361,2.197l10.23-3.775c-2.766-5.337-7.553-8.066-14.291-8.066
			c-5.727,0-10.727,2.163-14.061,6.135C1.472,10.992,0,15.142,0,19.806c0,8.651,6.223,14.786,15.833,14.786
			c4.662-0.001,9.077-1.508,13.402-4.504l2.75-14.946h-15L15.655,22.286z"/>
		<path fill="#FFFFFF" d="M132.375,29.574h7.607l0.211,4.185H151.4l-4.114-31.542h-12.481l-16.454,31.542h12.322L132.375,29.574z
			 M137.729,16.862c0.338-0.869,0.924-2.411,1.578-4.539c-0.053,0.799-0.053,1.543-0.053,2.199c0,1.685,0.089,3.085,0.16,4.202
			l0.124,3.386h-4.024L137.729,16.862z"/>
		<path fill="#FFFFFF" d="M114.785,17.571c4.415-0.479,6.737-2.872,6.737-6.755c0-5.55-4.485-8.601-13.314-8.601H97.356
			L91.56,33.759h15.655c8.812,0,13.651-3.973,13.651-9.752C120.866,20.62,118.633,18.156,114.785,17.571z M104.608,26.083h-0.797
			v-0.001l0.885-4.806h1.756c2.216,0,3.263,0.604,3.263,2.164C109.715,25.515,108.119,26.083,104.608,26.083z M106.63,13.919h-0.585
			l0.763-4.024h1.489c1.647,0,2.571,0.709,2.571,1.861C110.868,13.281,109.45,13.919,106.63,13.919z"/>
		<polygon fill="#FFFFFF" points="50.017,2.217 38.349,2.217 32.552,33.759 32.552,33.76 53.828,33.76 55.653,24.044 45.955,24.044 
					"/>
		<path fill="#FFFFFF" d="M75.14,1.472c-5.639,0-10.639,2.252-13.972,6.188c-2.854,3.333-4.326,7.447-4.326,12.146
			c0,4.415,1.81,8.475,4.806,11.082c2.854,2.463,6.524,3.703,11.063,3.703c5.745,0,10.585-2.162,14.042-6.17
			c2.855-3.298,4.309-7.5,4.309-12.163C91.062,7.607,84.767,1.472,75.14,1.472z M73.42,24.131c-3.209,0-5.249-2.198-5.249-5.497
			c0.001-3.758,2.643-6.666,6.277-6.666c2.979,0,5.23,2.163,5.23,5.338C79.679,21.064,77.002,24.131,73.42,24.131z"/>
		<polygon fill="#FFFFFF" points="169.467,2.216 157.836,2.216 152.002,33.759 173.313,33.759 175.123,24.043 165.407,24.043 		"/>
		<path fill="#FFFFFF" d="M170.673,41.913c-1.33,0-2.446,0.249-3.368,0.711c-0.887,0.46-1.49,1.1-1.81,1.913
			c-0.144,0.408-0.177,0.78-0.124,1.136c0.07,0.337,0.229,0.621,0.531,0.903c0.283,0.267,0.834,0.691,1.668,1.225
			c0.248,0.159,0.461,0.302,0.584,0.391c0.285,0.194,0.479,0.391,0.586,0.604c0.105,0.194,0.124,0.392,0.053,0.585
			c-0.088,0.23-0.248,0.427-0.497,0.567c-0.248,0.143-0.53,0.213-0.851,0.213c-0.354,0-0.586-0.09-0.691-0.248
			c-0.105-0.143-0.105-0.391,0.018-0.71c0.09-0.248,0.195-0.495,0.285-0.779c-1.048,0-2.094,0-3.14,0
			c-0.088,0.267-0.177,0.497-0.249,0.728c-0.336,0.887-0.248,1.543,0.303,2.021c0.514,0.442,1.437,0.676,2.783,0.676
			c1.348,0,2.482-0.231,3.404-0.676c0.922-0.479,1.543-1.101,1.861-1.914c0.105-0.283,0.16-0.532,0.16-0.799
			c0.019-0.229-0.019-0.462-0.105-0.655c-0.124-0.302-0.674-0.798-1.631-1.524c-0.09-0.053-0.144-0.088-0.195-0.143
			c-0.02,0-0.036-0.019-0.053-0.035c-1.117-0.779-1.613-1.364-1.473-1.72c0.07-0.229,0.229-0.407,0.442-0.531
			c0.229-0.144,0.479-0.214,0.763-0.214c0.354,0,0.586,0.09,0.691,0.229c0.105,0.144,0.105,0.372-0.02,0.709
			c-0.088,0.213-0.16,0.443-0.248,0.656c0.992,0,2.021,0,3.031,0c0.106-0.267,0.213-0.531,0.303-0.798
			c0.318-0.853,0.229-1.473-0.267-1.881C172.906,42.145,171.984,41.913,170.673,41.913z"/>
		<path fill="#FFFFFF" d="M165.85,42.057c-2.5,0-4.981,0-7.465,0.019c-0.213,0.638-0.426,1.276-0.639,1.896c0.691,0,1.4,0,2.093,0
			c-0.461,1.312-0.922,2.625-1.364,3.9c-0.461,1.294-0.888,2.57-1.33,3.847c1.027,0,2.092,0,3.139,0
			c0.443-1.276,0.904-2.553,1.363-3.847c0.463-1.275,0.924-2.589,1.401-3.9c0.71,0,1.402,0,2.093,0
			C165.371,43.333,165.602,42.713,165.85,42.057z"/>
		<path fill="#FFFFFF" d="M154.043,42.075c-1.542,0-3.066,0-4.609,0c-0.515,1.648-1.047,3.28-1.578,4.894
			c-0.517,1.577-1.014,3.174-1.526,4.751c1.026,0,2.073,0,3.121,0c0.212-0.69,0.442-1.383,0.674-2.073
			c0.248-0.691,0.479-1.4,0.709-2.092c0.709,0,1.17,0.088,1.349,0.229c0.178,0.16,0.194,0.497,0.019,1.029
			c-0.195,0.604-0.408,1.206-0.604,1.808c-0.104,0.319-0.16,0.551-0.177,0.71c-0.019,0.159,0,0.283,0.035,0.392
			c1.082,0,2.128,0,3.174,0c-0.053-0.106-0.088-0.248-0.088-0.392c0-0.159,0.053-0.354,0.16-0.619
			c0.248-0.729,0.497-1.454,0.745-2.198c0.177-0.517,0.177-0.923,0-1.188c-0.178-0.283-0.551-0.497-1.137-0.621
			c0.691-0.159,1.207-0.406,1.58-0.689c0.354-0.284,0.639-0.675,0.814-1.188c0.053-0.177,0.124-0.354,0.177-0.565
			c0.267-0.729,0.159-1.276-0.319-1.631C156.1,42.271,155.268,42.075,154.043,42.075z M153.616,44.61
			c-0.071,0.196-0.124,0.373-0.179,0.55c-0.104,0.319-0.317,0.532-0.603,0.656c-0.284,0.105-0.798,0.177-1.524,0.194
			c0.248-0.744,0.496-1.488,0.744-2.27c0.055,0,0.088,0,0.125,0c0.672,0,1.1,0.071,1.293,0.195
			C153.669,44.06,153.723,44.292,153.616,44.61z"/>
		<path fill="#FFFFFF" d="M147.02,44.984c0.318-1.029,0.213-1.773-0.318-2.271c-0.551-0.496-1.524-0.764-2.961-0.764
			c-1.4,0-2.534,0.267-3.387,0.78c-0.852,0.496-1.455,1.241-1.736,2.252c-0.215,0.656-0.408,1.313-0.605,1.985
			c-0.177,0.656-0.39,1.313-0.566,1.97c-0.301,0.957-0.158,1.683,0.391,2.197c0.532,0.479,1.49,0.728,2.873,0.728
			s2.48-0.248,3.333-0.728c0.833-0.495,1.399-1.24,1.72-2.197c0.213-0.674,0.426-1.313,0.639-1.97
			C146.611,46.297,146.807,45.64,147.02,44.984z M143.917,44.628c-0.267,0.778-0.515,1.562-0.745,2.34
			c-0.248,0.78-0.479,1.543-0.709,2.323c-0.107,0.302-0.248,0.53-0.443,0.655c-0.194,0.143-0.442,0.213-0.797,0.213
			c-0.339,0-0.568-0.07-0.675-0.213c-0.106-0.125-0.106-0.354-0.019-0.655c0.23-0.78,0.462-1.543,0.691-2.323
			c0.248-0.778,0.496-1.562,0.729-2.34c0.105-0.318,0.248-0.567,0.441-0.71c0.195-0.143,0.461-0.212,0.799-0.212
			c0.336,0,0.584,0.069,0.709,0.212C144.006,44.06,144.006,44.309,143.917,44.628z"/>
		<path fill="#FFFFFF" d="M137.676,44.594c0.23-0.853,0.106-1.453-0.39-1.861c-0.532-0.407-1.438-0.64-2.731-0.64
			c-1.507,0-3.031,0.035-4.556,0.035c-0.442,1.613-0.888,3.245-1.33,4.858c-0.442,1.578-0.869,3.155-1.294,4.732
			c1.046,0,2.092,0,3.12,0c0.194-0.619,0.373-1.259,0.532-1.86c0.177-0.621,0.354-1.276,0.531-1.896c0.566,0,1.152,0,1.756,0
			c1.063,0,1.969-0.213,2.678-0.621c0.689-0.425,1.188-1.026,1.418-1.825C137.499,45.214,137.587,44.895,137.676,44.594z
			 M134.396,44.786c-0.054,0.195-0.105,0.391-0.16,0.568c-0.088,0.317-0.266,0.549-0.551,0.69c-0.281,0.143-0.689,0.212-1.259,0.212
			c-0.104,0-0.177,0-0.229,0c-0.072,0.001-0.107-0.018-0.16-0.018c0.229-0.779,0.442-1.578,0.674-2.395c0.106,0,0.212,0,0.319,0
			c0.603,0,1.011,0.07,1.224,0.213C134.45,44.184,134.503,44.449,134.396,44.786z"/>
		<path fill="#FFFFFF" d="M125,46.313c-0.089-0.055-0.16-0.106-0.213-0.144c-0.019,0-0.035-0.018-0.071-0.035
			c-1.188-0.778-1.72-1.349-1.631-1.701c0.053-0.248,0.177-0.408,0.391-0.551c0.194-0.124,0.442-0.193,0.727-0.193
			c0.354,0,0.585,0.069,0.709,0.229c0.124,0.142,0.124,0.391,0.053,0.69c-0.053,0.213-0.124,0.443-0.177,0.656
			c0.993,0,2.004,0,2.995,0c0.072-0.266,0.143-0.514,0.214-0.78c0.229-0.852,0.071-1.47-0.479-1.879
			c-0.55-0.409-1.471-0.639-2.783-0.639s-2.375,0.248-3.244,0.708c-0.834,0.463-1.348,1.082-1.543,1.916
			c-0.106,0.407-0.106,0.778-0.019,1.116c0.107,0.338,0.319,0.62,0.603,0.903c0.32,0.268,0.924,0.675,1.81,1.206
			c0.267,0.177,0.479,0.302,0.603,0.391c0.319,0.195,0.533,0.392,0.656,0.604c0.124,0.193,0.159,0.39,0.106,0.585
			c-0.054,0.23-0.195,0.406-0.427,0.55c-0.213,0.143-0.479,0.213-0.797,0.213c-0.336,0-0.567-0.07-0.728-0.229
			c-0.124-0.159-0.142-0.391-0.071-0.708c0.07-0.249,0.159-0.498,0.23-0.781c-1.047,0-2.092,0-3.12,0
			c-0.071,0.267-0.124,0.497-0.175,0.728c-0.231,0.867-0.053,1.523,0.514,2.003c0.585,0.443,1.523,0.676,2.854,0.676
			c1.313,0,2.412-0.215,3.28-0.676c0.853-0.459,1.402-1.1,1.614-1.896c0.07-0.283,0.105-0.531,0.088-0.797
			c-0.018-0.23-0.07-0.461-0.177-0.656C126.631,47.518,126.027,47.022,125,46.313z"/>
		<path fill="#FFFFFF" d="M179.503,0c-2.127,0-4.042,1.488-4.042,4.024c0,2.553,1.914,4.042,4.042,4.042
			c2.146,0,4.042-1.489,4.042-4.042C183.545,1.489,181.646,0,179.503,0z M179.502,7.146V7.128c-1.596,0.019-2.873-1.24-2.873-3.104
			c0-1.844,1.277-3.085,2.873-3.085c1.578,0,2.873,1.241,2.873,3.085C182.375,5.887,181.081,7.146,179.502,7.146z"/>
		<path fill="#FFFFFF" d="M181.311,3.174c0-0.992-0.674-1.313-1.771-1.313h-1.631v4.326h0.938V4.362h0.426l0.994,1.826h1.116
			l-1.116-1.896C180.832,4.255,181.311,3.972,181.311,3.174z M179.662,3.635h-0.816V2.589h0.639c0.354,0,0.834,0.035,0.834,0.496
			C180.318,3.564,180.068,3.635,179.662,3.635z"/>
	</g>
</g>
</svg>
