<?xml version="1.0" encoding="utf-8"?>
<!-- Generator: Adobe Illustrator 24.1.1, SVG Export Plug-In . SVG Version: 6.00 Build 0)  -->
<svg version="1.1" id="Capa_1" xmlns="http://www.w3.org/2000/svg" xmlns:xlink="http://www.w3.org/1999/xlink" x="0px" y="0px"
	 viewBox="0 0 962.1 152" style="enable-background:new 0 0 962.1 152;" xml:space="preserve">
<style type="text/css">
	.st0{fill-rule:evenodd;clip-rule:evenodd;fill:#000200;}
</style>
<g>
	<path class="st0" d="M0,152V0h37.3v123.2h44.3V152L0,152L0,152z M134.1,94.7h22.4l-9.1-66.3h-3.7L134.1,94.7z M89.4,152L116.6,0
		h59.8l26.2,152h-37.8l-4.1-28.4h-31l-3.8,28.4H89.4z M343.3,0l27.3,20.9v37.2h-37.4V28.9h-25.4v94.3h25.4V86.7h37.4v44.4L343.3,152
		H297l-26.6-20.9V20.9L297,0H343.3L343.3,0z M425.4,94.7h22.4l-9.1-66.3H435L425.4,94.7z M380.8,152L408,0h59.8L494,152h-37.8
		l-4.1-28.4h-31l-3.8,28.4H380.8z M505.4,152V0h35l30.8,85.3V0h32.7v152h-32.7l-33.3-91.5V152L505.4,152L505.4,152z M693.4,0
		l27.3,20.9v37.2h-37.5V28.9h-25.3v94.3h25.3V86.7h37.5v44.4L693.4,152h-46.3l-26.6-20.9V20.9L647.1,0H693.4L693.4,0z M738.3,152V0
		h37.3v62.4h25.7V0h37.3v152h-37.3V91.2h-25.7V152H738.3z M893.5,94.7H916l-9.1-66.3h-3.7L893.5,94.7z M848.9,152L876.1,0h59.8
		l26.2,152h-37.8l-4.1-28.4h-31l-3.8,28.4H848.9z"/>
</g>
</svg>
