<?xml version="1.0" encoding="UTF-8"?>
<svg xmlns="http://www.w3.org/2000/svg" viewBox="0 0 8739.69 2502">
  <defs>
    <style>.cls-1{fill:#515151;}.cls-2{fill:#4d4d4d;}</style>
  </defs>
  <g id="Layer_2" data-name="Layer 2">
    <g id="Capa_1" data-name="Capa 1">
      <path class="cls-1" d="M0,118.54l321.74-8.47s42.33,33.87,160.87,25.4l127-8.47h67.74l25.4-25.4h50.8l42.33-8.46h16.94l25.4,42.33h127l16.94-16.93h8.46l16.94-16.94V84.67s203.2,0,287.87-16.94c0,0,127-8.46,211.67-16.93L1524,67.73H1541l16.93,8.47h50.8l8.47,8.47S1651,93.14,1668,50.8l25.4-33.87L1845.77,0l33.87,541.88H1481.7s-21.17-38.1-55-38.1a63.52,63.52,0,0,0-50.81,25.4L1342,537.65l-8.47,8.46h-127s-8.47,0,0,16.94,16.93,25.4,16.93,25.4v16.93l16.93,16.93V791.65l-16.93,33.87v127l16.93,16.93v635s-33.86,42.33,0,143.94c0,0-33.86,177.8-25.4,194.73,0,0,8.47,33.87,42.34,50.8l8.46,160.87s-101.6,110.07,16.94,228.61l16.93,110.07L1054.12,2502s-25.4-25.4-67.73-8.47c0,0-8.47,8.47-25.4-8.47,0,0-33.87-42.33-76.2,0,0,0-16.94,8.47-16.94,16.94H715.45s-8.47-101.61,16.93-431.81v-16.94l8.47-16.93v-84.67l-8.47-8.47,8.47-406.41s42.33-50.8,25.4-194.73V1215s-16.93-25.4-25.4-25.4V1088l76.2-33.87v-8.46s25.4,0,8.47-50.8c0,0-8.47-42.34-42.34-42.34l-59.26-59.27h8.46L715.45,554.58,275.17,580s-42.33-16.93-50.8-16.93v-8.47l-8.47,8.47s-8.46-8.47-42.33,0L97.37,580Z"></path>
      <path class="cls-1" d="M1951.61,105.84l584.21-8.47s-25.4,169.34-8.46,355.61L2502,469.91v16.93s-33.87,16.94-8.47,50.81l8.47,8.46v8.47s8.46,0,16.93,33.87v177.8s-33.87,42.33-8.47,76.2l8.47,8.47h-8.47v16.93s-16.93,16.94,0,59.27l16.94,8.47V1342h186.27l8.46,8.46s8.47,0,16.94,8.47,16.93,16.93,42.33,16.93,33.87,0,67.74-16.93l50.8-16.93,220.14,8.46s33.86,25.4,101.6,16.94l16.93-8.47h127V1003.32l-67.74,42.34,84.67-101.61V884.79l-8.47-25.4L3391,664.65s-8.47-33.87-33.87-59.27l-8.47-160.87S3374,436,3374,410.64l-8.46-25.4h16.93s33.87-67.73-42.34-169.34V97.37h228.61s33.87,33.87,59.27,16.93c0,0,33.87-16.93,50.8,16.94,0,0,42.33,33.86,76.2-25.4V97.37h152.4l-16.93,457.21s-42.33,42.33-16.93,93.13l-8.47,423.35s-33.87,59.27-33.87,127l8.47,169.34h160.87l8.47,431.81H3856.65s8.47,245.54,25.4,364.07l-25.4,8.47v16.93l-25.4,33.87V2248l-8.46,8.47,8.46,8.46s0,42.34,42.34,33.87l16.93,25.4s8.47,118.54,25.4,143.94H3340.17l8.47-355.61,25.4-16.93v-8.47s33.87-25.4,0-59.27c0,0-25.4-25.4-25.4-59.27l8.47-160.87s16.93-25.4,16.93-67.73c0,0-25.4,0-50.8,33.87l-33.87,25.4h-8.46l-25.4,16.93-609.62,16.93-8.46-16.93h-33.87s-16.94-16.93-76.2-25.4l-16.94-8.47-16.93,110.07s8.47,50.8,50.8,76.2c0,0-8.47,84.67,8.47,152.41,0,0-33.87,16.93-25.4,42.33,0,0-67.74,76.2,42.33,194.74,0,0,0,93.13,8.47,110.07H2332.62s-33.87-42.34-67.74,0l-25.4,33.87v-42.34s-8.46-33.87-50.8-25.4c0,0-16.93,8.47-16.93,16.93a30.07,30.07,0,0,0-25.4,16.94H1993.94l8.47-440.28s50.8-50.8,16.94-110.07v-8.46l-50.81-33.87h42.34l8.47-381s42.33-25.4,33.86-194.74l-8.46-118.53s0-8.47-16.94-25.4V1054.12s84.67-33.86,84.67-59.26,16.93-33.87-42.33-84.67l-42.34-42.34-33.87-448.74,16.94-8.47v-25.4s16.93-16.93,16.93-33.87V326l16.94-8.46s-8.47-33.87-50.81-42.34l-25.4-16.93S1977,182,1951.61,105.84Z"></path>
      <path class="cls-2" d="M6913.19,977.92h-25.4l-93.14-50.8c-59.27,0-110.07-16.93-110.07-16.93V876.32c-67.73,8.47-50.8-33.87-50.8-33.87l-25.4-16.93V808.58l-127-84.66c-33.87,16.93-84.67-8.47-84.67-8.47L6261.24,596.91c-76.2-16.93-101.6-84.67-101.6-84.67l-372.54-254L5854.83,199,5541.56,80.43,5533.09,72c-50.8-25.4-67.73-59.27-67.73-59.27L5440,38.1l-42.33-16.93L5313,97.37V114.3l-8.46,8.47,8.46,8.47-8.46,8.46-101.61,76.2-25.4-8.46-76.2,59.27v16.93c-152.4,152.4-254,177.8-254,177.8L4550.93,681.58v8.47L4534,715.45c-59.27,33.87-76.2,33.87-76.2,33.87L4119.13,994.86h-42.34l127,76.2,110.07,25.4v25.4c50.8,8.46,59.27,33.87,59.27,33.87,0,8.46,8.47,16.93,8.47,16.93l16.93,8.47v16.93l118.54,76.2c59.27,0,67.73,8.47,67.73,8.47l16.94,8.47h8.46l127,110.06,33.86,16.94c42.34,16.93,67.74,67.73,67.74,67.73l372.54,262.48-67.74,50.8c84.67,25.4,270.94,110.07,287.88,110.07S5541.56,1977,5541.56,1977l16.93-16.93,50.8,16.93c50.8-50.8,84.67-67.73,84.67-67.73v-16.94l8.47-8.46-8.47-16.94,101.6-76.2,25.4,8.47,84.67-67.74-8.46-8.47c186.27-177.8,262.47-177.8,262.47-177.8L6456,1325.06v-8.46l8.46-16.94v-8.46l59.27-33.87v16.93Zm-804.35,50.8s0,50.8-25.4,67.74L5948,1181.13s-50.8,76.2-101.61,67.73l-127,33.87H5804l-254,203.2-42.33-25.4s-42.33,0-118.54-67.73c0,0-127-76.2-143.93-135.47l-287.88-211.67h-16.93l-16.93-16.94h-16.94s-33.86-8.46-42.33-33.86l25.4-16.94s-8.47-33.87,25.4-67.73L5059,817.05s25.4-42.33,59.26-50.8v-25.4l8.47,16.93L5169,740.85l279.4-220.14,42.34,25.4s33.86-8.47,152.4,84.67c0,0,101.6,67.74,110.07,110.07L6049.57,961l33.87,8.46s42.33,16.94,50.8,42.34Z"></path>
      <path class="cls-1" d="M4702.91,2067.67s169.34,33.86,389.48,16.93c0,0,0,8.47,25.4,16.93,0,0,33.87,25.4,84.67,0v-8.46h16.93l25.4-8.47,194.74,8.47v8.46l25.4,8.47,812.82,8.47v355.61h-33.87s-42.33-33.87-330.21-25.41c0,0-50.8,0-59.27,16.94H5752.8l-33.86-33.87s-16.94-50.8-76.21-33.87l-16.93,8.47s-33.87,8.47-33.87,25.4l-42.33,25.4v8.47l-508,8.47-8.47-16.94-16.93,16.94s-8.47-25.41-33.87-25.41c0,0-8.47-8.46-33.87-8.46l-8.47-8.47-8.46,8.47s-33.87,0-42.34,16.93v8.47l-25.4,25.4H4702.91"></path>
      <path class="cls-1" d="M6860.05,118.58l321.74-8.46s42.33,33.86,160.87,25.4l127-8.47h67.74l25.4-25.4h50.8l42.33-8.47h16.94l25.4,42.34h127l16.93-16.94h8.47l16.93-16.93V84.72s203.21,0,287.88-16.94c0,0,127-8.47,211.67-16.93l16.93,16.93H8401L8418,76.25h50.8l8.47,8.47s33.87,8.46,50.8-33.87L8553.42,17,8705.82.05l33.87,541.88H8341.75s-21.17-38.11-55-38.11a63.51,63.51,0,0,0-50.8,25.41l-33.86,8.46-8.47,8.47h-127s-8.47,0,0,16.93,16.93,25.4,16.93,25.4v16.94l16.93,16.93V791.7l-16.93,33.86v127l16.93,16.93v635s-33.86,42.33,0,143.93c0,0-33.86,177.81-25.4,194.74,0,0,8.47,33.87,42.34,50.8l8.46,160.87s-101.6,110.07,16.94,228.61l16.93,110.07L7914.17,2502s-25.4-25.4-67.73-8.46c0,0-8.47,8.46-25.4-8.47,0,0-33.87-42.34-76.2,0,0,0-16.94,8.47-16.94,16.93H7575.5s-8.47-101.6,16.93-431.81v-16.93l8.47-16.93v-84.67l-8.47-8.47,8.47-406.41s42.33-50.8,25.4-194.74V1215s-16.93-25.4-25.4-25.4V1088l76.2-33.87v-8.47s25.4,0,8.47-50.8c0,0-8.47-42.33-42.34-42.33L7584,893.3h8.46L7575.5,554.63,7135.22,580s-42.33-16.94-50.8-16.94v-8.46l-8.47,8.46s-8.46-8.46-42.33,0L6957.42,580Z"></path>
    </g>
  </g>
</svg>
