<?xml version="1.0" encoding="utf-8"?>
<!-- Generator: Adobe Illustrator 24.1.1, SVG Export Plug-In . SVG Version: 6.00 Build 0)  -->
<svg version="1.1" id="Capa_1" xmlns="http://www.w3.org/2000/svg" xmlns:xlink="http://www.w3.org/1999/xlink" x="0px" y="0px"
	 viewBox="0 0 697.5 96.8" style="enable-background:new 0 0 697.5 96.8;" xml:space="preserve">
<style type="text/css">
	.st0{fill:none;}
	.st1{fill:#9B223D;}
	.st2{fill-rule:evenodd;clip-rule:evenodd;fill:url(#SVGID_18_);}
	.st3{clip-path:url(#SVGID_21_);}
	.st4{fill:url(#SVGID_48_);}
	.st5{clip-path:url(#SVGID_23_);}
	.st6{clip-path:url(#SVGID_25_);}
	.st7{clip-path:url(#SVGID_27_);}
	.st8{clip-path:url(#SVGID_29_);}
	.st9{clip-path:url(#SVGID_31_);}
	.st10{clip-path:url(#SVGID_33_);}
	.st11{clip-path:url(#SVGID_35_);}
	.st12{clip-path:url(#SVGID_37_);}
	.st13{clip-path:url(#SVGID_39_);}
	.st14{clip-path:url(#SVGID_41_);}
	.st15{clip-path:url(#SVGID_43_);}
	.st16{clip-path:url(#SVGID_46_);}
	.st17{clip-path:url(#SVGID_49_);}
	.st18{clip-path:url(#SVGID_52_);}
	.st19{clip-path:url(#SVGID_55_);}
	.st20{clip-path:url(#SVGID_58_);}
	.st21{clip-path:url(#SVGID_61_);fill:none;stroke:url(#SVGID_62_);stroke-width:2;}
	.st22{clip-path:url(#SVGID_64_);fill-rule:evenodd;clip-rule:evenodd;fill:url(#SVGID_65_);}
	.st23{clip-path:url(#SVGID_67_);fill:none;stroke:url(#SVGID_68_);stroke-width:2;}
	.st24{clip-path:url(#SVGID_70_);fill:none;stroke:url(#SVGID_71_);stroke-width:2;}
	.st25{clip-path:url(#SVGID_73_);fill:none;stroke:url(#SVGID_74_);stroke-width:2;}
	.st26{clip-path:url(#SVGID_76_);fill:none;stroke:url(#SVGID_77_);stroke-width:2;}
</style>
<pattern  x="-0.4" y="98.7" width="13" height="13" patternUnits="userSpaceOnUse" id="SVGID_19_" viewBox="0 -13 13 13" style="overflow:visible;">
	<g>
		<rect y="-13" class="st0" width="13" height="13"/>
		<g>
			<rect y="-13" class="st0" width="13" height="13"/>
			<g>
				<polygon class="st0" points="0,0 13,0 13,-13 0,-13 				"/>
				<polygon class="st1" points="13,0 0,0 0,-13 13,-13 				"/>
			</g>
		</g>
	</g>
</pattern>
<pattern  x="-0.4" y="98.7" width="13" height="13" patternUnits="userSpaceOnUse" id="SVGID_45_" viewBox="0 -13 13 13" style="overflow:visible;">
	<g>
		<rect y="-13" class="st0" width="13" height="13"/>
		<g>
			<rect y="-13" class="st0" width="13" height="13"/>
			<g>
				<polygon class="st0" points="0,0 13,0 13,-13 0,-13 				"/>
				<polygon class="st1" points="13,0 0,0 0,-13 13,-13 				"/>
			</g>
		</g>
	</g>
</pattern>
<pattern  x="-0.4" y="98.7" width="13" height="13" patternUnits="userSpaceOnUse" id="SVGID_48_" viewBox="0 -13 13 13" style="overflow:visible;">
	<g>
		<rect y="-13" class="st0" width="13" height="13"/>
		<g>
			<rect y="-13" class="st0" width="13" height="13"/>
			<g>
				<polygon class="st0" points="0,0 13,0 13,-13 0,-13 				"/>
				<polygon class="st1" points="13,0 0,0 0,-13 13,-13 				"/>
			</g>
		</g>
	</g>
</pattern>
<pattern  x="-0.4" y="98.7" width="13" height="13" patternUnits="userSpaceOnUse" id="SVGID_51_" viewBox="0 -13 13 13" style="overflow:visible;">
	<g>
		<rect y="-13" class="st0" width="13" height="13"/>
		<g>
			<rect y="-13" class="st0" width="13" height="13"/>
			<g>
				<polygon class="st0" points="0,0 13,0 13,-13 0,-13 				"/>
				<polygon class="st1" points="13,0 0,0 0,-13 13,-13 				"/>
			</g>
		</g>
	</g>
</pattern>
<pattern  x="-0.4" y="98.7" width="13" height="13" patternUnits="userSpaceOnUse" id="SVGID_54_" viewBox="0 -13 13 13" style="overflow:visible;">
	<g>
		<rect y="-13" class="st0" width="13" height="13"/>
		<g>
			<rect y="-13" class="st0" width="13" height="13"/>
			<g>
				<polygon class="st0" points="0,0 13,0 13,-13 0,-13 				"/>
				<polygon class="st1" points="13,0 0,0 0,-13 13,-13 				"/>
			</g>
		</g>
	</g>
</pattern>
<pattern  x="-0.4" y="98.7" width="13" height="13" patternUnits="userSpaceOnUse" id="SVGID_57_" viewBox="0 -13 13 13" style="overflow:visible;">
	<g>
		<rect y="-13" class="st0" width="13" height="13"/>
		<g>
			<rect y="-13" class="st0" width="13" height="13"/>
			<g>
				<polygon class="st0" points="0,0 13,0 13,-13 0,-13 				"/>
				<polygon class="st1" points="13,0 0,0 0,-13 13,-13 				"/>
			</g>
		</g>
	</g>
</pattern>
<pattern  x="-0.4" y="98.7" width="13" height="13" patternUnits="userSpaceOnUse" id="SVGID_60_" viewBox="0 -13 13 13" style="overflow:visible;">
	<g>
		<rect y="-13" class="st0" width="13" height="13"/>
		<g>
			<rect y="-13" class="st0" width="13" height="13"/>
			<g>
				<polygon class="st0" points="0,0 13,0 13,-13 0,-13 				"/>
				<polygon class="st1" points="13,0 0,0 0,-13 13,-13 				"/>
			</g>
		</g>
	</g>
</pattern>
<pattern  id="SVGID_18_" xlink:href="#SVGID_19_" patternTransform="matrix(1.4972 0 0 1.4972 10995.6934 28314.3242)">
</pattern>
<path class="st2" d="M595.1,55.8c0,0,0,0,0,0.1c-0.1,2.7-1.3,4.3-3.3,5.7c-2.9,2.2-5.5,2.7-8.5,2.6c-1,0-2.1-0.2-3.1-0.5
	c-4.2-1.2-8.3-4.2-12.4-7.8L595.1,55.8L595.1,55.8 M594.4,51.9c-3.1,0.9-7.6,0.5-10.5,0.5H580c-0.8,0-1.3-0.3-1.7-0.9
	c-0.3-0.6-0.5-1.3-0.5-2.3V28.6h7.7c3.2,0,5.7,0.6,7.6,1.8c1.9,1.2,2.8,3.3,2.8,6.3h1.8V17h-1.8c0,3.1-0.9,5.2-2.8,6.3
	s-4.4,1.8-7.6,1.8h-7.7V7.1c0-1,0.3-1.8,1-2.4s1.6-0.9,2.6-0.9h9.1c2.8,0,5,0.8,6.5,2.4c1.6,1.6,2.5,3.6,3,6.2h1.9v-12h-40.2v1.6
	c2.8,0,4.8,0.5,5.8,1.5s1.6,2.2,1.6,3.6V49c0,1.5-0.5,2.7-1.6,3.6c-0.5,0.4-1.1,0.8-2.1,1c-8.2-8.1-15.6-18.8-20.4-24.9
	c4.5-0.6,8-2.1,10.9-4.4c2.8-2.3,4.3-5.5,4.3-9.7c0-4.9-2-8.5-5.8-11c-3.8-2.4-9.3-3.6-16.4-3.6h-22.1v1.6c2.7,0,4.6,0.5,5.6,1.5
	s1.6,2.2,1.6,3.6v42c0,1.6-0.5,2.7-1.5,3.6c-0.5,0.5-1.3,0.9-2.4,1.1c-8.1-8-15.5-18.7-20.2-24.8c4.5-0.6,8.1-2.1,10.9-4.4
	c2.8-2.3,4.3-5.5,4.3-9.7c0-4.9-2-8.5-5.8-11c-3.8-2.4-9.3-3.6-16.4-3.6h-22.1v1.6c2.7,0,4.6,0.5,5.6,1.5c1,0.9,1.6,2.2,1.6,3.6v42
	c0,1.6-0.5,2.7-1.5,3.6c-1,0.9-2.9,1.5-5.6,1.5v1.6h23.1v-1.6c-2.8,0-4.7-0.5-5.8-1.5c-1-0.9-1.6-2.2-1.6-3.6V29.8h4.7
	c10.2,14.8,26,38.2,44.7,38.6c3.5,0.1,6.3-1.1,8.9-2.3c2.2-0.9,4.3-2.8,5.1-5.2c0.6-1.6,0.8-3.3,0.8-4.8c0-3.1-0.5-4.6-1.9-6.2
	c-0.2-0.2-0.6-0.7-1-1c-0.5-0.4-1-0.8-1.6-1.1c-0.9-0.6-1.9-0.8-2.6-0.5c-0.3,0.1-0.5,0.3-0.8,0.5c-0.2,0.2-0.4,0.6-0.5,1v0.1V49
	c0,0,0,0,0,0.1c0.1,0.4,0.4,0.6,0.8,0.7c0.4,0.1,0.8,0.2,1.3,0.2c0.1,0,0.3,0,0.4,0s0.3,0,0.4,0c0.7,0,1.3-0.1,2.1,0.3
	c0.7,0.3,1.2,0.9,1.5,1.5c0.7,1.6,0.8,2.6,0.8,3.8c-0.1,2.9-1.2,4.6-3.3,6c-2.9,2.2-5.5,2.7-8.5,2.6c-0.9,0-2.1-0.2-3-0.5
	c-4.3-1.2-8.5-4.3-12.7-8h17.9v-1.6c-2.8,0-4.7-0.5-5.8-1.5c-1-0.9-1.6-2.2-1.6-3.6V29.8h4.7c10.2,14.8,26,38.2,44.7,38.6
	c3.5,0.1,6.3-1.1,8.9-2.3c2.2-0.9,4.3-2.8,5.1-5.2c0.6-1.6,0.9-3.3,0.9-4.8c0-0.1,0-0.2,0-0.3h7.7V41.6h-2.4c-1.2,4.8-2.9,8-5.6,9.6
	c-0.1,0.1-0.3,0.2-0.4,0.3c-0.2-0.5-0.6-1-1-1.6c-0.2-0.2-0.6-0.7-1-1c-0.5-0.4-1-0.8-1.6-1.1c-0.9-0.6-1.9-0.8-2.6-0.5
	c-0.3,0.1-0.6,0.3-0.8,0.5c-0.2,0.2-0.4,0.6-0.5,1v0.1V49c0,0,0,0,0,0.1c0.1,0.4,0.4,0.6,0.8,0.7c0.4,0.1,0.8,0.2,1.3,0.2
	c0.1,0,0.3,0,0.4,0c0.1,0,0.3,0,0.4,0c0.7,0,1.3-0.1,2,0.3c0.7,0.3,1.2,0.9,1.5,1.5C594.4,51.8,594.4,51.9,594.4,51.9L594.4,51.9
	 M531.8,26.9c6.3,0,11.2-0.9,14.5-2.7c3.3-1.8,5-4.9,5-9.2c0-3.8-1.2-6.7-3.6-8.7c-2.4-1.9-5.7-2.8-9.8-2.8c-2.9,0-4.7,0.2-5.3,0.5
	c-0.6,0.3-0.9,1.5-0.9,3.4L531.8,26.9L531.8,26.9 M485.6,26.9c6.3,0,11.2-0.9,14.5-2.7c3.3-1.8,5-4.9,5-9.2c0-3.8-1.2-6.7-3.6-8.7
	c-2.4-1.9-5.7-2.8-9.8-2.8c-2.9,0-4.7,0.2-5.3,0.5s-0.9,1.5-0.9,3.4v19.5H485.6 M456.4,48.9c0,1.6,0.6,2.7,1.8,3.6
	c1.1,0.9,3.3,1.5,6.4,1.5v1.6h-24.9V54c3.2,0,5.3-0.5,6.4-1.5c1.1-0.9,1.7-2.2,1.7-3.6V7c0-1.5-0.6-2.7-1.7-3.6
	c-1.1-0.9-3.3-1.5-6.4-1.5V0.2h24.9v1.6c-3.2,0-5.3,0.5-6.4,1.5c-1.1,0.9-1.8,2.2-1.8,3.6V48.9L456.4,48.9 M378.1,0.3h22.1v1.6
	c-2.5,0-4.2,0.2-5,0.7S394,3.8,394,5c0,0.7,0.6,2.5,1.8,5.1c1.1,2.6,1.9,4.2,2.1,4.8L410,42.2l11.8-29.7c0.5-1.1,0.9-2.4,1.3-3.7
	c0.4-1.2,0.6-2.4,0.6-3.2c0-1.5-0.6-2.4-1.8-2.9c-1.1-0.4-2.6-0.7-4.4-0.7V0.3h17v1.6c-1.8,0-3.2,0.5-4.2,1.6c-1,1-2.4,3.6-4.2,7.9
	s-4.6,11.3-8.5,21.2c-3.9,10-7.1,18-9.3,24.1h-1l-20.1-45.1c-1.5-3.3-2.8-5.7-4-7.3s-2.9-2.4-5.2-2.4c-4.5,0-10.4,0.1-13.5,3.6
	c-2.1,2.4-3.2,5.5-3.2,9.4c0,3.5,1,6.5,3,9.1c1.9,2.4,3.5,3.7,7,3.8c1.5,0,2.7-0.1,4.5-0.9c0.5-0.3,1.2-0.8,1.7-1.7
	c0.4-0.8,0.3-1.6,0.3-2.3c0-0.2,0-0.3,0-0.5c0-0.2,0-0.3,0-0.5c0-0.5,0.1-1,0.2-1.6c0.1-0.4,0.4-0.7,0.8-0.9h0.1c0,0,0,0,0.1,0h0.1
	c0.5,0.2,0.9,0.4,1.1,0.6c0.3,0.3,0.5,0.6,0.6,0.9c0.3,0.8,0.1,1.9-0.6,3c-0.3,0.5-0.8,1.2-1.3,1.8c-0.4,0.5-0.9,1-1.2,1.2
	c-1.9,1.6-3.6,2.1-7.2,2.1c-3.5,0-8-1.3-9.8-4c-1.8-2.7-2.7-5.7-2.7-9V16c0-4.3,1-7.5,3.2-9.8s4.5-3.8,7.1-4.8
	c1-0.3,2.1-0.6,3.1-0.7c1-0.2,2-0.3,2.8-0.3C375.7,0.3,376.9,0.3,378.1,0.3L378.1,0.3 M303.4,55.7v-1.6c2.8,0,4.7-0.5,5.8-1.5
	c1-0.9,1.6-2.2,1.6-3.7V7c0-1.5-0.5-2.7-1.6-3.6s-3-1.5-5.8-1.5V0.3h23.3v1.6c-2.8,0-4.7,0.5-5.8,1.5c-1,0.9-1.6,2.2-1.6,3.6v42
	c0,1-0.2,3.2,0.9,3.2h3.4c3.4,0,9.3,0.4,12.9-1c3.3-1.5,4.3-3.6,5.7-8.4h2.1v12.8L303.4,55.7L303.4,55.7 M255.2,1.8
	c2.8,0,4.8,0.5,5.8,1.5c1,0.9,1.6,2.2,1.6,3.6v42.1c0,1.6-0.5,2.7-1.6,3.6c-1,0.9-3,1.5-5.8,1.5v1.6h41.7V41.4h-2.4
	c-1.2,4.8-2.9,8-5.6,9.6c-2.6,1.5-7.5,1.1-11.8,1.1h-3.8c-0.8,0-1.3-0.3-1.7-0.9c-0.3-0.6-0.5-1.3-0.5-2.4V28.3h7.7
	c3.2,0,5.7,0.6,7.6,1.8c1.9,1.1,2.8,3.3,2.8,6.3h1.8V16.8h-1.8c0,3.1-0.9,5.2-2.8,6.3s-4.4,1.8-7.6,1.8h-7.7V7c0-1,0.3-1.8,1-2.4
	s1.6-0.8,2.6-0.8h9.1c2.8,0,5,0.7,6.4,2.4c1.6,1.6,2.6,3.6,3,6.2h1.9V0.2H255c-1.2,0-2.5,0-3.6,0c-0.8,0-1.9,0.1-2.8,0.3
	c-1,0.2-2.1,0.4-3.1,0.8c-2.6,0.9-5,2.5-7.1,4.8c-2.2,2.3-3.2,5.6-3.2,9.8V16c0,3.3,0.8,6.2,2.7,9c1.8,2.7,6.2,4,9.8,4
	s5.3-0.6,7.2-2.1c0.3-0.2,0.8-0.7,1.2-1.2c0.5-0.6,1-1.2,1.3-1.8c0.7-1.1,0.9-2.1,0.6-3c-0.1-0.3-0.3-0.6-0.6-0.9
	c-0.3-0.2-0.7-0.5-1.1-0.6h-0.1H256c0,0,0,0-0.1,0c-0.4,0.2-0.7,0.5-0.8,0.9c-0.1,0.4-0.2,0.9-0.2,1.6c0,0.2,0,0.3,0,0.5
	c0,0.1,0,0.3,0,0.5c0,0.8,0.1,1.6-0.3,2.3c-0.4,0.8-1,1.5-1.7,1.7c-1.8,0.8-3,0.9-4.5,0.9c-3.4-0.1-5.1-1.6-7-3.8
	c-2-2.5-3-5.6-3-9.1c0-3.9,1-7.1,3.2-9.4C244.8,1.9,250.7,1.8,255.2,1.8L255.2,1.8 M662.9,2c-2.6,0.3-4.8,1.3-6.6,3.2
	c-1.8,1.9-3.6,4.3-5.6,7.2l-11.8,18.1v18.7c0,1.5,0.6,2.7,1.8,3.6c1.2,0.9,3.4,1.5,6.6,1.5v1.6h-25.5v-1.6c3.3,0,5.5-0.4,6.7-1.3
	c1.1-0.9,1.8-2.2,1.8-3.7V31.4L619.8,16c-2.4-3.3-4.7-6.7-7-10.2c-2.2-2.6-4.6-3.8-7.2-3.8V0.4h23.5V2c-2.2,0-3.7,0.2-4.7,0.5
	c-0.8,0.3-1.2,0.9-1.2,1.9c0,0.8,0.1,1.6,0.4,2.2c0.3,0.6,0.8,1.6,1.6,2.5L637,26.8l11.5-18.1c0.5-0.7,0.9-1.5,1.2-2.1
	s0.4-1.2,0.4-1.9c0-0.3-0.1-0.7-0.3-1.2s-0.6-0.9-1.3-1.1c-0.7-0.2-2.1-0.4-4.2-0.4V0.4h18.4c1.2,0,2.5,0,3.7,0
	c0.8,0,1.8,0.1,2.8,0.2c1,0.2,2.1,0.4,3.1,0.7c2.6,0.9,5,2.5,7.1,4.8c2.2,2.3,3.2,5.6,3.2,9.8V16c0,3.3-0.8,6.2-2.7,9
	c-1.8,2.7-6.2,4-9.8,4c-3.5,0-5.3-0.6-7.2-2.1c-0.3-0.2-0.8-0.7-1.2-1.2s-0.9-1.2-1.3-1.8c-0.7-1.1-0.9-2.1-0.6-2.9
	c0.1-0.3,0.3-0.6,0.6-0.9s0.7-0.5,1.1-0.6h0.1h0.1c0,0,0,0,0.1,0c0.4,0.2,0.7,0.5,0.8,0.9c0.1,0.4,0.2,0.9,0.2,1.6
	c0,0.2,0,0.3,0,0.5c0,0.2,0,0.3,0,0.5c0,0.8-0.1,1.6,0.3,2.3c0.4,0.8,1,1.5,1.7,1.7c1.8,0.8,3,0.9,4.5,0.9c3.4-0.1,5.1-1.6,7-3.8
	c2-2.5,3-5.6,3-9.1c0-3.9-1-7.1-3.2-9.4C673.2,2.1,667.4,2,662.9,2L662.9,2z"/>
<g>
	<g>
		<g>
			<defs>
				<path id="SVGID_20_" d="M242.4,75.9c-0.5,0-1,0-1.7,0.1c-1.2,0.1-2.2,0.2-2.8,0.5c-0.6,0.2-1.1,0.7-1.6,1.3
					c-0.4,0.6-0.6,1.3-0.8,2.4h-0.3l0.2-4.6h16.6l0.2,4.6H252c-0.2-1.1-0.6-2-1-2.6c-0.4-0.6-1.1-1-2.1-1.2
					c-0.7-0.2-2.1-0.3-3.8-0.3v12.6c0,0.8,0,1.5,0.1,1.9s0.3,0.7,0.5,1c0.2,0.2,0.5,0.4,0.8,0.5c0.3,0.1,0.6,0.2,1.1,0.2v0.3h-7.9
					v-0.3c0.5,0,0.8-0.1,1.1-0.2c0.3-0.1,0.5-0.3,0.8-0.5c0.2-0.3,0.4-0.6,0.5-1s0.1-1,0.1-1.9L242.4,75.9L242.4,75.9z"/>
			</defs>
			<clipPath id="SVGID_21_">
				<use xlink:href="#SVGID_20_"  style="overflow:visible;"/>
			</clipPath>
			<g class="st3">
				<rect x="250.9" y="63.7" class="st0" width="16.5" height="16.5"/>
				<g>
					<rect x="250.9" y="63.7" class="st0" width="16.5" height="16.5"/>
					<g>
						<polygon class="st0" points="250.9,63.7 267.5,63.7 267.5,80.2 250.9,80.2 						"/>
						<polygon class="st1" points="267.5,63.7 250.9,63.7 250.9,80.2 267.5,80.2 						"/>
					</g>
				</g>
			</g>
			<g class="st3">
				<rect x="250.9" y="80.2" class="st0" width="16.5" height="16.5"/>
				<g>
					<rect x="250.9" y="80.2" class="st0" width="16.5" height="16.5"/>
					<g>
						<polygon class="st0" points="250.9,80.2 267.5,80.2 267.5,96.8 250.9,96.8 						"/>
						<polygon class="st1" points="267.5,80.2 250.9,80.2 250.9,96.8 267.5,96.8 						"/>
					</g>
				</g>
			</g>
			<g class="st3">
				<rect x="234.4" y="63.7" class="st0" width="16.5" height="16.5"/>
				<g>
					<rect x="234.4" y="63.7" class="st0" width="16.5" height="16.5"/>
					<g>
						<polygon class="st0" points="234.4,63.7 250.9,63.7 250.9,80.2 234.4,80.2 						"/>
						<polygon class="st1" points="250.9,63.7 234.4,63.7 234.4,80.2 250.9,80.2 						"/>
					</g>
				</g>
			</g>
			<g class="st3">
				<rect x="234.4" y="80.2" class="st0" width="16.5" height="16.5"/>
				<g>
					<rect x="234.4" y="80.2" class="st0" width="16.5" height="16.5"/>
					<g>
						<polygon class="st0" points="234.4,80.2 250.9,80.2 250.9,96.8 234.4,96.8 						"/>
						<polygon class="st1" points="250.9,80.2 234.4,80.2 234.4,96.8 250.9,96.8 						"/>
					</g>
				</g>
			</g>
		</g>
		<path class="st4" d="M248.1,93.1h-8.9v-1.3h0.5c0.4,0,0.7-0.1,1-0.2c0.1,0,0.3-0.1,0.4-0.3c0.1,0,0.1-0.1,0.2-0.1
			c0.2-0.3,0.3-0.5,0.4-0.8c0.1-0.4,0.1-1,0.1-1.7l0.1-12.3c-0.3,0-0.7,0-1.1,0.1c-1.2,0.1-2.1,0.2-2.7,0.5c-0.5,0.2-1,0.6-1.4,1.2
			c-0.4,0.6-0.6,1.2-0.8,2.2l-0.1,0.4h-1.2l0.3-5.6h17.6l0.3,5.6h-1.3l-0.1-0.4c-0.2-0.9-0.5-1.7-1-2.4c-0.3-0.5-0.9-0.9-1.8-1
			c-0.6-0.2-1.8-0.3-3.2-0.3v12.1c0,0.8,0,1.4,0.1,1.7c0.1,0.3,0.3,0.6,0.5,0.9c0.1,0.1,0.4,0.3,0.6,0.3c0.3,0.1,0.5,0.2,1,0.2h0.5
			V93.1z M241.8,92.1h3.7c-0.1-0.1-0.1-0.1-0.2-0.2c-0.3-0.4-0.5-0.8-0.7-1.3c-0.1-0.5-0.1-1.1-0.1-2V76.2h-1.6l-0.1,12.5
			c0,0.9,0,1.5-0.1,2c-0.1,0.5-0.4,0.9-0.6,1.2L242,92C241.9,92.1,241.9,92.1,241.8,92.1z M249.8,76.2c0.7,0.3,1.2,0.7,1.5,1.2
			c0.1,0.2,0.2,0.4,0.3,0.5l-0.1-1.7H249.8z M235.9,76.2l-0.1,1.6c0-0.1,0.1-0.1,0.1-0.2c0.4-0.7,0.9-1.1,1.5-1.4H235.9z"/>
	</g>
	<g>
		<g>
			<defs>
				<path id="SVGID_22_" d="M267.6,84.1v4.4c0,0.8,0,1.5,0.1,1.9c0.1,0.4,0.3,0.7,0.5,1c0.2,0.2,0.5,0.4,0.7,0.5
					c0.3,0.1,0.6,0.2,1.1,0.2v0.3h-7.9v-0.3c0.5,0,0.8-0.1,1.1-0.2c0.3-0.1,0.5-0.3,0.7-0.5c0.3-0.3,0.4-0.6,0.5-1
					c0.1-0.4,0.1-1,0.1-1.9v-9c0-0.8,0-1.5-0.1-1.9c-0.1-0.4-0.3-0.7-0.5-1c-0.2-0.2-0.5-0.4-0.7-0.5c-0.3-0.1-0.7-0.2-1.1-0.2v-0.3
					h5.9c0.9,0,1.7,0,2,0c1.2,0.1,2.3,0.2,3,0.5c0.8,0.3,1.5,0.8,1.9,1.5s0.6,1.5,0.6,2.3c0,1.2-0.5,2.3-1.5,3.1
					c-0.3,0.2-0.6,0.4-0.9,0.5s-0.8,0.3-1.5,0.4c0.5,0.2,0.8,0.4,1.1,0.6c0.2,0.2,0.4,0.4,0.5,0.6c0.2,0.2,0.4,0.7,0.7,1.3
					c0.7,1.6,1.2,2.6,1.7,3.3s0.7,1.2,0.9,1.6c0.2,0.2,0.4,0.4,0.6,0.5s0.4,0.2,0.8,0.2v0.3h-4c-0.2-0.4-0.3-0.7-0.4-0.8l-0.8-2
					c-0.5-1.1-1-2.2-1.6-3.1c-0.5-0.9-1-1.6-1.5-1.9c-0.2-0.2-0.4-0.3-0.7-0.3c-0.2-0.1-0.5-0.1-0.9-0.1L267.6,84.1L267.6,84.1z
					 M267.6,83.9h0.5c1,0,1.8-0.1,2.2-0.2c0.4-0.1,0.8-0.3,1.2-0.7c0.8-0.8,1.2-1.9,1.2-3c0-0.6-0.1-1.2-0.4-1.9
					c-0.2-0.5-0.6-1-1-1.5c-0.3-0.3-0.7-0.5-1.2-0.6s-1.1-0.2-2.1-0.2h-0.5L267.6,83.9L267.6,83.9z"/>
			</defs>
			<clipPath id="SVGID_23_">
				<use xlink:href="#SVGID_22_"  style="overflow:visible;"/>
			</clipPath>
			<g class="st5">
				<rect x="267.5" y="63.7" class="st0" width="16.5" height="16.5"/>
				<g>
					<rect x="267.5" y="63.7" class="st0" width="16.5" height="16.5"/>
					<g>
						<polygon class="st0" points="267.5,63.7 284,63.7 284,80.2 267.5,80.2 						"/>
						<polygon class="st1" points="284,63.7 267.5,63.7 267.5,80.2 284,80.2 						"/>
					</g>
				</g>
			</g>
			<g class="st5">
				<rect x="267.5" y="80.2" class="st0" width="16.5" height="16.5"/>
				<g>
					<rect x="267.5" y="80.2" class="st0" width="16.5" height="16.5"/>
					<g>
						<polygon class="st0" points="267.5,80.2 284,80.2 284,96.8 267.5,96.8 						"/>
						<polygon class="st1" points="284,80.2 267.5,80.2 267.5,96.8 284,96.8 						"/>
					</g>
				</g>
			</g>
			<g class="st5">
				<rect x="250.9" y="63.7" class="st0" width="16.5" height="16.5"/>
				<g>
					<rect x="250.9" y="63.7" class="st0" width="16.5" height="16.5"/>
					<g>
						<polygon class="st0" points="250.9,63.7 267.5,63.7 267.5,80.2 250.9,80.2 						"/>
						<polygon class="st1" points="267.5,63.7 250.9,63.7 250.9,80.2 267.5,80.2 						"/>
					</g>
				</g>
			</g>
			<g class="st5">
				<rect x="250.9" y="80.2" class="st0" width="16.5" height="16.5"/>
				<g>
					<rect x="250.9" y="80.2" class="st0" width="16.5" height="16.5"/>
					<g>
						<polygon class="st0" points="250.9,80.2 267.5,80.2 267.5,96.8 250.9,96.8 						"/>
						<polygon class="st1" points="267.5,80.2 250.9,80.2 250.9,96.8 267.5,96.8 						"/>
					</g>
				</g>
			</g>
			<g class="st5">
				<rect x="267.5" y="63.7" class="st0" width="16.5" height="16.5"/>
				<g>
					<rect x="267.5" y="63.7" class="st0" width="16.5" height="16.5"/>
					<g>
						<polygon class="st0" points="267.5,63.7 284,63.7 284,80.2 267.5,80.2 						"/>
						<polygon class="st1" points="284,63.7 267.5,63.7 267.5,80.2 284,80.2 						"/>
					</g>
				</g>
			</g>
			<g class="st5">
				<rect x="267.5" y="80.2" class="st0" width="16.5" height="16.5"/>
				<g>
					<rect x="267.5" y="80.2" class="st0" width="16.5" height="16.5"/>
					<g>
						<polygon class="st0" points="267.5,80.2 284,80.2 284,96.8 267.5,96.8 						"/>
						<polygon class="st1" points="284,80.2 267.5,80.2 267.5,96.8 284,96.8 						"/>
					</g>
				</g>
			</g>
			<g class="st5">
				<rect x="250.9" y="63.7" class="st0" width="16.5" height="16.5"/>
				<g>
					<rect x="250.9" y="63.7" class="st0" width="16.5" height="16.5"/>
					<g>
						<polygon class="st0" points="250.9,63.7 267.5,63.7 267.5,80.2 250.9,80.2 						"/>
						<polygon class="st1" points="267.5,63.7 250.9,63.7 250.9,80.2 267.5,80.2 						"/>
					</g>
				</g>
			</g>
			<g class="st5">
				<rect x="250.9" y="80.2" class="st0" width="16.5" height="16.5"/>
				<g>
					<rect x="250.9" y="80.2" class="st0" width="16.5" height="16.5"/>
					<g>
						<polygon class="st0" points="250.9,80.2 267.5,80.2 267.5,96.8 250.9,96.8 						"/>
						<polygon class="st1" points="267.5,80.2 250.9,80.2 250.9,96.8 267.5,96.8 						"/>
					</g>
				</g>
			</g>
		</g>
		<path class="st4" d="M270.5,92.9h-8.9v-1.3h0.5c0.4,0,0.7-0.1,1-0.2c0.2-0.1,0.3-0.2,0.5-0.4c0.2-0.2,0.3-0.4,0.4-0.8
			c0.1-0.4,0.1-1,0.1-1.7v-9c0-0.8,0-1.4-0.1-1.7c-0.1-0.3-0.3-0.6-0.5-0.9c-0.1-0.1-0.4-0.3-0.5-0.3c-0.2-0.1-0.6-0.2-0.9-0.2h-0.5
			V75h8.4c1.4,0.1,2.4,0.2,3.2,0.6c0.9,0.3,1.6,0.9,2.1,1.6c0.5,0.7,0.7,1.6,0.7,2.6c0,1.4-0.5,2.5-1.6,3.5
			c-0.4,0.3-0.7,0.5-1.1,0.6l-0.2,0.1c0,0-0.1,0-0.1,0c0,0,0.1,0,0.1,0.1l0.1,0.1c0.2,0.2,0.4,0.4,0.6,0.7c0.2,0.2,0.3,0.5,0.5,1
			l0.2,0.5c0.7,1.6,1.2,2.6,1.6,3.3c0.4,0.7,0.7,1.2,0.9,1.5c0.1,0.1,0.3,0.3,0.4,0.3c0.2,0.1,0.3,0.2,0.6,0.2h0.5v1.3h-4.9
			l-0.1-0.3c-0.1-0.2-0.1-0.3-0.2-0.4c-0.1-0.1-0.1-0.2-0.1-0.3l-0.1-0.1l-0.8-2c-0.5-1.1-1-2.1-1.5-3.1c-0.4-0.8-0.9-1.4-1.3-1.7
			c-0.2-0.2-0.3-0.2-0.4-0.2H269l-0.1-0.1c-0.1-0.1-0.4-0.1-0.7-0.1h-0.1v3.9c0,0.8,0,1.4,0.1,1.7c0.1,0.3,0.3,0.6,0.5,0.9
			c0.1,0.1,0.4,0.3,0.5,0.3c0.2,0.1,0.5,0.2,0.9,0.2h0.5V92.9z M264.2,91.9h3.8c-0.1-0.1-0.1-0.1-0.2-0.2c-0.3-0.4-0.5-0.8-0.7-1.3
			c-0.1-0.5-0.1-1.1-0.1-2v-4.6L267,76h-2.8c0.1,0.1,0.1,0.1,0.2,0.2c0.3,0.4,0.5,0.8,0.7,1.3c0.1,0.5,0.1,1.1,0.1,2v9
			c0,0.9,0,1.5-0.1,2c-0.1,0.4-0.2,0.9-0.7,1.3C264.3,91.8,264.3,91.9,264.2,91.9z M274.4,91.8h2.1c-0.1-0.1-0.1-0.1-0.2-0.2
			c-0.3-0.4-0.6-0.9-1-1.7c-0.4-0.7-0.9-1.8-1.7-3.4c-0.1-0.2-0.2-0.3-0.2-0.5c-0.1-0.3-0.3-0.6-0.4-0.7l-0.1-0.1
			c-0.1-0.1-0.2-0.3-0.4-0.5c-0.2-0.1-0.5-0.3-1-0.5l-0.6-0.3c-0.2,0.1-0.3,0.1-0.5,0.2c0,0-0.1,0-0.1,0c0.5,0.4,1,1.1,1.5,1.9
			c0.5,0.9,1.1,2,1.6,3.2l0.8,1.9c0.1,0.1,0.2,0.3,0.2,0.5C274.4,91.7,274.4,91.8,274.4,91.8z M268,83.4L268,83.4
			c1.2,0,1.9-0.1,2.1-0.2c0.4-0.1,0.7-0.3,1-0.6c0.7-0.7,1.1-1.6,1.1-2.7c0-0.6-0.1-1.2-0.4-1.6c-0.2-0.4-0.5-0.9-0.9-1.3
			c-0.2-0.2-0.6-0.4-1-0.5c-0.5-0.1-1.1-0.2-2-0.2h0L268,83.4z M271.5,76.2c0.1,0,0.1,0.1,0.2,0.1c0.4,0.4,0.9,1,1.1,1.6
			c0.3,0.6,0.5,1.3,0.5,2.1c0,1.3-0.5,2.4-1.3,3.3c0.3-0.1,0.6-0.2,0.9-0.3l0.2-0.1c0.3-0.1,0.5-0.3,0.8-0.5
			c0.8-0.7,1.2-1.6,1.2-2.7c0-0.8-0.2-1.5-0.5-2c-0.4-0.6-0.9-1-1.6-1.3C272.5,76.3,272,76.2,271.5,76.2z"/>
	</g>
	<g>
		<g>
			<defs>
				<path id="SVGID_24_" d="M304.9,92.3h-8.1V92c0.7-0.1,1.2-0.2,1.6-0.4c0.5-0.3,0.7-0.7,0.7-1.3c0-0.3-0.1-0.8-0.3-1.3l-0.2-0.5
					l-1.1-2.9h-5.4l-0.6,1.7l-0.3,0.7c-0.4,0.9-0.5,1.7-0.5,2.1c0,0.3,0.1,0.6,0.2,0.8c0.1,0.3,0.3,0.5,0.5,0.6
					c0.3,0.2,0.7,0.3,1.2,0.4v0.3h-5.5v-0.3c0.4,0,0.8-0.1,1.1-0.3c0.3-0.2,0.6-0.5,0.9-0.9c0.3-0.3,0.5-0.7,0.7-1.3
					c0.2-0.5,0.6-1.3,1-2.4l4.5-11.6h0.7l5.4,13c0.4,0.9,0.7,1.7,0.9,2.1c0.2,0.4,0.5,0.7,0.7,0.9c0.2,0.1,0.4,0.3,0.6,0.3
					c0.2,0.1,0.6,0.1,1.1,0.2L304.9,92.3L304.9,92.3z M297.2,85.1l-2.6-6.3l-2.4,6.3H297.2z"/>
			</defs>
			<clipPath id="SVGID_25_">
				<use xlink:href="#SVGID_24_"  style="overflow:visible;"/>
			</clipPath>
			<g class="st6">
				<rect x="300.6" y="63.7" class="st0" width="16.5" height="16.5"/>
				<g>
					<rect x="300.6" y="63.7" class="st0" width="16.5" height="16.5"/>
					<g>
						<polygon class="st0" points="300.6,63.7 317.1,63.7 317.1,80.2 300.6,80.2 						"/>
						<polygon class="st1" points="317.1,63.7 300.6,63.7 300.6,80.2 317.1,80.2 						"/>
					</g>
				</g>
			</g>
			<g class="st6">
				<rect x="300.6" y="80.2" class="st0" width="16.5" height="16.5"/>
				<g>
					<rect x="300.6" y="80.2" class="st0" width="16.5" height="16.5"/>
					<g>
						<polygon class="st0" points="300.6,80.2 317.1,80.2 317.1,96.8 300.6,96.8 						"/>
						<polygon class="st1" points="317.1,80.2 300.6,80.2 300.6,96.8 317.1,96.8 						"/>
					</g>
				</g>
			</g>
			<g class="st6">
				<rect x="284" y="63.7" class="st0" width="16.5" height="16.5"/>
				<g>
					<rect x="284" y="63.7" class="st0" width="16.5" height="16.5"/>
					<g>
						<polygon class="st0" points="284,63.7 300.6,63.7 300.6,80.2 284,80.2 						"/>
						<polygon class="st1" points="300.6,63.7 284,63.7 284,80.2 300.6,80.2 						"/>
					</g>
				</g>
			</g>
			<g class="st6">
				<rect x="284" y="80.2" class="st0" width="16.5" height="16.5"/>
				<g>
					<rect x="284" y="80.2" class="st0" width="16.5" height="16.5"/>
					<g>
						<polygon class="st0" points="284,80.2 300.6,80.2 300.6,96.8 284,96.8 						"/>
						<polygon class="st1" points="300.6,80.2 284,80.2 284,96.8 300.6,96.8 						"/>
					</g>
				</g>
			</g>
			<g class="st6">
				<rect x="284" y="63.7" class="st0" width="16.5" height="16.5"/>
				<g>
					<rect x="284" y="63.7" class="st0" width="16.5" height="16.5"/>
					<g>
						<polygon class="st0" points="284,63.7 300.6,63.7 300.6,80.2 284,80.2 						"/>
						<polygon class="st1" points="300.6,63.7 284,63.7 284,80.2 300.6,80.2 						"/>
					</g>
				</g>
			</g>
			<g class="st6">
				<rect x="284" y="80.2" class="st0" width="16.5" height="16.5"/>
				<g>
					<rect x="284" y="80.2" class="st0" width="16.5" height="16.5"/>
					<g>
						<polygon class="st0" points="284,80.2 300.6,80.2 300.6,96.8 284,96.8 						"/>
						<polygon class="st1" points="300.6,80.2 284,80.2 284,96.8 300.6,96.8 						"/>
					</g>
				</g>
			</g>
		</g>
		<path class="st4" d="M305.4,92.8h-9.1v-1.2l0.4-0.1c0.5-0.1,1.1-0.2,1.4-0.3c0.4-0.2,0.5-0.5,0.5-0.9c0-0.2-0.1-0.7-0.3-1.2
			l-1.2-3.1h-4.7l-0.8,2.1c-0.4,1-0.5,1.6-0.5,1.9c0,0.2,0.1,0.5,0.2,0.6c0.1,0.3,0.2,0.4,0.3,0.4c0.3,0.2,0.6,0.3,1.1,0.4l0.4,0.1
			v1.2h-6.5v-1.3h0.5c0.3,0,0.6-0.1,0.9-0.2c0.3-0.2,0.5-0.5,0.8-0.8c0.3-0.3,0.5-0.6,0.7-1.2c0.1-0.2,0.2-0.5,0.4-0.8
			c0.2-0.4,0.4-1,0.7-1.6l4.6-11.9h1.4l5.8,14c0.3,0.6,0.5,1.1,0.6,1.4c0.2,0.3,0.4,0.6,0.6,0.8c0.1,0,0.1,0.1,0.2,0.1
			c0.1,0,0.1,0.1,0.2,0.1l0.2,0c0.1,0,0.2,0,0.4,0.1c0.2,0,0.4,0,0.6,0.1l0.4,0.1V92.8z M298.9,91.8h4.3c-0.1,0-0.1-0.1-0.2-0.1
			c-0.1,0-0.1-0.1-0.2-0.1l-0.1-0.1c-0.2-0.2-0.6-0.6-0.8-1.1c-0.2-0.3-0.4-0.8-0.6-1.4l-0.3-0.7l-5.3-12.7l-0.9,2.4l2.8,6.9h0.1
			l1.5,3.7c0.2,0.5,0.3,1.1,0.3,1.5C299.6,90.9,299.4,91.4,298.9,91.8z M288.9,91.6h1.9c-0.2-0.2-0.4-0.4-0.4-0.7
			c0-0.1-0.2-0.5-0.2-0.9c-0.2,0.4-0.4,0.7-0.6,0.9C289.3,91.2,289.1,91.4,288.9,91.6z M292.9,84.6h3.5l-1.8-4.5L292.9,84.6z"/>
	</g>
	<g>
		<g>
			<defs>
				<path id="SVGID_26_" d="M314.4,92.1c0.5,0,0.8-0.1,1.1-0.2c0.3-0.1,0.5-0.3,0.7-0.5c0.2-0.3,0.4-0.6,0.5-1
					c0.1-0.4,0.1-1,0.1-1.9v-9c0-0.9-0.1-1.6-0.2-2c-0.1-0.4-0.3-0.7-0.6-1c-0.4-0.3-1-0.5-1.8-0.5v-0.3h6.7c1.6,0,2.5,0,2.9,0.1
					c1.8,0.1,3.2,0.6,4.4,1.5c1.1,0.8,2.1,1.9,2.7,3.2c0.6,1.3,0.9,2.8,0.9,4.3c0,1.1-0.2,2.2-0.5,3.2c-0.4,1-0.8,1.9-1.6,2.5
					c-0.9,0.9-2.1,1.6-3.4,1.8c-1,0.2-2.1,0.3-3.1,0.3h-9.1L314.4,92.1L314.4,92.1z M319.7,75.9v12.3c0,0.8,0,1.5,0.1,1.9
					c0.1,0.4,0.2,0.7,0.5,1c0.5,0.6,1.3,0.9,2.6,0.9c1,0,1.9-0.2,2.6-0.5c0.7-0.3,1.3-0.8,2-1.7c0.5-0.7,0.9-1.6,1.2-2.5
					c0.3-0.9,0.4-1.9,0.4-3c0-1.1-0.2-2.3-0.5-3.3c-0.3-1-0.8-2-1.6-2.8c-0.9-1-2-1.8-3.2-2.2c-0.7-0.2-1.6-0.3-2.6-0.3L319.7,75.9
					L319.7,75.9z"/>
			</defs>
			<clipPath id="SVGID_27_">
				<use xlink:href="#SVGID_26_"  style="overflow:visible;"/>
			</clipPath>
			<g class="st7">
				<rect x="317.1" y="63.7" class="st0" width="16.5" height="16.5"/>
				<g>
					<rect x="317.1" y="63.7" class="st0" width="16.5" height="16.5"/>
					<g>
						<polygon class="st0" points="317.1,63.7 333.6,63.7 333.6,80.2 317.1,80.2 						"/>
						<polygon class="st1" points="333.6,63.7 317.1,63.7 317.1,80.2 333.6,80.2 						"/>
					</g>
				</g>
			</g>
			<g class="st7">
				<rect x="317.1" y="80.2" class="st0" width="16.5" height="16.5"/>
				<g>
					<rect x="317.1" y="80.2" class="st0" width="16.5" height="16.5"/>
					<g>
						<polygon class="st0" points="317.1,80.2 333.6,80.2 333.6,96.8 317.1,96.8 						"/>
						<polygon class="st1" points="333.6,80.2 317.1,80.2 317.1,96.8 333.6,96.8 						"/>
					</g>
				</g>
			</g>
			<g class="st7">
				<rect x="300.6" y="63.7" class="st0" width="16.5" height="16.5"/>
				<g>
					<rect x="300.6" y="63.7" class="st0" width="16.5" height="16.5"/>
					<g>
						<polygon class="st0" points="300.6,63.7 317.1,63.7 317.1,80.2 300.6,80.2 						"/>
						<polygon class="st1" points="317.1,63.7 300.6,63.7 300.6,80.2 317.1,80.2 						"/>
					</g>
				</g>
			</g>
			<g class="st7">
				<rect x="300.6" y="80.2" class="st0" width="16.5" height="16.5"/>
				<g>
					<rect x="300.6" y="80.2" class="st0" width="16.5" height="16.5"/>
					<g>
						<polygon class="st0" points="300.6,80.2 317.1,80.2 317.1,96.8 300.6,96.8 						"/>
						<polygon class="st1" points="317.1,80.2 300.6,80.2 300.6,96.8 317.1,96.8 						"/>
					</g>
				</g>
			</g>
			<g class="st7">
				<rect x="317.1" y="63.7" class="st0" width="16.5" height="16.5"/>
				<g>
					<rect x="317.1" y="63.7" class="st0" width="16.5" height="16.5"/>
					<g>
						<polygon class="st0" points="317.1,63.7 333.6,63.7 333.6,80.2 317.1,80.2 						"/>
						<polygon class="st1" points="333.6,63.7 317.1,63.7 317.1,80.2 333.6,80.2 						"/>
					</g>
				</g>
			</g>
			<g class="st7">
				<rect x="317.1" y="80.2" class="st0" width="16.5" height="16.5"/>
				<g>
					<rect x="317.1" y="80.2" class="st0" width="16.5" height="16.5"/>
					<g>
						<polygon class="st0" points="317.1,80.2 333.6,80.2 333.6,96.8 317.1,96.8 						"/>
						<polygon class="st1" points="333.6,80.2 317.1,80.2 317.1,96.8 333.6,96.8 						"/>
					</g>
				</g>
			</g>
		</g>
		<path class="st4" d="M323.3,92.9h-10.1l0.9-1.3h0.3c0.4,0,0.7-0.1,1-0.2c0.2-0.1,0.3-0.2,0.5-0.4c0.1-0.2,0.3-0.5,0.4-0.8
			c0.1-0.4,0.1-1,0.1-1.7v-9c0-0.7-0.1-1.3-0.2-1.9c-0.1-0.3-0.2-0.5-0.5-0.8c-0.3-0.2-0.8-0.4-1.4-0.4h-0.5v-1.3h7.3
			c1.6,0,2.6,0,3,0.1c1.7,0.1,3.3,0.6,4.5,1.5c1.3,0.9,2.2,2.1,2.9,3.4c0.7,1.4,1,2.9,1,4.5c0,1.1-0.2,2.1-0.5,3.4
			c-0.5,1.2-0.9,2.1-1.7,2.7c-1,1-2.3,1.7-3.7,1.9C325.5,92.8,324.4,92.9,323.3,92.9z M316.4,91.9h4.1c-0.2-0.1-0.4-0.3-0.6-0.5
			c-0.4-0.4-0.5-0.8-0.6-1.2c-0.1-0.5-0.1-1.1-0.1-2V76.1h-2.8c0.4,0.4,0.6,0.8,0.7,1.2c0.1,0.6,0.2,1.3,0.2,2.1v9
			c0,0.9,0,1.5-0.1,2c-0.1,0.5-0.4,0.9-0.6,1.2l-0.1,0.1C316.6,91.8,316.5,91.9,316.4,91.9z M326,76.6c0.5,0.4,1,0.8,1.4,1.3
			c0.8,0.9,1.3,1.9,1.7,3c0.4,1.2,0.5,2.4,0.5,3.5c0,1.3-0.1,2.2-0.4,3.2c-0.3,1-0.8,1.9-1.3,2.6c-0.5,0.7-1,1.2-1.6,1.5
			c0,0,0,0,0,0c1.2-0.2,2.3-0.7,3.2-1.6c0.7-0.6,1-1.3,1.4-2.3c0.3-1.1,0.5-2.1,0.5-3c0-1.4-0.3-2.8-0.9-4c-0.6-1.2-1.4-2.2-2.5-3
			C327.4,77.1,326.7,76.8,326,76.6z M320.2,76.4v11.8c0,0.8,0,1.4,0.1,1.7c0.1,0.4,0.2,0.6,0.4,0.8c0.5,0.5,1.2,0.8,2.2,0.8
			c0.9,0,1.6-0.2,2.4-0.5c0.6-0.3,1.2-0.8,1.8-1.5c0.5-0.7,0.9-1.5,1.2-2.4c0.3-0.8,0.4-1.7,0.4-2.9c0-1-0.2-2.1-0.5-3.2
			c-0.3-1-0.8-1.8-1.5-2.6c-0.9-1-1.9-1.7-3-2c-0.7-0.2-1.5-0.3-2.4-0.3L320.2,76.4z"/>
	</g>
	<g>
		<g>
			<defs>
				<path id="SVGID_28_" d="M350.9,75.6v0.3c-0.5,0-0.8,0.1-1.1,0.2c-0.3,0.1-0.5,0.3-0.8,0.5c-0.3,0.3-0.5,0.8-0.6,1.3
					c-0.1,0.4-0.1,0.9-0.1,1.5v9c0,0.7,0,1.2,0.1,1.7c0.1,0.4,0.2,0.7,0.3,0.9c0.2,0.3,0.5,0.6,0.8,0.7c0.3,0.2,0.8,0.3,1.3,0.3v0.3
					h-7.9v-0.3c0.5,0,0.8-0.1,1.1-0.2c0.3-0.1,0.5-0.3,0.7-0.5c0.3-0.3,0.4-0.6,0.5-1c0.1-0.4,0.1-1,0.1-1.9v-9c0-0.8,0-1.5-0.1-1.9
					c-0.1-0.4-0.3-0.7-0.5-1c-0.2-0.2-0.5-0.4-0.7-0.5c-0.3-0.1-0.6-0.2-1.1-0.2v-0.3L350.9,75.6L350.9,75.6z"/>
			</defs>
			<clipPath id="SVGID_29_">
				<use xlink:href="#SVGID_28_"  style="overflow:visible;"/>
			</clipPath>
			<g class="st8">
				<rect x="350.2" y="63.7" class="st0" width="16.5" height="16.5"/>
				<g>
					<rect x="350.2" y="63.7" class="st0" width="16.5" height="16.5"/>
					<g>
						<polygon class="st0" points="350.2,63.7 366.7,63.7 366.7,80.2 350.2,80.2 						"/>
						<polygon class="st1" points="366.7,63.7 350.2,63.7 350.2,80.2 366.7,80.2 						"/>
					</g>
				</g>
			</g>
			<g class="st8">
				<rect x="350.2" y="80.2" class="st0" width="16.5" height="16.5"/>
				<g>
					<rect x="350.2" y="80.2" class="st0" width="16.5" height="16.5"/>
					<g>
						<polygon class="st0" points="350.2,80.2 366.7,80.2 366.7,96.8 350.2,96.8 						"/>
						<polygon class="st1" points="366.7,80.2 350.2,80.2 350.2,96.8 366.7,96.8 						"/>
					</g>
				</g>
			</g>
			<g class="st8">
				<rect x="333.6" y="63.7" class="st0" width="16.5" height="16.5"/>
				<g>
					<rect x="333.6" y="63.7" class="st0" width="16.5" height="16.5"/>
					<g>
						<polygon class="st0" points="333.6,63.7 350.2,63.7 350.2,80.2 333.6,80.2 						"/>
						<polygon class="st1" points="350.2,63.7 333.6,63.7 333.6,80.2 350.2,80.2 						"/>
					</g>
				</g>
			</g>
			<g class="st8">
				<rect x="333.6" y="80.2" class="st0" width="16.5" height="16.5"/>
				<g>
					<rect x="333.6" y="80.2" class="st0" width="16.5" height="16.5"/>
					<g>
						<polygon class="st0" points="333.6,80.2 350.2,80.2 350.2,96.8 333.6,96.8 						"/>
						<polygon class="st1" points="350.2,80.2 333.6,80.2 333.6,96.8 350.2,96.8 						"/>
					</g>
				</g>
			</g>
		</g>
		<path class="st4" d="M351.3,92.9h-8.9v-1.3h0.5c0.4,0,0.7-0.1,1-0.2c0.2-0.1,0.3-0.2,0.5-0.4c0.2-0.2,0.3-0.4,0.4-0.8
			c0.1-0.4,0.1-1,0.1-1.7v-9c0-0.8,0-1.4-0.1-1.7c-0.1-0.3-0.3-0.6-0.5-0.9c-0.1-0.1-0.4-0.3-0.5-0.3c-0.2-0.1-0.5-0.2-0.9-0.2h-0.5
			V75l9,0.1v1.3h-0.5c-0.4,0-0.7,0.1-1,0.2c-0.1,0-0.3,0.1-0.4,0.3c-0.1,0.1-0.2,0.1-0.3,0.2c-0.1,0.1-0.3,0.6-0.4,1
			c-0.1,0.4-0.1,0.9-0.1,1.4v9c0,0.7,0,1.2,0.1,1.5c0.1,0.5,0.2,0.7,0.3,0.8c0.1,0.2,0.4,0.4,0.5,0.5l0.1,0.1
			c0.2,0.1,0.6,0.2,1.1,0.2h0.5V92.9z M345,91.9h3.8c-0.2-0.2-0.4-0.4-0.5-0.6c-0.2-0.3-0.3-0.6-0.4-1.1c-0.1-0.5-0.1-1-0.1-1.8v-9
			c0-0.5,0-1.1,0.1-1.6c0.1-0.4,0.3-1.1,0.8-1.6c0.1-0.1,0.2-0.2,0.3-0.2L345,76c0.1,0.1,0.1,0.1,0.2,0.2c0.3,0.4,0.5,0.8,0.7,1.3
			c0.1,0.5,0.1,1.1,0.1,2v9c0,0.9,0,1.5-0.1,2c-0.1,0.4-0.2,0.9-0.7,1.3C345.1,91.8,345,91.9,345,91.9z"/>
	</g>
	<g>
		<g>
			<defs>
				<path id="SVGID_30_" d="M376.5,75.5l0.1,5.5h-0.3c-0.1-0.2-0.2-0.4-0.2-0.5c-0.3-0.8-0.5-1.3-0.7-1.8c-0.3-0.7-0.8-1.3-1.3-1.9
					c-0.4-0.4-0.9-0.7-1.5-0.9c-0.5-0.2-1-0.3-1.7-0.3c-0.9,0-1.8,0.2-2.4,0.6c-0.6,0.3-1.1,0.8-1.7,1.6c-0.5,0.6-0.9,1.5-1.2,2.3
					c-0.4,1.1-0.7,2.6-0.7,4c0,1.2,0.2,2.5,0.5,3.5c0.3,1,0.8,1.9,1.5,2.6c1.1,1.3,2.6,2,4.5,2c0.9,0,1.8-0.2,2.5-0.5
					c0.7-0.3,1.3-0.7,1.8-1.3c0.5-0.7,0.8-1.6,1-2.8h0.3c-0.1,1.3-0.5,2.3-1,3.1c-0.5,0.7-1.2,1.2-2.2,1.7c-0.9,0.4-2,0.6-3.2,0.6
					c-1.1,0-2.2-0.2-3.2-0.5c-1.7-0.5-2.9-1.6-3.8-2.9c-0.9-1.5-1.3-3.1-1.3-5.1c0-1.5,0.3-2.9,0.8-4.2c0.5-1.2,1.2-2.3,2.3-3
					c0.7-0.6,1.7-1,2.7-1.5c1-0.3,2.1-0.5,3.1-0.5c1,0,2.1,0.2,3.1,0.5l1,0.3c0.2,0.1,0.4,0.1,0.5,0.1c0.2,0,0.4-0.1,0.5-0.2
					s0.1-0.2,0.2-0.4L376.5,75.5L376.5,75.5z"/>
			</defs>
			<clipPath id="SVGID_31_">
				<use xlink:href="#SVGID_30_"  style="overflow:visible;"/>
			</clipPath>
			<g class="st9">
				<rect x="366.7" y="63.7" class="st0" width="16.5" height="16.5"/>
				<g>
					<rect x="366.7" y="63.7" class="st0" width="16.5" height="16.5"/>
					<g>
						<polygon class="st0" points="366.7,63.7 383.2,63.7 383.2,80.2 366.7,80.2 						"/>
						<polygon class="st1" points="383.2,63.7 366.7,63.7 366.7,80.2 383.2,80.2 						"/>
					</g>
				</g>
			</g>
			<g class="st9">
				<rect x="366.7" y="80.2" class="st0" width="16.5" height="16.5"/>
				<g>
					<rect x="366.7" y="80.2" class="st0" width="16.5" height="16.5"/>
					<g>
						<polygon class="st0" points="366.7,80.2 383.2,80.2 383.2,96.8 366.7,96.8 						"/>
						<polygon class="st1" points="383.2,80.2 366.7,80.2 366.7,96.8 383.2,96.8 						"/>
					</g>
				</g>
			</g>
			<g class="st9">
				<rect x="350.2" y="63.7" class="st0" width="16.5" height="16.5"/>
				<g>
					<rect x="350.2" y="63.7" class="st0" width="16.5" height="16.5"/>
					<g>
						<polygon class="st0" points="350.2,63.7 366.7,63.7 366.7,80.2 350.2,80.2 						"/>
						<polygon class="st1" points="366.7,63.7 350.2,63.7 350.2,80.2 366.7,80.2 						"/>
					</g>
				</g>
			</g>
			<g class="st9">
				<rect x="350.2" y="80.2" class="st0" width="16.5" height="16.5"/>
				<g>
					<rect x="350.2" y="80.2" class="st0" width="16.5" height="16.5"/>
					<g>
						<polygon class="st0" points="350.2,80.2 366.7,80.2 366.7,96.8 350.2,96.8 						"/>
						<polygon class="st1" points="366.7,80.2 350.2,80.2 350.2,96.8 366.7,96.8 						"/>
					</g>
				</g>
			</g>
		</g>
		<path class="st4" d="M370.5,93.4c-1.1,0-2.1-0.2-3.4-0.5c-1.7-0.5-3-1.6-4.1-3.1c-1-1.5-1.4-3.3-1.4-5.4c0-1.5,0.3-3,0.9-4.3
			c0.6-1.4,1.4-2.5,2.5-3.2c0.8-0.7,1.8-1.1,2.8-1.5c1.3-0.4,2.3-0.6,3.3-0.6s2,0.2,3.3,0.5l1,0.3c0.3,0.2,0.5,0.1,0.5,0
			c0-0.1,0.1-0.2,0.1-0.3l0.2-0.2l0.8-0.8l0.1,7.2H376l-0.1-0.3c-0.1-0.3-0.2-0.5-0.3-0.6c-0.3-0.7-0.5-1.3-0.7-1.7
			c-0.2-0.6-0.7-1.1-1.3-1.7c-0.3-0.3-0.8-0.6-1.3-0.8c-0.5-0.2-0.9-0.3-1.5-0.3c-0.9,0-1.6,0.2-2.1,0.5c-0.6,0.3-1,0.7-1.5,1.4
			c-0.5,0.5-0.9,1.3-1.2,2.2c-0.4,1.2-0.7,2.6-0.7,3.9c0,1.1,0.2,2.3,0.5,3.4c0.3,0.9,0.7,1.6,1.4,2.4c1,1.2,2.3,1.8,4.1,1.8
			c0.8,0,1.6-0.2,2.3-0.5c0.7-0.3,1.2-0.7,1.5-1.2c0.5-0.7,0.8-1.5,1-2.6l0.1-0.4h1.3l0,0.5c-0.1,1.6-0.7,2.6-1.1,3.3
			c-0.6,0.8-1.3,1.4-2.4,1.9C372.9,93.2,371.8,93.4,370.5,93.4z M367.1,76.7c-0.6,0.3-1.1,0.6-1.6,1c-0.9,0.7-1.6,1.6-2.1,2.8
			c-0.5,1.2-0.8,2.6-0.8,4c0,1.9,0.4,3.5,1.3,4.8c0.9,1.3,2.1,2.3,3.6,2.7c0.5,0.2,1,0.3,1.4,0.4c-0.9-0.4-1.7-0.9-2.4-1.7
			c-0.7-0.9-1.3-1.8-1.6-2.8c-0.3-1.2-0.5-2.5-0.5-3.7c0-1.4,0.3-2.9,0.8-4.2c0.4-1,0.8-1.8,1.3-2.4
			C366.7,77.2,366.9,76.9,367.1,76.7z M374.2,76.4c0,0,0.1,0.1,0.1,0.1c0.7,0.7,1.2,1.4,1.5,2c0.1,0.2,0.2,0.3,0.3,0.5l0-2.4
			c-0.1,0-0.2,0.1-0.4,0.1c-0.1,0-0.4,0-0.7-0.2L374.2,76.4z"/>
	</g>
	<g>
		<g>
			<defs>
				<path id="SVGID_32_" d="M395.2,75.6v0.3c-0.5,0-0.8,0.1-1.1,0.2c-0.3,0.1-0.5,0.3-0.7,0.5c-0.3,0.3-0.5,0.8-0.6,1.3
					c-0.1,0.4-0.1,0.9-0.1,1.5v9c0,0.7,0,1.2,0.1,1.7c0.1,0.4,0.2,0.7,0.3,0.9c0.2,0.3,0.5,0.6,0.8,0.7c0.3,0.2,0.8,0.3,1.3,0.3v0.3
					h-7.9v-0.3c0.5,0,0.8-0.1,1.1-0.2c0.3-0.1,0.5-0.3,0.7-0.5c0.3-0.3,0.4-0.6,0.5-1c0.1-0.4,0.1-1,0.1-1.9v-9c0-0.8,0-1.5-0.1-1.9
					c-0.1-0.4-0.3-0.7-0.5-1c-0.2-0.2-0.5-0.4-0.7-0.5c-0.3-0.1-0.7-0.2-1.1-0.2v-0.3L395.2,75.6L395.2,75.6z"/>
			</defs>
			<clipPath id="SVGID_33_">
				<use xlink:href="#SVGID_32_"  style="overflow:visible;"/>
			</clipPath>
			<g class="st10">
				<rect x="383.2" y="63.7" class="st0" width="16.5" height="16.5"/>
				<g>
					<rect x="383.2" y="63.7" class="st0" width="16.5" height="16.5"/>
					<g>
						<polygon class="st0" points="383.2,63.7 399.8,63.7 399.8,80.2 383.2,80.2 						"/>
						<polygon class="st1" points="399.8,63.7 383.2,63.7 383.2,80.2 399.8,80.2 						"/>
					</g>
				</g>
			</g>
			<g class="st10">
				<rect x="383.2" y="80.2" class="st0" width="16.5" height="16.5"/>
				<g>
					<rect x="383.2" y="80.2" class="st0" width="16.5" height="16.5"/>
					<g>
						<polygon class="st0" points="383.2,80.2 399.8,80.2 399.8,96.8 383.2,96.8 						"/>
						<polygon class="st1" points="399.8,80.2 383.2,80.2 383.2,96.8 399.8,96.8 						"/>
					</g>
				</g>
			</g>
		</g>
		<path class="st4" d="M395.7,92.9h-8.9v-1.3h0.5c0.4,0,0.7-0.1,1-0.2c0.2-0.1,0.3-0.2,0.5-0.4c0.2-0.2,0.3-0.4,0.4-0.8
			c0.1-0.4,0.1-1,0.1-1.7v-9c0-0.8,0-1.4-0.1-1.7c-0.1-0.3-0.3-0.6-0.5-0.9c-0.1-0.1-0.4-0.3-0.5-0.3c-0.2-0.1-0.6-0.2-0.9-0.2h-0.5
			V75l8.9,0.1v1.3h-0.5c-0.4,0-0.7,0.1-1,0.2c-0.2,0.1-0.4,0.2-0.5,0.4c-0.2,0.2-0.4,0.6-0.5,1.1c-0.1,0.4-0.1,0.9-0.1,1.4v9
			c0,0.7,0,1.2,0.1,1.5c0.1,0.4,0.2,0.7,0.3,0.8c0.1,0.2,0.4,0.4,0.5,0.5l0.1,0.1c0.2,0.1,0.6,0.2,1.1,0.2h0.5V92.9z M389.3,91.9
			h3.8c-0.2-0.2-0.4-0.4-0.5-0.6c-0.2-0.3-0.3-0.6-0.4-1.1c-0.1-0.5-0.1-1-0.1-1.8v-9c0-0.5,0-1.1,0.1-1.6c0.1-0.4,0.3-1.1,0.8-1.6
			c0.1-0.1,0.1-0.1,0.2-0.2l-3.8,0c0.1,0.1,0.1,0.1,0.2,0.2c0.3,0.4,0.5,0.8,0.7,1.3c0.1,0.5,0.1,1.1,0.1,2v9c0,0.9,0,1.5-0.1,2
			c-0.1,0.4-0.2,0.9-0.7,1.3C389.5,91.8,389.4,91.9,389.3,91.9z"/>
	</g>
	<g>
		<g>
			<defs>
				<path id="SVGID_34_" d="M406.2,84.1c0-1.3,0.3-2.7,0.9-3.8c0.6-1.1,1.5-2.2,2.6-3.1c0.8-0.6,1.8-1.1,2.7-1.5
					c0.9-0.3,2-0.5,2.9-0.5c1.2,0,2.5,0.3,3.6,0.8c1.1,0.5,2.2,1.3,3.1,2.4c1.5,1.7,2.2,3.5,2.2,5.6c0,1-0.2,2.1-0.5,3
					c-0.4,0.9-0.9,1.9-1.7,2.7c-0.9,1-2,1.8-3.1,2.3c-1.2,0.5-2.5,0.8-3.8,0.8c-1.3,0-2.6-0.3-3.7-0.8c-1.1-0.5-2.2-1.2-3.1-2.3
					c-0.7-0.7-1.2-1.7-1.6-2.6C406.4,86.1,406.2,85.2,406.2,84.1z M409.2,84.2c0,2.4,0.6,4.4,2,6c0.6,0.7,1.2,1.2,1.9,1.6
					c0.6,0.3,1.3,0.5,2.3,0.5c0.8,0,1.7-0.2,2.3-0.5c0.6-0.3,1.2-0.8,1.9-1.6c1.2-1.7,2-3.6,2-6c0-1.3-0.2-2.6-0.5-3.7
					c-0.3-1.1-0.8-2.2-1.5-3c-0.5-0.6-1.1-1.1-1.8-1.5c-0.6-0.3-1.5-0.4-2.3-0.4c-0.8,0-1.7,0.1-2.3,0.4c-0.6,0.3-1.2,0.8-1.8,1.5
					c-0.6,0.8-1.1,1.8-1.5,3C409.3,81.6,409.2,82.9,409.2,84.2z"/>
			</defs>
			<clipPath id="SVGID_35_">
				<use xlink:href="#SVGID_34_"  style="overflow:visible;"/>
			</clipPath>
			<g class="st11">
				<rect x="416.3" y="63.7" class="st0" width="16.5" height="16.5"/>
				<g>
					<rect x="416.3" y="63.7" class="st0" width="16.5" height="16.5"/>
					<g>
						<polygon class="st0" points="416.3,63.7 432.9,63.7 432.9,80.2 416.3,80.2 						"/>
						<polygon class="st1" points="432.9,63.7 416.3,63.7 416.3,80.2 432.9,80.2 						"/>
					</g>
				</g>
			</g>
			<g class="st11">
				<rect x="416.3" y="80.2" class="st0" width="16.5" height="16.5"/>
				<g>
					<rect x="416.3" y="80.2" class="st0" width="16.5" height="16.5"/>
					<g>
						<polygon class="st0" points="416.3,80.2 432.9,80.2 432.9,96.8 416.3,96.8 						"/>
						<polygon class="st1" points="432.9,80.2 416.3,80.2 416.3,96.8 432.9,96.8 						"/>
					</g>
				</g>
			</g>
			<g class="st11">
				<rect x="399.8" y="63.7" class="st0" width="16.5" height="16.5"/>
				<g>
					<rect x="399.8" y="63.7" class="st0" width="16.5" height="16.5"/>
					<g>
						<polygon class="st0" points="399.8,63.7 416.3,63.7 416.3,80.2 399.8,80.2 						"/>
						<polygon class="st1" points="416.3,63.7 399.8,63.7 399.8,80.2 416.3,80.2 						"/>
					</g>
				</g>
			</g>
			<g class="st11">
				<rect x="399.8" y="80.2" class="st0" width="16.5" height="16.5"/>
				<g>
					<rect x="399.8" y="80.2" class="st0" width="16.5" height="16.5"/>
					<g>
						<polygon class="st0" points="399.8,80.2 416.3,80.2 416.3,96.8 399.8,96.8 						"/>
						<polygon class="st1" points="416.3,80.2 399.8,80.2 399.8,96.8 416.3,96.8 						"/>
					</g>
				</g>
			</g>
			<g class="st11">
				<rect x="416.3" y="63.7" class="st0" width="16.5" height="16.5"/>
				<g>
					<rect x="416.3" y="63.7" class="st0" width="16.5" height="16.5"/>
					<g>
						<polygon class="st0" points="416.3,63.7 432.9,63.7 432.9,80.2 416.3,80.2 						"/>
						<polygon class="st1" points="432.9,63.7 416.3,63.7 416.3,80.2 432.9,80.2 						"/>
					</g>
				</g>
			</g>
			<g class="st11">
				<rect x="416.3" y="80.2" class="st0" width="16.5" height="16.5"/>
				<g>
					<rect x="416.3" y="80.2" class="st0" width="16.5" height="16.5"/>
					<g>
						<polygon class="st0" points="416.3,80.2 432.9,80.2 432.9,96.8 416.3,96.8 						"/>
						<polygon class="st1" points="432.9,80.2 416.3,80.2 416.3,96.8 432.9,96.8 						"/>
					</g>
				</g>
			</g>
			<g class="st11">
				<rect x="399.8" y="63.7" class="st0" width="16.5" height="16.5"/>
				<g>
					<rect x="399.8" y="63.7" class="st0" width="16.5" height="16.5"/>
					<g>
						<polygon class="st0" points="399.8,63.7 416.3,63.7 416.3,80.2 399.8,80.2 						"/>
						<polygon class="st1" points="416.3,63.7 399.8,63.7 399.8,80.2 416.3,80.2 						"/>
					</g>
				</g>
			</g>
			<g class="st11">
				<rect x="399.8" y="80.2" class="st0" width="16.5" height="16.5"/>
				<g>
					<rect x="399.8" y="80.2" class="st0" width="16.5" height="16.5"/>
					<g>
						<polygon class="st0" points="399.8,80.2 416.3,80.2 416.3,96.8 399.8,96.8 						"/>
						<polygon class="st1" points="416.3,80.2 399.8,80.2 399.8,96.8 416.3,96.8 						"/>
					</g>
				</g>
			</g>
		</g>
		<path class="st4" d="M415.1,93.3c-1.3,0-2.7-0.3-3.9-0.9c-1.3-0.6-2.3-1.4-3.3-2.4c-0.7-0.7-1.3-1.7-1.7-2.8c-0.3-1-0.5-2-0.5-3.2
			c0-1.5,0.3-2.9,1-4.1c0.7-1.3,1.6-2.3,2.7-3.3c0.9-0.7,1.9-1.2,2.9-1.5c1.1-0.4,2.1-0.5,3.1-0.5c1.3,0,2.6,0.3,3.8,0.9
			c1.1,0.5,2.3,1.4,3.3,2.5c1.5,1.8,2.3,3.8,2.3,5.9c0,1-0.2,2.1-0.5,3.2c-0.5,1.2-1.1,2.1-1.8,2.9c-0.9,1-2,1.8-3.3,2.4
			C417.7,93.1,416.4,93.3,415.1,93.3z M415.4,76.1c-0.9,0-1.6,0.1-2.1,0.4c-0.6,0.3-1.1,0.7-1.6,1.3c-0.7,0.9-1.1,1.8-1.4,2.8l0,0.1
			c-0.6,1-0.7,2.1-0.7,3.5c0,2.3,0.6,4.2,1.9,5.7c0.6,0.7,1.1,1.1,1.7,1.4c0.6,0.3,1.3,0.5,2.1,0.5c0.7,0,1.5-0.2,2.1-0.5
			c0.6-0.3,1.1-0.8,1.7-1.4c1.2-1.7,1.9-3.5,1.9-5.7c0-1.2-0.2-2.4-0.5-3.6c-0.3-1-0.8-2-1.4-2.8c-0.5-0.6-1-1-1.6-1.3
			C417,76.2,416.3,76.1,415.4,76.1z M411.4,76.7c-0.5,0.2-1,0.6-1.4,0.9c-1,0.8-1.8,1.8-2.5,3c-0.6,1-0.9,2.3-0.9,3.6
			c0,1.1,0.2,2,0.5,2.9c0.2,0.6,0.6,1.6,1.4,2.4c0.9,1,1.8,1.7,3,2.2c0.1,0.1,0.3,0.1,0.4,0.2c-0.4-0.3-0.8-0.7-1.2-1.2
			c-1.4-1.7-2.1-3.8-2.1-6.3c0-1.3,0.1-2.7,0.8-3.9c0.3-1.1,0.8-2.1,1.5-3.1C411.1,77,411.3,76.8,411.4,76.7z M419.8,77
			c0,0,0.1,0.1,0.1,0.1c0.7,0.9,1.2,2,1.6,3.2c0.4,1.3,0.5,2.6,0.5,3.9c0,2.4-0.7,4.5-2.1,6.3c-0.3,0.3-0.6,0.6-0.9,0.9
			c1-0.5,1.9-1.2,2.7-2c0.6-0.7,1.1-1.5,1.6-2.6c0.3-0.9,0.5-1.9,0.5-2.8c0-1.9-0.7-3.7-2.1-5.3C421.1,78,420.4,77.5,419.8,77z"/>
	</g>
	<g>
		<g>
			<defs>
				<path id="SVGID_36_" d="M438.4,77.8v10.7c0,0.8,0,1.5,0.1,1.9c0.1,0.4,0.3,0.7,0.5,1c0.2,0.2,0.5,0.4,0.8,0.5s0.6,0.2,1.1,0.2
					v0.3h-5.7v-0.3c0.4,0,0.8-0.1,1.1-0.2c0.3-0.1,0.5-0.3,0.8-0.5c0.2-0.3,0.4-0.6,0.5-1c0.1-0.4,0.1-1,0.1-1.9v-9
					c0-0.8,0-1.5-0.1-1.9c-0.1-0.4-0.3-0.7-0.5-1c-0.2-0.2-0.5-0.4-0.7-0.5c-0.3-0.1-0.7-0.2-1.1-0.2v-0.3h4.8l10,12.8v-8.9
					c0-0.8,0-1.5-0.1-1.9s-0.3-0.7-0.5-1c-0.2-0.2-0.5-0.4-0.8-0.5c-0.3-0.1-0.6-0.2-1.1-0.2v-0.3h5.7v0.3c-0.8,0-1.5,0.2-2,0.7
					c-0.2,0.3-0.4,0.6-0.5,1s-0.1,1-0.1,1.9v13h-0.5L438.4,77.8z"/>
			</defs>
			<clipPath id="SVGID_37_">
				<use xlink:href="#SVGID_36_"  style="overflow:visible;"/>
			</clipPath>
			<g class="st12">
				<rect x="449.4" y="63.7" class="st0" width="16.5" height="16.5"/>
				<g>
					<rect x="449.4" y="63.7" class="st0" width="16.5" height="16.5"/>
					<g>
						<polygon class="st0" points="449.4,63.7 465.9,63.7 465.9,80.2 449.4,80.2 						"/>
						<polygon class="st1" points="465.9,63.7 449.4,63.7 449.4,80.2 465.9,80.2 						"/>
					</g>
				</g>
			</g>
			<g class="st12">
				<rect x="449.4" y="80.2" class="st0" width="16.5" height="16.5"/>
				<g>
					<rect x="449.4" y="80.2" class="st0" width="16.5" height="16.5"/>
					<g>
						<polygon class="st0" points="449.4,80.2 465.9,80.2 465.9,96.8 449.4,96.8 						"/>
						<polygon class="st1" points="465.9,80.2 449.4,80.2 449.4,96.8 465.9,96.8 						"/>
					</g>
				</g>
			</g>
			<g class="st12">
				<rect x="432.9" y="63.7" class="st0" width="16.5" height="16.5"/>
				<g>
					<rect x="432.9" y="63.7" class="st0" width="16.5" height="16.5"/>
					<g>
						<polygon class="st0" points="432.9,63.7 449.4,63.7 449.4,80.2 432.9,80.2 						"/>
						<polygon class="st1" points="449.4,63.7 432.9,63.7 432.9,80.2 449.4,80.2 						"/>
					</g>
				</g>
			</g>
			<g class="st12">
				<rect x="432.9" y="80.2" class="st0" width="16.5" height="16.5"/>
				<g>
					<rect x="432.9" y="80.2" class="st0" width="16.5" height="16.5"/>
					<g>
						<polygon class="st0" points="432.9,80.2 449.4,80.2 449.4,96.8 432.9,96.8 						"/>
						<polygon class="st1" points="449.4,80.2 432.9,80.2 432.9,96.8 449.4,96.8 						"/>
					</g>
				</g>
			</g>
		</g>
		<path class="st4" d="M441.5,92.9h-6.7v-1.3h0.5c0.4,0,0.7-0.1,1-0.2c0.1,0,0.3-0.1,0.4-0.3c0.1,0,0.1-0.1,0.2-0.1
			c0.2-0.3,0.3-0.5,0.4-0.8c0.1-0.4,0.1-1,0.1-1.7v-9c0-0.8,0-1.4-0.1-1.7c-0.1-0.3-0.3-0.6-0.4-0.9c-0.1-0.1-0.4-0.3-0.5-0.4
			c-0.2-0.1-0.6-0.2-0.9-0.2h-0.5V75h5.5l9.2,11.8v-7.5c0-0.8,0-1.4-0.1-1.7c-0.1-0.3-0.3-0.6-0.5-0.9c-0.1-0.1-0.4-0.3-0.6-0.3
			c-0.3-0.1-0.5-0.2-1-0.2H447v-1.3h6.7v1.3h-0.5c-0.7,0-1.2,0.2-1.6,0.6c-0.1,0.2-0.3,0.5-0.4,0.8c-0.1,0.4-0.1,1-0.1,1.7v13.5
			h-1.3l-11-13.6v9.3c0,0.8,0,1.4,0.1,1.7c0.1,0.3,0.3,0.6,0.4,0.9c0.1,0.1,0.4,0.3,0.6,0.3c0.3,0.1,0.5,0.2,1,0.2h0.5V92.9z
			 M437.3,91.9h1.5c-0.1-0.1-0.1-0.1-0.2-0.2l-0.1-0.1c-0.2-0.2-0.3-0.5-0.5-0.8c-0.1,0.3-0.3,0.6-0.5,0.8l-0.1,0.1
			C437.5,91.8,437.4,91.9,437.3,91.9z M437.9,76.4l12.3,15.2v-2.4L439.9,76h-2.5c0.1,0.1,0.1,0.1,0.2,0.2l0.1,0.1
			c0.1,0.1,0.2,0.2,0.2,0.4V76.4z M449.6,75.9c0.1,0.1,0.1,0.1,0.2,0.2c0.2,0.3,0.4,0.6,0.5,0.9c0.1-0.3,0.3-0.6,0.5-0.8
			c0.1-0.1,0.2-0.2,0.3-0.3H449.6z"/>
	</g>
	<g>
		<g>
			<defs>
				<path id="SVGID_38_" d="M492.2,75.6l0.2,4h-0.3c-0.1-0.7-0.3-1.2-0.5-1.7s-0.6-0.8-1-1.2c-0.4-0.3-0.8-0.5-1.3-0.6
					s-1.2-0.2-2.1-0.2h-2.8v7.4h0.7c0.7,0,1.3,0,1.7-0.1c0.4-0.1,0.7-0.3,0.9-0.5c0.2-0.2,0.4-0.5,0.5-0.8c0.1-0.3,0.2-0.8,0.3-1.5
					h0.3v6.5h-0.3c-0.1-0.6-0.2-1.1-0.3-1.6c-0.1-0.4-0.3-0.7-0.6-0.9c-0.2-0.3-0.5-0.4-0.9-0.6c-0.4-0.1-0.9-0.2-1.5-0.2h-0.7v2.8
					c0,1.1,0,2,0.1,2.5c0.1,0.5,0.2,0.9,0.3,1.2c0.3,0.6,0.7,1,1.2,1.3c0.5,0.3,1.3,0.4,2.3,0.4s1.8-0.1,2.5-0.4
					c0.6-0.2,1.2-0.6,1.7-1.1c0.3-0.3,0.5-0.7,0.7-1.2c0.2-0.4,0.3-1,0.5-1.8h0.3l-0.2,4.9h-14.6v-0.3c0.4,0,0.8-0.1,1.1-0.2
					c0.3-0.1,0.5-0.3,0.8-0.5c0.2-0.3,0.4-0.6,0.5-1c0.1-0.4,0.1-1,0.1-1.9v-9c0-0.8,0-1.5-0.1-1.9s-0.3-0.7-0.5-1
					c-0.2-0.2-0.5-0.4-0.7-0.5c-0.3-0.1-0.6-0.2-1.1-0.2v-0.3L492.2,75.6L492.2,75.6z"/>
			</defs>
			<clipPath id="SVGID_39_">
				<use xlink:href="#SVGID_38_"  style="overflow:visible;"/>
			</clipPath>
			<g class="st13">
				<rect x="482.5" y="63.7" class="st0" width="16.5" height="16.5"/>
				<g>
					<rect x="482.5" y="63.7" class="st0" width="16.5" height="16.5"/>
					<g>
						<polygon class="st0" points="482.5,63.7 499,63.7 499,80.2 482.5,80.2 						"/>
						<polygon class="st1" points="499,63.7 482.5,63.7 482.5,80.2 499,80.2 						"/>
					</g>
				</g>
			</g>
			<g class="st13">
				<rect x="482.5" y="80.2" class="st0" width="16.5" height="16.5"/>
				<g>
					<rect x="482.5" y="80.2" class="st0" width="16.5" height="16.5"/>
					<g>
						<polygon class="st0" points="482.5,80.2 499,80.2 499,96.8 482.5,96.8 						"/>
						<polygon class="st1" points="499,80.2 482.5,80.2 482.5,96.8 499,96.8 						"/>
					</g>
				</g>
			</g>
			<g class="st13">
				<rect x="465.9" y="63.7" class="st0" width="16.5" height="16.5"/>
				<g>
					<rect x="465.9" y="63.7" class="st0" width="16.5" height="16.5"/>
					<g>
						<polygon class="st0" points="465.9,63.7 482.5,63.7 482.5,80.2 465.9,80.2 						"/>
						<polygon class="st1" points="482.5,63.7 465.9,63.7 465.9,80.2 482.5,80.2 						"/>
					</g>
				</g>
			</g>
			<g class="st13">
				<rect x="465.9" y="80.2" class="st0" width="16.5" height="16.5"/>
				<g>
					<rect x="465.9" y="80.2" class="st0" width="16.5" height="16.5"/>
					<g>
						<polygon class="st0" points="465.9,80.2 482.5,80.2 482.5,96.8 465.9,96.8 						"/>
						<polygon class="st1" points="482.5,80.2 465.9,80.2 465.9,96.8 482.5,96.8 						"/>
					</g>
				</g>
			</g>
		</g>
		<path class="st4" d="M494.3,92.7h-15.6v-1.3h0.5c0.3,0,0.6-0.1,1-0.2c0.1,0,0.3-0.1,0.4-0.3c0.1,0,0.1-0.1,0.2-0.1
			c0.2-0.3,0.3-0.5,0.4-0.8c0.1-0.4,0.1-1,0.1-1.7v-9c0-0.8,0-1.4-0.1-1.7c-0.1-0.3-0.3-0.6-0.5-0.9c-0.1-0.1-0.4-0.3-0.5-0.3
			c-0.2-0.1-0.5-0.2-0.9-0.2h-0.5v-1.3l13.9,0.3l0.3,5h-1.3l-0.1-0.4c-0.1-0.7-0.3-1.2-0.5-1.5c-0.2-0.3-0.6-0.7-0.9-1.1
			c-0.3-0.2-0.7-0.4-1.1-0.5c-0.7-0.1-1.3-0.2-2-0.2h-2.3v6.4h0.2c0.6,0,1.3,0,1.5-0.1c0.4-0.1,0.6-0.3,0.7-0.4
			c0.2-0.2,0.3-0.4,0.4-0.6c0.1-0.3,0.2-0.7,0.3-1.4l0.1-0.4h1.2v7.5H488l-0.1-0.4c-0.1-0.6-0.2-1.1-0.3-1.5
			c-0.1-0.3-0.2-0.5-0.4-0.6l-0.1-0.1c-0.1-0.1-0.2-0.2-0.5-0.3l-0.2-0.1c-0.3-0.1-0.8-0.2-1.3-0.2h-0.2v2.3c0,1.1,0,1.9,0.1,2.4
			c0.1,0.5,0.2,0.9,0.3,1.2c0.2,0.4,0.6,0.8,1,1.1c0.4,0.2,1.1,0.3,2,0.3c1,0,1.7-0.1,2.3-0.4c0.6-0.2,1.1-0.6,1.5-1
			c0.3-0.3,0.5-0.7,0.7-1.1c0.1-0.3,0.2-0.6,0.3-1c0.1-0.2,0.1-0.5,0.2-0.7l0.1-0.4h1.2L494.3,92.7z M491.6,91.7h1.8l0.1-1.9
			c-0.2,0.3-0.3,0.6-0.6,0.9C492.5,91.1,492.1,91.5,491.6,91.7z M481.3,91.7h4.2c-0.5-0.4-0.9-0.8-1.1-1.4c-0.1-0.4-0.2-0.8-0.4-1.4
			c-0.1-0.6-0.1-1.4-0.1-2.6v-2.6h-0.1v-7.9l-2.4-0.1c0.1,0,0.1,0.1,0.1,0.1c0.3,0.4,0.5,0.8,0.7,1.3c0.1,0.5,0.1,1.1,0.1,2v9
			c0,0.9,0,1.5-0.1,2c-0.1,0.5-0.4,0.9-0.6,1.2l-0.1,0.1C481.4,91.6,481.3,91.7,481.3,91.7z M487.9,84.1c0.1,0.1,0.3,0.2,0.4,0.4
			v-1.8c-0.1,0.1-0.2,0.2-0.3,0.3c-0.2,0.2-0.4,0.4-0.8,0.5C487.4,83.7,487.7,83.8,487.9,84.1z M490.4,76.1c0.1,0.1,0.3,0.2,0.4,0.3
			c0.4,0.4,0.7,0.7,1,1l-0.1-1.3L490.4,76.1z"/>
	</g>
	<g>
		<g>
			<defs>
				<path id="SVGID_40_" d="M506.9,77.8v10.7c0,0.8,0,1.5,0.1,1.9c0.1,0.4,0.3,0.7,0.5,1c0.2,0.2,0.5,0.4,0.7,0.5
					c0.3,0.1,0.6,0.2,1.1,0.2v0.3h-5.7v-0.3c0.4,0,0.8-0.1,1.1-0.2s0.5-0.3,0.8-0.5c0.2-0.3,0.4-0.6,0.5-1c0.1-0.4,0.1-1,0.1-1.9v-9
					c0-0.8,0-1.5-0.1-1.9c-0.1-0.4-0.3-0.7-0.5-1c-0.2-0.2-0.5-0.4-0.7-0.5c-0.3-0.1-0.6-0.2-1.1-0.2v-0.3h4.8l10,12.8v-8.9
					c0-0.8,0-1.5-0.1-1.9s-0.3-0.7-0.5-1c-0.2-0.2-0.5-0.4-0.8-0.5c-0.3-0.1-0.6-0.2-1.1-0.2v-0.3h5.7v0.3c-0.8,0-1.5,0.2-1.9,0.7
					c-0.3,0.3-0.4,0.6-0.5,1s-0.1,1-0.1,1.9v13h-0.5L506.9,77.8z"/>
			</defs>
			<clipPath id="SVGID_41_">
				<use xlink:href="#SVGID_40_"  style="overflow:visible;"/>
			</clipPath>
			<g class="st14">
				<rect x="515.6" y="63.7" class="st0" width="16.5" height="16.5"/>
				<g>
					<rect x="515.6" y="63.7" class="st0" width="16.5" height="16.5"/>
					<g>
						<polygon class="st0" points="515.6,63.7 532.1,63.7 532.1,80.2 515.6,80.2 						"/>
						<polygon class="st1" points="532.1,63.7 515.6,63.7 515.6,80.2 532.1,80.2 						"/>
					</g>
				</g>
			</g>
			<g class="st14">
				<rect x="515.6" y="80.2" class="st0" width="16.5" height="16.5"/>
				<g>
					<rect x="515.6" y="80.2" class="st0" width="16.5" height="16.5"/>
					<g>
						<polygon class="st0" points="515.6,80.2 532.1,80.2 532.1,96.8 515.6,96.8 						"/>
						<polygon class="st1" points="532.1,80.2 515.6,80.2 515.6,96.8 532.1,96.8 						"/>
					</g>
				</g>
			</g>
			<g class="st14">
				<rect x="499" y="63.7" class="st0" width="16.5" height="16.5"/>
				<g>
					<rect x="499" y="63.7" class="st0" width="16.5" height="16.5"/>
					<g>
						<polygon class="st0" points="499,63.7 515.6,63.7 515.6,80.2 499,80.2 						"/>
						<polygon class="st1" points="515.6,63.7 499,63.7 499,80.2 515.6,80.2 						"/>
					</g>
				</g>
			</g>
			<g class="st14">
				<rect x="499" y="80.2" class="st0" width="16.5" height="16.5"/>
				<g>
					<rect x="499" y="80.2" class="st0" width="16.5" height="16.5"/>
					<g>
						<polygon class="st0" points="499,80.2 515.6,80.2 515.6,96.8 499,96.8 						"/>
						<polygon class="st1" points="515.6,80.2 499,80.2 499,96.8 515.6,96.8 						"/>
					</g>
				</g>
			</g>
		</g>
		<path class="st4" d="M509.9,92.9h-6.7v-1.3h0.5c0.4,0,0.7-0.1,1-0.2c0.1,0,0.3-0.1,0.4-0.3c0.1,0,0.1-0.1,0.2-0.1
			c0.2-0.3,0.3-0.5,0.4-0.8c0.1-0.4,0.1-1,0.1-1.7v-9c0-0.8,0-1.4-0.1-1.7c-0.1-0.3-0.3-0.6-0.5-0.9c-0.1-0.1-0.4-0.3-0.5-0.3
			c-0.2-0.1-0.5-0.2-0.9-0.2h-0.5V75h5.5l9.2,11.8v-7.5c0-0.8,0-1.4-0.1-1.7c-0.1-0.3-0.3-0.6-0.5-0.9c-0.1-0.1-0.4-0.3-0.6-0.3
			c-0.3-0.1-0.5-0.2-1-0.2h-0.5v-1.3h6.7v1.3h-0.5c-0.7,0-1.2,0.2-1.5,0.5c-0.3,0.3-0.3,0.5-0.4,0.8c-0.1,0.4-0.1,1-0.1,1.7v13.5
			h-1.3l-11-13.6v9.3c0,0.8,0,1.4,0.1,1.7c0.1,0.3,0.3,0.6,0.4,0.9c0.1,0.1,0.4,0.3,0.5,0.4c0.2,0.1,0.5,0.2,0.9,0.2h0.5V92.9z
			 M505.8,91.9h1.6c-0.1-0.1-0.1-0.1-0.2-0.2l-0.1-0.1c-0.2-0.3-0.4-0.6-0.5-1c-0.1,0.4-0.3,0.7-0.5,1l-0.1,0.1
			C505.9,91.8,505.8,91.9,505.8,91.9z M506.4,76.4l12.3,15.2v-2.3L508.3,76h-2.5c0.1,0.1,0.1,0.1,0.2,0.2c0.1,0.2,0.3,0.4,0.4,0.6
			V76.4z M518.1,75.9c0.1,0.1,0.1,0.1,0.2,0.2c0.2,0.3,0.4,0.6,0.6,1c0.1-0.4,0.3-0.7,0.6-1c0.1-0.1,0.1-0.1,0.2-0.2H518.1z"/>
	</g>
	<g>
		<g>
			<defs>
				<path id="SVGID_42_" d="M547.5,92.3V92c0.8,0,1.5-0.2,1.9-0.7c0.3-0.3,0.4-0.6,0.5-1c0.1-0.4,0.1-1,0.1-1.9v-9
					c0-0.8,0-1.6-0.1-1.9c-0.1-0.4-0.3-0.7-0.5-1c-0.2-0.2-0.5-0.4-0.7-0.4c-0.3-0.1-0.6-0.1-1.1-0.2v-0.3h7.9v0.3
					c-0.4,0-0.8,0.1-1.1,0.2c-0.3,0.1-0.5,0.3-0.7,0.5c-0.3,0.3-0.5,0.6-0.5,1c-0.1,0.4-0.1,1-0.1,1.9v7.1c0,1.1,0,1.9,0.1,2.4
					c0.1,0.5,0.2,0.9,0.3,1.3c0.3,0.6,0.7,1,1.2,1.3c0.5,0.3,1.3,0.4,2.3,0.4s1.8-0.1,2.5-0.4c0.6-0.3,1.2-0.6,1.7-1.2
					c0.3-0.3,0.5-0.8,0.7-1.2s0.3-1,0.5-1.9h0.3l-0.2,5.1L547.5,92.3L547.5,92.3z"/>
			</defs>
			<clipPath id="SVGID_43_">
				<use xlink:href="#SVGID_42_"  style="overflow:visible;"/>
			</clipPath>
			<g class="st15">
				<rect x="548.6" y="63.7" class="st0" width="16.5" height="16.5"/>
				<g>
					<rect x="548.6" y="63.7" class="st0" width="16.5" height="16.5"/>
					<g>
						<polygon class="st0" points="548.6,63.7 565.2,63.7 565.2,80.2 548.6,80.2 						"/>
						<polygon class="st1" points="565.2,63.7 548.6,63.7 548.6,80.2 565.2,80.2 						"/>
					</g>
				</g>
			</g>
			<g class="st15">
				<rect x="548.6" y="80.2" class="st0" width="16.5" height="16.5"/>
				<g>
					<rect x="548.6" y="80.2" class="st0" width="16.5" height="16.5"/>
					<g>
						<polygon class="st0" points="548.6,80.2 565.2,80.2 565.2,96.8 548.6,96.8 						"/>
						<polygon class="st1" points="565.2,80.2 548.6,80.2 548.6,96.8 565.2,96.8 						"/>
					</g>
				</g>
			</g>
			<g class="st15">
				<rect x="532.1" y="63.7" class="st0" width="16.5" height="16.5"/>
				<g>
					<rect x="532.1" y="63.7" class="st0" width="16.5" height="16.5"/>
					<g>
						<polygon class="st0" points="532.1,63.7 548.6,63.7 548.6,80.2 532.1,80.2 						"/>
						<polygon class="st1" points="548.6,63.7 532.1,63.7 532.1,80.2 548.6,80.2 						"/>
					</g>
				</g>
			</g>
			<g class="st15">
				<rect x="532.1" y="80.2" class="st0" width="16.5" height="16.5"/>
				<g>
					<rect x="532.1" y="80.2" class="st0" width="16.5" height="16.5"/>
					<g>
						<polygon class="st0" points="532.1,80.2 548.6,80.2 548.6,96.8 532.1,96.8 						"/>
						<polygon class="st1" points="548.6,80.2 532.1,80.2 532.1,96.8 548.6,96.8 						"/>
					</g>
				</g>
			</g>
		</g>
		<path class="st4" d="M562.8,92.8H547v-1.3h0.5c0.7,0,1.2-0.2,1.5-0.5c0.3-0.3,0.3-0.5,0.4-0.8c0.1-0.4,0.1-1,0.1-1.7v-9
			c0-0.7,0-1.5-0.1-1.7c-0.1-0.4-0.3-0.6-0.5-0.9c-0.1-0.1-0.3-0.2-0.3-0.2l-0.1,0c-0.2-0.1-0.3-0.1-0.5-0.1c-0.2,0-0.4,0-0.6-0.1
			l-0.4-0.1V75h8.9v1.3h-0.5c-0.4,0-0.7,0.1-1,0.2c-0.2,0.1-0.3,0.2-0.5,0.4c-0.3,0.3-0.4,0.5-0.4,0.7l0,0.1c-0.1,0.4-0.1,1-0.1,1.7
			v7.1c0,1.1,0,1.8,0.1,2.3c0.1,0.5,0.2,0.9,0.3,1.3c0.2,0.5,0.6,0.8,1,1.1c0.4,0.2,1.1,0.3,2,0.3c1,0,1.7-0.1,2.3-0.4
			c0.6-0.3,1.1-0.6,1.4-1.1c0.3-0.3,0.4-0.6,0.6-0.9l0.1-0.3c0.1-0.3,0.2-0.6,0.3-1.1c0-0.2,0.1-0.4,0.2-0.6l0.1-0.4h1.2L562.8,92.8
			z M560,91.8h1.9l0.1-2c-0.2,0.3-0.3,0.7-0.6,0.9C561,91.2,560.5,91.6,560,91.8z M549.6,91.8h4.4c-0.5-0.4-0.9-0.8-1.1-1.4l0-0.1
			c-0.1-0.4-0.2-0.8-0.3-1.4c-0.1-0.6-0.1-1.3-0.1-2.5v-7.1c0-0.8,0-1.5,0.1-1.9c0-0.6,0.4-1,0.7-1.3c0.1-0.1,0.1-0.1,0.2-0.2h-3.7
			c0,0,0.1,0.1,0.1,0.1c0.3,0.4,0.5,0.8,0.7,1.3c0.1,0.3,0.1,1,0.1,2v9c0,0.9,0,1.5-0.1,2c-0.1,0.4-0.2,0.9-0.7,1.3
			C549.7,91.7,549.6,91.8,549.6,91.8z"/>
	</g>
	<g>
		<g>
			<defs>
				<path id="SVGID_44_" d="M579.9,75.6v0.3c-0.5,0-0.8,0.1-1.1,0.2s-0.5,0.3-0.8,0.5c-0.3,0.3-0.5,0.8-0.6,1.3
					c0,0.4-0.1,0.9-0.1,1.5v9c0,0.7,0,1.2,0.1,1.7c0.1,0.4,0.2,0.7,0.3,0.9c0.2,0.3,0.5,0.6,0.8,0.7c0.3,0.2,0.8,0.3,1.3,0.3v0.3
					H572v-0.3c0.5,0,0.8-0.1,1.1-0.2s0.5-0.3,0.7-0.5c0.3-0.3,0.4-0.6,0.5-1c0.1-0.4,0.1-1,0.1-1.9v-9c0-0.8,0-1.5-0.1-1.9
					c-0.1-0.4-0.3-0.7-0.5-1c-0.2-0.2-0.5-0.4-0.7-0.5c-0.3-0.1-0.6-0.2-1.1-0.2v-0.3L579.9,75.6L579.9,75.6z"/>
			</defs>
			<clipPath id="SVGID_46_">
				<use xlink:href="#SVGID_44_"  style="overflow:visible;"/>
			</clipPath>
			<g class="st16">
				<rect x="565.2" y="63.7" class="st0" width="16.5" height="16.5"/>
				<g>
					<rect x="565.2" y="63.7" class="st0" width="16.5" height="16.5"/>
					<g>
						<polygon class="st0" points="565.2,63.7 581.7,63.7 581.7,80.2 565.2,80.2 						"/>
						<polygon class="st1" points="581.7,63.7 565.2,63.7 565.2,80.2 581.7,80.2 						"/>
					</g>
				</g>
			</g>
			<g class="st16">
				<rect x="565.2" y="80.2" class="st0" width="16.5" height="16.5"/>
				<g>
					<rect x="565.2" y="80.2" class="st0" width="16.5" height="16.5"/>
					<g>
						<polygon class="st0" points="565.2,80.2 581.7,80.2 581.7,96.8 565.2,96.8 						"/>
						<polygon class="st1" points="581.7,80.2 565.2,80.2 565.2,96.8 581.7,96.8 						"/>
					</g>
				</g>
			</g>
		</g>
		<path class="st4" d="M580.3,92.9h-8.8v-1.3h0.5c0.4,0,0.7-0.1,1-0.2c0.2-0.1,0.3-0.2,0.5-0.4c0.2-0.2,0.3-0.4,0.4-0.8
			c0.1-0.4,0.1-1,0.1-1.7v-9c0-0.8,0-1.4-0.1-1.7c-0.1-0.3-0.3-0.6-0.5-0.9c-0.1-0.1-0.4-0.3-0.5-0.3c-0.2-0.1-0.5-0.2-0.9-0.2h-0.5
			V75l8.9,0.1v1.3h-0.5c-0.4,0-0.7,0.1-1,0.2c-0.1,0-0.3,0.1-0.4,0.3c-0.1,0.1-0.2,0.1-0.3,0.2c-0.1,0.1-0.3,0.6-0.4,1
			c0,0.1,0,0.4,0,0.6c0,0.2-0.1,0.5-0.1,0.8v9c0,0.7,0,1.2,0.1,1.5c0.1,0.4,0.2,0.7,0.3,0.8c0.1,0.2,0.4,0.4,0.5,0.5l0.1,0.1
			c0.2,0.1,0.6,0.2,1.1,0.2h0.5V92.9z M574.1,91.9h3.7c-0.2-0.2-0.4-0.4-0.5-0.6c-0.2-0.3-0.3-0.6-0.4-1.1c-0.1-0.5-0.1-1-0.1-1.8
			v-9c0-0.3,0-0.6,0.1-0.9c0-0.2,0-0.4,0-0.6c0.1-0.5,0.3-1.2,0.8-1.7c0.1-0.1,0.2-0.2,0.3-0.2l-3.8,0c0.1,0.1,0.1,0.1,0.2,0.2
			c0.3,0.4,0.5,0.8,0.7,1.3c0.1,0.5,0.1,1.1,0.1,2v9c0,0.9,0,1.5-0.1,2c-0.1,0.4-0.2,0.9-0.7,1.3C574.2,91.8,574.1,91.9,574.1,91.9z
			"/>
	</g>
	<g>
		<g>
			<defs>
				<path id="SVGID_47_" d="M590.3,92.3V92c0.5,0,0.8-0.1,1.1-0.2s0.5-0.3,0.7-0.5c0.2-0.3,0.4-0.6,0.5-1c0.1-0.4,0.1-1,0.1-1.9v-9
					c0-0.8,0-1.5-0.1-1.9c-0.1-0.4-0.3-0.7-0.5-1c-0.2-0.2-0.5-0.4-0.7-0.5c-0.3-0.1-0.7-0.2-1.1-0.2v-0.3h8.1c0.8,0,1.3,0,1.7,0
					c0.9,0.1,1.8,0.3,2.3,0.6c0.5,0.3,0.9,0.7,1.2,1.2s0.4,1.1,0.4,1.8c0,1-0.3,2-1,2.6c-0.2,0.3-0.5,0.5-0.8,0.6
					c-0.3,0.1-0.7,0.3-1.3,0.5c0.8,0.1,1.3,0.3,1.9,0.4c0.4,0.2,0.8,0.4,1.1,0.6c0.5,0.4,0.9,0.9,1.2,1.6s0.4,1.3,0.4,2.1
					s-0.1,1.5-0.4,2.1c-0.3,0.6-0.7,1.1-1.2,1.5c-0.5,0.3-1,0.5-1.8,0.7c-0.6,0.1-1.7,0.2-2.8,0.2C599.3,92.3,590.3,92.3,590.3,92.3
					z M595.6,75.9v7.3h1c0.4,0,0.9,0,1.5-0.1c0.4-0.1,0.8-0.1,1-0.2c0.3-0.1,0.5-0.2,0.7-0.4c0.4-0.3,0.7-0.7,0.9-1.2s0.3-1,0.3-1.7
					s-0.1-1.2-0.3-1.8c-0.2-0.5-0.5-1-0.9-1.3c-0.3-0.3-0.7-0.4-1.1-0.5c-0.4-0.1-1-0.1-2-0.1L595.6,75.9L595.6,75.9z M595.6,83.6
					v5.1c0,0.6,0,1.1,0.1,1.5c0.1,0.4,0.2,0.7,0.4,0.9c0.4,0.5,1.1,0.8,2.2,0.8c1.3,0,2.4-0.3,3.1-1c0.7-0.7,1.1-1.7,1.1-2.9
					c0-0.7-0.1-1.3-0.3-2s-0.5-1-0.9-1.5c-0.7-0.6-1.9-0.9-3.4-0.9H595.6L595.6,83.6z"/>
			</defs>
			<clipPath id="SVGID_49_">
				<use xlink:href="#SVGID_47_"  style="overflow:visible;"/>
			</clipPath>
			<g class="st17">
				<rect x="598.2" y="63.7" class="st0" width="16.5" height="16.5"/>
				<g>
					<rect x="598.2" y="63.7" class="st0" width="16.5" height="16.5"/>
					<g>
						<polygon class="st0" points="598.2,63.7 614.8,63.7 614.8,80.2 598.2,80.2 						"/>
						<polygon class="st1" points="614.8,63.7 598.2,63.7 598.2,80.2 614.8,80.2 						"/>
					</g>
				</g>
			</g>
			<g class="st17">
				<rect x="598.2" y="80.2" class="st0" width="16.5" height="16.5"/>
				<g>
					<rect x="598.2" y="80.2" class="st0" width="16.5" height="16.5"/>
					<g>
						<polygon class="st0" points="598.2,80.2 614.8,80.2 614.8,96.8 598.2,96.8 						"/>
						<polygon class="st1" points="614.8,80.2 598.2,80.2 598.2,96.8 614.8,96.8 						"/>
					</g>
				</g>
			</g>
			<g class="st17">
				<rect x="581.7" y="63.7" class="st0" width="16.5" height="16.5"/>
				<g>
					<rect x="581.7" y="63.7" class="st0" width="16.5" height="16.5"/>
					<g>
						<polygon class="st0" points="581.7,63.7 598.2,63.7 598.2,80.2 581.7,80.2 						"/>
						<polygon class="st1" points="598.2,63.7 581.7,63.7 581.7,80.2 598.2,80.2 						"/>
					</g>
				</g>
			</g>
			<g class="st17">
				<rect x="581.7" y="80.2" class="st0" width="16.5" height="16.5"/>
				<g>
					<rect x="581.7" y="80.2" class="st0" width="16.5" height="16.5"/>
					<g>
						<polygon class="st0" points="581.7,80.2 598.2,80.2 598.2,96.8 581.7,96.8 						"/>
						<polygon class="st1" points="598.2,80.2 581.7,80.2 581.7,96.8 598.2,96.8 						"/>
					</g>
				</g>
			</g>
			<g class="st17">
				<rect x="598.2" y="63.7" class="st0" width="16.5" height="16.5"/>
				<g>
					<rect x="598.2" y="63.7" class="st0" width="16.5" height="16.5"/>
					<g>
						<polygon class="st0" points="598.2,63.7 614.8,63.7 614.8,80.2 598.2,80.2 						"/>
						<polygon class="st1" points="614.8,63.7 598.2,63.7 598.2,80.2 614.8,80.2 						"/>
					</g>
				</g>
			</g>
			<g class="st17">
				<rect x="598.2" y="80.2" class="st0" width="16.5" height="16.5"/>
				<g>
					<rect x="598.2" y="80.2" class="st0" width="16.5" height="16.5"/>
					<g>
						<polygon class="st0" points="598.2,80.2 614.8,80.2 614.8,96.8 598.2,96.8 						"/>
						<polygon class="st1" points="614.8,80.2 598.2,80.2 598.2,96.8 614.8,96.8 						"/>
					</g>
				</g>
			</g>
			<g class="st17">
				<rect x="581.7" y="63.7" class="st0" width="16.5" height="16.5"/>
				<g>
					<rect x="581.7" y="63.7" class="st0" width="16.5" height="16.5"/>
					<g>
						<polygon class="st0" points="581.7,63.7 598.2,63.7 598.2,80.2 581.7,80.2 						"/>
						<polygon class="st1" points="598.2,63.7 581.7,63.7 581.7,80.2 598.2,80.2 						"/>
					</g>
				</g>
			</g>
			<g class="st17">
				<rect x="581.7" y="80.2" class="st0" width="16.5" height="16.5"/>
				<g>
					<rect x="581.7" y="80.2" class="st0" width="16.5" height="16.5"/>
					<g>
						<polygon class="st0" points="581.7,80.2 598.2,80.2 598.2,96.8 581.7,96.8 						"/>
						<polygon class="st1" points="598.2,80.2 581.7,80.2 581.7,96.8 598.2,96.8 						"/>
					</g>
				</g>
			</g>
			<g class="st17">
				<rect x="598.2" y="80.2" class="st0" width="16.5" height="16.5"/>
				<g>
					<rect x="598.2" y="80.2" class="st0" width="16.5" height="16.5"/>
					<g>
						<polygon class="st0" points="598.2,80.2 614.8,80.2 614.8,96.8 598.2,96.8 						"/>
						<polygon class="st1" points="614.8,80.2 598.2,80.2 598.2,96.8 614.8,96.8 						"/>
					</g>
				</g>
			</g>
			<g class="st17">
				<rect x="581.7" y="80.2" class="st0" width="16.5" height="16.5"/>
				<g>
					<rect x="581.7" y="80.2" class="st0" width="16.5" height="16.5"/>
					<g>
						<polygon class="st0" points="581.7,80.2 598.2,80.2 598.2,96.8 581.7,96.8 						"/>
						<polygon class="st1" points="598.2,80.2 581.7,80.2 581.7,96.8 598.2,96.8 						"/>
					</g>
				</g>
			</g>
		</g>
		<path class="st4" d="M590.3,92.8h-0.5v-1.3h0.5c0.4,0,0.7-0.1,1-0.2c0.2-0.1,0.4-0.2,0.5-0.4c0.1-0.2,0.3-0.5,0.4-0.8
			c0.1-0.4,0.1-1,0.1-1.7v-9c0-0.8,0-1.4-0.1-1.7c-0.1-0.3-0.3-0.6-0.5-0.9c-0.1-0.1-0.4-0.3-0.5-0.3c-0.3-0.1-0.6-0.2-0.9-0.2h-0.5
			v-1.3h10.3c0.8,0.1,1.8,0.3,2.5,0.7c0.6,0.4,1.1,0.8,1.4,1.4c0.3,0.5,0.5,1.2,0.5,2c0,1.2-0.4,2.3-1.2,2.9
			c-0.2,0.3-0.5,0.5-0.8,0.7c0.1,0,0.2,0,0.2,0.1l0.1,0c0.4,0.2,0.9,0.4,1.2,0.7c0.6,0.5,1.1,1.1,1.4,1.8c0.3,0.6,0.5,1.4,0.5,2.3
			c0,0.9-0.2,1.7-0.5,2.3c-0.4,0.8-0.9,1.3-1.4,1.7c-0.5,0.3-1.1,0.6-1.9,0.8c-0.3,0.1-1.4,0.2-2.8,0.2
			C598.9,92.6,597.2,92.8,590.3,92.8z M592.3,75.9c0.1,0.1,0.1,0.1,0.2,0.2c0.3,0.4,0.5,0.8,0.7,1.3c0.1,0.5,0.1,1.1,0.1,2v9
			c0,0.9,0,1.5-0.1,2c-0.1,0.5-0.4,0.9-0.6,1.2c-0.1,0.1-0.2,0.2-0.2,0.3c1.3,0,2.6,0,3.7-0.1c-0.1-0.1-0.3-0.2-0.3-0.3
			c-0.3-0.3-0.4-0.7-0.5-1.1c-0.1-0.4-0.1-0.9-0.1-1.6V75.9H592.3z M596.1,84.1v4.6c0,0.5,0,1.1,0.1,1.3c0.1,0.4,0.2,0.6,0.3,0.7
			c0.4,0.5,1,0.7,1.8,0.7c1.3,0,2.2-0.3,2.8-0.9c0.7-0.7,1-1.5,1-2.6c0-0.7-0.1-1.2-0.3-1.8c-0.2-0.6-0.5-0.9-0.8-1.3
			c-0.6-0.5-1.6-0.8-3.1-0.8H596.1z M599.6,83.2c0.9,0.2,1.6,0.5,2.1,0.9c0.4,0.4,0.8,0.9,1.1,1.7c0.2,0.7,0.3,1.4,0.3,2.1
			c0,1.3-0.4,2.4-1.3,3.3c0,0,0,0,0,0c0.1,0,0.1,0,0.2,0c0.6-0.2,1.1-0.4,1.6-0.7c0.4-0.2,0.8-0.7,1.1-1.2c0.2-0.5,0.4-1.1,0.4-1.9
			c0-0.8-0.1-1.4-0.4-1.9c-0.3-0.6-0.7-1-1.1-1.4c-0.2-0.2-0.6-0.3-1-0.5c-0.2,0-0.3-0.1-0.5-0.1c-0.4-0.1-0.7-0.2-1.2-0.3l-1-0.1
			C599.7,83.2,599.6,83.2,599.6,83.2z M596.1,82.7h0.5c0.4,0,0.9,0,1.4-0.1c0.2,0,0.4-0.1,0.6-0.1c0.1,0,0.3,0,0.4-0.1
			c0.3-0.1,0.5-0.2,0.6-0.3c0.4-0.3,0.6-0.6,0.8-1.1c0.2-0.5,0.3-0.9,0.3-1.5c0-0.6-0.1-1.1-0.3-1.6c-0.2-0.5-0.5-0.9-0.8-1.1
			c-0.3-0.3-0.6-0.3-1-0.4c-0.4-0.1-1-0.1-1.9-0.1l-0.6,0.1V82.7z M600,75.9c0.1,0.1,0.1,0.1,0.2,0.2c0.5,0.4,0.9,1,1,1.5
			c0.2,0.6,0.3,1.2,0.3,2c0,0.7-0.1,1.3-0.3,1.8c-0.1,0.3-0.3,0.6-0.5,0.8c0.3-0.1,0.5-0.2,0.7-0.3c0.2-0.1,0.3-0.1,0.5-0.2
			c0.2-0.1,0.4-0.2,0.6-0.4l0.1-0.1c0.7-0.6,0.9-1.5,0.9-2.2c0-0.6-0.1-1.1-0.3-1.5c-0.3-0.5-0.6-0.8-1.1-1.1
			C601.7,76.2,600.9,76,600,75.9L600,75.9z"/>
	</g>
	<g>
		<g>
			<defs>
				<path id="SVGID_50_" d="M621.7,84.1v4.4c0,0.8,0,1.5,0.1,1.9c0.1,0.4,0.3,0.7,0.5,1c0.2,0.2,0.5,0.4,0.7,0.5
					c0.3,0.1,0.7,0.2,1.1,0.2v0.3h-7.9v-0.3c0.5,0,0.8-0.1,1.1-0.2s0.5-0.3,0.7-0.5c0.3-0.3,0.4-0.6,0.5-1c0.1-0.4,0.1-1,0.1-1.9v-9
					c0-0.8,0-1.5-0.1-1.9c-0.1-0.4-0.3-0.7-0.5-1c-0.2-0.2-0.5-0.4-0.8-0.5s-0.7-0.2-1.1-0.2v-0.3h5.9c1,0,1.7,0,2,0
					c1.2,0.1,2.3,0.2,3,0.5c0.8,0.3,1.5,0.8,1.9,1.5c0.4,0.6,0.7,1.5,0.7,2.3c0,1.2-0.5,2.3-1.5,3.1c-0.3,0.2-0.6,0.4-0.9,0.5
					c-0.3,0.1-0.8,0.3-1.5,0.4c0.5,0.2,0.8,0.4,1.1,0.6c0.2,0.2,0.3,0.4,0.5,0.6c0.2,0.2,0.4,0.7,0.7,1.3c0.7,1.6,1.2,2.6,1.7,3.3
					c0.4,0.7,0.7,1.2,0.9,1.6c0.2,0.2,0.4,0.4,0.6,0.5c0.2,0.1,0.4,0.2,0.8,0.2v0.3h-4c-0.2-0.4-0.3-0.7-0.4-0.8l-0.8-2
					c-0.5-1.1-1-2.2-1.6-3.1c-0.5-0.9-1-1.6-1.5-1.9c-0.2-0.2-0.4-0.3-0.7-0.3c-0.2-0.1-0.5-0.1-0.9-0.1L621.7,84.1L621.7,84.1z
					 M621.7,83.9h0.5c1,0,1.8-0.1,2.2-0.2c0.4-0.1,0.8-0.3,1.2-0.7c0.8-0.8,1.2-1.9,1.2-3c0-0.6-0.1-1.2-0.4-1.9
					c-0.2-0.5-0.6-1-1-1.5c-0.3-0.3-0.7-0.5-1.2-0.6s-1.1-0.2-2.1-0.2h-0.5v8.1H621.7z"/>
			</defs>
			<clipPath id="SVGID_52_">
				<use xlink:href="#SVGID_50_"  style="overflow:visible;"/>
			</clipPath>
			<g class="st18">
				<rect x="631.3" y="63.7" class="st0" width="16.5" height="16.5"/>
				<g>
					<rect x="631.3" y="63.7" class="st0" width="16.5" height="16.5"/>
					<g>
						<polygon class="st0" points="631.3,63.7 647.9,63.7 647.9,80.2 631.3,80.2 						"/>
						<polygon class="st1" points="647.9,63.7 631.3,63.7 631.3,80.2 647.9,80.2 						"/>
					</g>
				</g>
			</g>
			<g class="st18">
				<rect x="631.3" y="80.2" class="st0" width="16.5" height="16.5"/>
				<g>
					<rect x="631.3" y="80.2" class="st0" width="16.5" height="16.5"/>
					<g>
						<polygon class="st0" points="631.3,80.2 647.9,80.2 647.9,96.8 631.3,96.8 						"/>
						<polygon class="st1" points="647.9,80.2 631.3,80.2 631.3,96.8 647.9,96.8 						"/>
					</g>
				</g>
			</g>
			<g class="st18">
				<rect x="614.8" y="63.7" class="st0" width="16.5" height="16.5"/>
				<g>
					<rect x="614.8" y="63.7" class="st0" width="16.5" height="16.5"/>
					<g>
						<polygon class="st0" points="614.8,63.7 631.3,63.7 631.3,80.2 614.8,80.2 						"/>
						<polygon class="st1" points="631.3,63.7 614.8,63.7 614.8,80.2 631.3,80.2 						"/>
					</g>
				</g>
			</g>
			<g class="st18">
				<rect x="614.8" y="80.2" class="st0" width="16.5" height="16.5"/>
				<g>
					<rect x="614.8" y="80.2" class="st0" width="16.5" height="16.5"/>
					<g>
						<polygon class="st0" points="614.8,80.2 631.3,80.2 631.3,96.8 614.8,96.8 						"/>
						<polygon class="st1" points="631.3,80.2 614.8,80.2 614.8,96.8 631.3,96.8 						"/>
					</g>
				</g>
			</g>
			<g class="st18">
				<rect x="614.8" y="63.7" class="st0" width="16.5" height="16.5"/>
				<g>
					<rect x="614.8" y="63.7" class="st0" width="16.5" height="16.5"/>
					<g>
						<polygon class="st0" points="614.8,63.7 631.3,63.7 631.3,80.2 614.8,80.2 						"/>
						<polygon class="st1" points="631.3,63.7 614.8,63.7 614.8,80.2 631.3,80.2 						"/>
					</g>
				</g>
			</g>
			<g class="st18">
				<rect x="614.8" y="80.2" class="st0" width="16.5" height="16.5"/>
				<g>
					<rect x="614.8" y="80.2" class="st0" width="16.5" height="16.5"/>
					<g>
						<polygon class="st0" points="614.8,80.2 631.3,80.2 631.3,96.8 614.8,96.8 						"/>
						<polygon class="st1" points="631.3,80.2 614.8,80.2 614.8,96.8 631.3,96.8 						"/>
					</g>
				</g>
			</g>
		</g>
		<path class="st4" d="M624.7,92.9h-8.9v-1.3h0.5c0.4,0,0.7-0.1,1-0.2c0.2-0.1,0.3-0.2,0.5-0.4c0.2-0.2,0.3-0.4,0.4-0.8
			c0.1-0.4,0.1-1,0.1-1.7v-9c0-0.8,0-1.4-0.1-1.7c-0.1-0.3-0.3-0.6-0.5-0.9c-0.1-0.1-0.4-0.3-0.6-0.3c-0.2-0.1-0.6-0.2-1-0.2h-0.5
			V75h8.4c1.4,0.1,2.4,0.2,3.2,0.6c0.9,0.3,1.6,0.9,2.1,1.6c0.5,0.8,0.8,1.7,0.8,2.6c0,1.4-0.5,2.5-1.6,3.5
			c-0.4,0.3-0.7,0.5-1.1,0.6l-0.2,0.1c0,0-0.1,0-0.1,0c0,0,0.1,0,0.1,0.1c0.2,0.2,0.3,0.3,0.4,0.4c0.1,0.1,0.1,0.2,0.2,0.3
			c0.2,0.2,0.4,0.5,0.6,1l0.2,0.5c0.7,1.5,1.2,2.6,1.6,3.3c0.4,0.7,0.7,1.2,0.9,1.5c0.1,0.1,0.3,0.3,0.4,0.3
			c0.2,0.1,0.3,0.2,0.6,0.2h0.5v1.3h-4.9l-0.1-0.3c-0.1-0.2-0.2-0.3-0.2-0.4c-0.1-0.1-0.1-0.2-0.1-0.3l-0.1-0.1l-0.8-2
			c-0.5-1.1-1-2.2-1.5-3.1c-0.4-0.8-0.9-1.4-1.3-1.7c-0.2-0.2-0.3-0.2-0.4-0.2h-0.1l-0.1-0.1c-0.1-0.1-0.4-0.1-0.7-0.1h-0.1v3.9
			c0,0.8,0,1.4,0.1,1.7c0.1,0.3,0.3,0.6,0.5,0.9c0.1,0.1,0.4,0.3,0.5,0.3c0.2,0.1,0.6,0.2,0.9,0.2h0.5V92.9z M618.3,91.9h3.8
			c-0.1-0.1-0.1-0.1-0.2-0.2c-0.3-0.4-0.5-0.8-0.7-1.3c-0.1-0.5-0.1-1.1-0.1-2v-4.1h-0.1V76h-2.8c0.1,0.1,0.1,0.1,0.2,0.2
			c0.3,0.4,0.5,0.8,0.7,1.3c0.1,0.5,0.1,1.1,0.1,2v9c0,0.9,0,1.5-0.1,2c-0.1,0.4-0.2,0.9-0.7,1.3C618.4,91.8,618.4,91.9,618.3,91.9z
			 M628.5,91.8h2.1c-0.1-0.1-0.1-0.1-0.2-0.2c-0.3-0.4-0.6-0.9-1-1.7c-0.4-0.7-0.9-1.8-1.7-3.4l-0.2-0.5c-0.1-0.3-0.3-0.6-0.4-0.7
			c-0.1-0.1-0.2-0.2-0.3-0.4c-0.1-0.1-0.1-0.2-0.2-0.3c-0.2-0.1-0.5-0.3-1-0.5L625,84c-0.2,0.1-0.3,0.1-0.5,0.2c0,0-0.1,0-0.1,0
			c0.5,0.4,1,1.1,1.5,1.9c0.5,0.9,1,2,1.6,3.2l0.8,1.9c0.1,0.1,0.2,0.3,0.2,0.5C628.5,91.7,628.5,91.8,628.5,91.8z M622.1,83.4h0.1
			c1.2,0,1.8-0.1,2.1-0.2c0.4-0.1,0.7-0.3,1-0.6c0.7-0.7,1.1-1.6,1.1-2.7c0-0.6-0.1-1.2-0.4-1.6c-0.2-0.4-0.5-0.9-0.9-1.3
			c-0.2-0.2-0.6-0.4-1-0.5c-0.5-0.1-1.1-0.2-2-0.2h0V83.4z M625.6,76.2c0,0,0.1,0.1,0.1,0.1c0.4,0.4,0.9,1,1.1,1.6
			c0.3,0.6,0.5,1.3,0.5,2.1c0,1.3-0.5,2.4-1.3,3.3c0.3-0.1,0.6-0.2,0.9-0.3l0.2-0.1c0.2-0.1,0.5-0.3,0.8-0.5
			c0.8-0.7,1.2-1.6,1.2-2.7c0-0.7-0.2-1.4-0.6-2c-0.4-0.6-0.9-1-1.6-1.3C626.5,76.3,626.1,76.2,625.6,76.2z"/>
	</g>
	<g>
		<g>
			<defs>
				<path id="SVGID_53_" d="M642.5,84.1c0-1.3,0.3-2.7,0.9-3.8c0.6-1.1,1.5-2.2,2.6-3.1c0.8-0.6,1.8-1.1,2.7-1.5
					c0.9-0.3,2-0.5,2.9-0.5c1.2,0,2.5,0.3,3.6,0.8s2.2,1.3,3.1,2.4c1.5,1.7,2.2,3.5,2.2,5.6c0,1-0.2,2.1-0.5,3
					c-0.4,0.9-0.9,1.9-1.7,2.7c-0.8,1-2,1.8-3.1,2.3c-1.2,0.5-2.5,0.8-3.8,0.8s-2.6-0.3-3.7-0.8c-1.1-0.5-2.2-1.2-3.1-2.3
					c-0.7-0.7-1.2-1.7-1.6-2.6C642.7,86.1,642.5,85.2,642.5,84.1z M645.4,84.2c0,2.4,0.6,4.4,2,6c0.6,0.7,1.2,1.2,1.9,1.6
					c0.6,0.3,1.5,0.5,2.3,0.5s1.7-0.2,2.3-0.5c0.6-0.3,1.2-0.8,1.9-1.6c1.3-1.7,2-3.6,2-6c0-1.3-0.2-2.6-0.5-3.7
					c-0.3-1.1-0.8-2.2-1.5-3c-0.5-0.6-1.1-1.1-1.8-1.5c-0.6-0.3-1.5-0.4-2.3-0.4s-1.7,0.1-2.3,0.4c-0.6,0.3-1.2,0.8-1.8,1.5
					c-0.6,0.8-1.1,1.8-1.5,3C645.7,81.6,645.4,82.9,645.4,84.2z"/>
			</defs>
			<clipPath id="SVGID_55_">
				<use xlink:href="#SVGID_53_"  style="overflow:visible;"/>
			</clipPath>
			<g class="st19">
				<rect x="647.9" y="63.7" class="st0" width="16.5" height="16.5"/>
				<g>
					<rect x="647.9" y="63.7" class="st0" width="16.5" height="16.5"/>
					<g>
						<polygon class="st0" points="647.9,63.7 664.4,63.7 664.4,80.2 647.9,80.2 						"/>
						<polygon class="st1" points="664.4,63.7 647.9,63.7 647.9,80.2 664.4,80.2 						"/>
					</g>
				</g>
			</g>
			<g class="st19">
				<rect x="647.9" y="80.2" class="st0" width="16.5" height="16.5"/>
				<g>
					<rect x="647.9" y="80.2" class="st0" width="16.5" height="16.5"/>
					<g>
						<polygon class="st0" points="647.9,80.2 664.4,80.2 664.4,96.8 647.9,96.8 						"/>
						<polygon class="st1" points="664.4,80.2 647.9,80.2 647.9,96.8 664.4,96.8 						"/>
					</g>
				</g>
			</g>
			<g class="st19">
				<rect x="631.3" y="63.7" class="st0" width="16.5" height="16.5"/>
				<g>
					<rect x="631.3" y="63.7" class="st0" width="16.5" height="16.5"/>
					<g>
						<polygon class="st0" points="631.3,63.7 647.9,63.7 647.9,80.2 631.3,80.2 						"/>
						<polygon class="st1" points="647.9,63.7 631.3,63.7 631.3,80.2 647.9,80.2 						"/>
					</g>
				</g>
			</g>
			<g class="st19">
				<rect x="631.3" y="80.2" class="st0" width="16.5" height="16.5"/>
				<g>
					<rect x="631.3" y="80.2" class="st0" width="16.5" height="16.5"/>
					<g>
						<polygon class="st0" points="631.3,80.2 647.9,80.2 647.9,96.8 631.3,96.8 						"/>
						<polygon class="st1" points="647.9,80.2 631.3,80.2 631.3,96.8 647.9,96.8 						"/>
					</g>
				</g>
			</g>
			<g class="st19">
				<rect x="647.9" y="63.7" class="st0" width="16.5" height="16.5"/>
				<g>
					<rect x="647.9" y="63.7" class="st0" width="16.5" height="16.5"/>
					<g>
						<polygon class="st0" points="647.9,63.7 664.4,63.7 664.4,80.2 647.9,80.2 						"/>
						<polygon class="st1" points="664.4,63.7 647.9,63.7 647.9,80.2 664.4,80.2 						"/>
					</g>
				</g>
			</g>
			<g class="st19">
				<rect x="647.9" y="80.2" class="st0" width="16.5" height="16.5"/>
				<g>
					<rect x="647.9" y="80.2" class="st0" width="16.5" height="16.5"/>
					<g>
						<polygon class="st0" points="647.9,80.2 664.4,80.2 664.4,96.8 647.9,96.8 						"/>
						<polygon class="st1" points="664.4,80.2 647.9,80.2 647.9,96.8 664.4,96.8 						"/>
					</g>
				</g>
			</g>
			<g class="st19">
				<rect x="631.3" y="63.7" class="st0" width="16.5" height="16.5"/>
				<g>
					<rect x="631.3" y="63.7" class="st0" width="16.5" height="16.5"/>
					<g>
						<polygon class="st0" points="631.3,63.7 647.9,63.7 647.9,80.2 631.3,80.2 						"/>
						<polygon class="st1" points="647.9,63.7 631.3,63.7 631.3,80.2 647.9,80.2 						"/>
					</g>
				</g>
			</g>
			<g class="st19">
				<rect x="631.3" y="80.2" class="st0" width="16.5" height="16.5"/>
				<g>
					<rect x="631.3" y="80.2" class="st0" width="16.5" height="16.5"/>
					<g>
						<polygon class="st0" points="631.3,80.2 647.9,80.2 647.9,96.8 631.3,96.8 						"/>
						<polygon class="st1" points="647.9,80.2 631.3,80.2 631.3,96.8 647.9,96.8 						"/>
					</g>
				</g>
			</g>
		</g>
		<path class="st4" d="M651.5,93.3c-1.3,0-2.7-0.3-3.9-0.9c-1.3-0.6-2.3-1.4-3.3-2.4c-0.7-0.7-1.3-1.7-1.7-2.8
			c-0.3-0.9-0.5-2-0.5-3.2c0-1.5,0.3-2.9,1-4.1c0.7-1.3,1.6-2.3,2.7-3.3c0.9-0.7,1.9-1.2,2.9-1.5c1.1-0.4,2.1-0.5,3.1-0.5
			c1.3,0,2.6,0.3,3.8,0.9c1.1,0.5,2.3,1.4,3.3,2.5c1.5,1.8,2.3,3.7,2.3,5.9c0,1-0.2,2.1-0.5,3.2c-0.5,1.2-1.1,2.1-1.8,2.9
			c-0.8,1-1.9,1.8-3.3,2.4C654.1,93.1,652.8,93.3,651.5,93.3z M651.7,76.1c-0.9,0-1.6,0.1-2.1,0.4c-0.6,0.3-1.1,0.7-1.6,1.3
			c-0.7,0.9-1.1,1.8-1.4,2.8c-0.5,1.1-0.7,2.3-0.7,3.6c0,2.3,0.6,4.2,1.9,5.7c0.6,0.7,1.1,1.1,1.7,1.4c1.2,0.6,2.9,0.6,4.1,0
			c0.6-0.3,1.1-0.8,1.7-1.4c1.2-1.5,1.9-3.4,1.9-5.7c0-1.2-0.2-2.4-0.5-3.6c-0.3-1-0.8-2-1.4-2.8c-0.5-0.6-1-1-1.6-1.3
			C653.3,76.2,652.6,76.1,651.7,76.1z M647.6,76.8c-0.4,0.2-0.8,0.5-1.2,0.8c-1,0.8-1.8,1.8-2.5,3c-0.6,1-0.9,2.3-0.9,3.6
			c0,1.1,0.2,2,0.5,2.9c0.2,0.6,0.6,1.6,1.4,2.4c0.9,1,1.8,1.7,3,2.2c0.1,0,0.1,0.1,0.2,0.1c-0.4-0.3-0.7-0.7-1.1-1.1
			c-1.4-1.7-2.1-3.8-2.1-6.3c0-1.5,0.3-2.8,0.8-3.9c0.3-1.1,0.8-2.1,1.5-3.1C647.3,77,647.5,76.9,647.6,76.8z M655.9,76.9
			c0.1,0.1,0.2,0.2,0.2,0.3c0.7,0.9,1.2,2,1.6,3.2c0.4,1.3,0.5,2.6,0.5,3.9c0,2.5-0.7,4.6-2.1,6.3c-0.3,0.4-0.6,0.7-1,1
			c1.2-0.6,2.2-1.3,2.9-2.1c0.6-0.7,1.1-1.5,1.6-2.6c0.3-0.9,0.5-1.9,0.5-2.8c0-1.9-0.7-3.7-2.1-5.3C657.4,78,656.6,77.3,655.9,76.9
			z"/>
	</g>
	<g>
		<g>
			<defs>
				<path id="SVGID_56_" d="M672.1,92.3v-5.1h0.3c0.3,1.3,0.7,2.3,1.2,3.1c0.9,1.3,2,2.1,3.3,2.1c0.9,0,1.8-0.3,2.4-0.9
					c0.6-0.6,0.9-1.5,0.9-2.4c0-0.4-0.1-0.8-0.2-1.2c-0.1-0.4-0.3-0.8-0.5-1.1c-0.2-0.3-0.6-0.6-1-0.9c-0.4-0.3-1-0.6-2-1.1
					c-0.8-0.4-1.3-0.7-1.8-1c-0.4-0.3-0.7-0.5-1-0.8c-0.7-0.7-1-1.7-1-2.8c0-0.7,0.1-1.3,0.4-2c0.3-0.6,0.6-1.1,1.1-1.7
					c0.8-0.8,1.9-1.2,3.1-1.2c0.4,0,0.7,0,1,0.1c0.3,0.1,0.7,0.2,1.3,0.4c0.4,0.2,0.7,0.3,0.8,0.3s0.3,0.1,0.4,0.1
					c0.3,0,0.5-0.2,0.6-0.6h0.3l0.1,4.9h-0.3c-0.2-0.8-0.4-1.3-0.5-1.8c-0.2-0.4-0.3-0.8-0.5-1.1c-0.4-0.6-0.8-1.1-1.3-1.5
					c-0.5-0.3-1-0.4-1.7-0.4c-0.9,0-1.7,0.3-2.2,0.9c-0.2,0.2-0.4,0.5-0.5,0.9c-0.1,0.3-0.2,0.7-0.2,1c0,1.3,0.8,2.5,2.6,3.3
					l1.8,0.8c1.3,0.6,2.3,1.3,2.9,2.1c0.6,0.8,1,1.9,1,3c0,0.7-0.1,1.5-0.4,2.2c-0.4,0.9-1,1.7-1.9,2.2s-1.9,0.8-3,0.8
					c-1,0-2.1-0.2-3-0.6c-0.5-0.2-0.8-0.3-0.9-0.4c-0.1,0-0.2,0-0.3,0c-0.4,0-0.6,0.2-0.8,0.6L672.1,92.3L672.1,92.3z"/>
			</defs>
			<clipPath id="SVGID_58_">
				<use xlink:href="#SVGID_56_"  style="overflow:visible;"/>
			</clipPath>
			<g class="st20">
				<rect x="680.9" y="63.7" class="st0" width="16.5" height="16.5"/>
				<g>
					<rect x="680.9" y="63.7" class="st0" width="16.5" height="16.5"/>
					<g>
						<polygon class="st0" points="680.9,63.7 697.5,63.7 697.5,80.2 680.9,80.2 						"/>
						<polygon class="st1" points="697.5,63.7 680.9,63.7 680.9,80.2 697.5,80.2 						"/>
					</g>
				</g>
			</g>
			<g class="st20">
				<rect x="680.9" y="80.2" class="st0" width="16.5" height="16.5"/>
				<g>
					<rect x="680.9" y="80.2" class="st0" width="16.5" height="16.5"/>
					<g>
						<polygon class="st0" points="680.9,80.2 697.5,80.2 697.5,96.8 680.9,96.8 						"/>
						<polygon class="st1" points="697.5,80.2 680.9,80.2 680.9,96.8 697.5,96.8 						"/>
					</g>
				</g>
			</g>
			<g class="st20">
				<rect x="664.4" y="63.7" class="st0" width="16.5" height="16.5"/>
				<g>
					<rect x="664.4" y="63.7" class="st0" width="16.5" height="16.5"/>
					<g>
						<polygon class="st0" points="664.4,63.7 680.9,63.7 680.9,80.2 664.4,80.2 						"/>
						<polygon class="st1" points="680.9,63.7 664.4,63.7 664.4,80.2 680.9,80.2 						"/>
					</g>
				</g>
			</g>
			<g class="st20">
				<rect x="664.4" y="80.2" class="st0" width="16.5" height="16.5"/>
				<g>
					<rect x="664.4" y="80.2" class="st0" width="16.5" height="16.5"/>
					<g>
						<polygon class="st0" points="664.4,80.2 680.9,80.2 680.9,96.8 664.4,96.8 						"/>
						<polygon class="st1" points="680.9,80.2 664.4,80.2 664.4,96.8 680.9,96.8 						"/>
					</g>
				</g>
			</g>
		</g>
		<path class="st4" d="M677.8,93.3c-1.1,0-2.2-0.2-3.2-0.7l-0.3-0.1c-0.3-0.1-0.5-0.2-0.6-0.3h-0.2c-0.1,0-0.2,0-0.4,0.3L673,93
			l-1.4-0.2v-6h1.2l0.1,0.4c0.3,1.2,0.6,2.1,1.2,3c0.9,1.3,1.8,1.8,2.9,1.8c0.8,0,1.5-0.3,2-0.8s0.8-1.2,0.8-2
			c0-0.4-0.1-0.7-0.2-1.1c-0.1-0.3-0.2-0.7-0.4-1c-0.2-0.2-0.6-0.5-0.9-0.8c-0.3-0.2-0.7-0.4-1.3-0.8l-0.6-0.4
			c-0.8-0.4-1.4-0.7-1.8-1.1l-0.2-0.2c-0.3-0.2-0.6-0.4-0.8-0.7c-0.8-0.8-1.2-1.8-1.2-3.2c0-0.9,0.1-1.5,0.5-2.2
			c0.3-0.7,0.7-1.2,1.2-1.8c0.9-0.9,2.1-1.4,3.5-1.4c0.4,0,0.8,0,1.2,0.1c0.1,0,0.3,0.1,0.4,0.1c0.2,0.1,0.5,0.2,0.9,0.3
			c0.4,0.2,0.7,0.3,0.7,0.3c0.1,0,0.2,0,0.3,0.1c0,0,0.1,0,0.1,0c0,0,0.1-0.2,0.1-0.2l0.1-0.4h1.2l0.1,5.9h-1.2l-0.1-0.4
			c-0.1-0.5-0.2-0.8-0.3-1.1c-0.1-0.2-0.1-0.4-0.2-0.6c-0.1-0.2-0.2-0.3-0.2-0.5c-0.1-0.2-0.2-0.4-0.2-0.5c-0.3-0.5-0.7-1-1.2-1.3
			c-0.4-0.2-0.8-0.3-1.4-0.3c-0.8,0-1.4,0.2-1.8,0.8c-0.2,0.2-0.3,0.4-0.4,0.7c-0.1,0.4-0.2,0.7-0.2,0.9c0,1.2,0.8,2.1,2.3,2.9
			l1.8,0.8c1.3,0.6,2.3,1.3,3.1,2.2c0.8,1,1.2,2.2,1.2,3.3c0,0.9-0.1,1.7-0.5,2.4c-0.5,1-1.2,1.8-2.1,2.4
			C680.2,93,679,93.3,677.8,93.3z M674.9,76.5c-0.1,0.1-0.1,0.1-0.2,0.2c-0.5,0.5-0.8,0.9-1,1.5c-0.3,0.5-0.4,1-0.4,1.8
			c0,1.1,0.3,1.8,0.9,2.5c0.2,0.2,0.4,0.4,0.7,0.6l0.3,0.2c0.4,0.3,0.9,0.6,1.7,1l0.7,0.4c0.6,0.3,1.1,0.6,1.4,0.8
			c0.4,0.3,0.9,0.7,1.2,1.1c0.2,0.2,0.4,0.7,0.6,1.3c0.1,0.4,0.2,0.9,0.2,1.4c0,1.1-0.4,2-1.1,2.7c-0.1,0.1-0.2,0.2-0.3,0.3
			c0.4-0.1,0.8-0.3,1.1-0.5c0.8-0.5,1.3-1.1,1.7-2c0.3-0.6,0.4-1.2,0.4-2c0-1.2-0.5-2.1-0.9-2.7c-0.6-0.7-1.5-1.4-2.7-1.9l-1.8-0.8
			c-2.4-1.1-2.9-2.7-2.9-3.8c0-0.5,0.2-1,0.2-1.2C674.6,76.9,674.8,76.7,674.9,76.5z M672.6,89.4v2.3c0.2-0.2,0.5-0.4,1-0.4h0.2
			c-0.2-0.2-0.3-0.4-0.5-0.7C673,90.2,672.8,89.8,672.6,89.4z M680.7,76.4c0.2,0.2,0.3,0.4,0.5,0.6c0.2,0.2,0.3,0.5,0.3,0.7
			c0,0,0,0.1,0,0.1l0-1.5C681.1,76.6,680.9,76.5,680.7,76.4z"/>
	</g>
</g>
<g>
	<g>
		<g>
			<defs>
				<rect id="SVGID_59_" x="3.5" y="2.7" width="184.1" height="82.7"/>
			</defs>
			<clipPath id="SVGID_61_">
				<use xlink:href="#SVGID_59_"  style="overflow:visible;"/>
			</clipPath>
			<pattern  id="SVGID_62_" xlink:href="#SVGID_45_" patternTransform="matrix(1.2722 0 0 1.2722 8208.416 22816.625)">
			</pattern>
			<path class="st21" d="M113.4,55.5c-1.6,9.1-9.5,16-19,16s-17.4-6.9-19-15.9L3.9,41.7v42.4h183.3V41.7L113.4,55.5L113.4,55.5z"/>
		</g>
	</g>
	<g>
		<g>
			<defs>
				<rect id="SVGID_63_" x="3.5" y="2.7" width="184.1" height="82.7"/>
			</defs>
			<clipPath id="SVGID_64_">
				<use xlink:href="#SVGID_63_"  style="overflow:visible;"/>
			</clipPath>
			<pattern  id="SVGID_65_" xlink:href="#SVGID_48_" patternTransform="matrix(1.2722 0 0 1.2722 8208.416 22816.625)">
			</pattern>
			<path class="st22" d="M0.4,22.3L0.4,22.3l93.8,18.3l96.5-18.3l0,0v13.5l-81.8,15.3c0,0.3,0,0.4,0,0.7c0,8-6.5,14.6-14.6,14.6
				s-14.6-6.5-14.6-14.6c0-0.2,0-0.4,0-0.5L0.4,35.8L0.4,22.3L0.4,22.3z"/>
		</g>
	</g>
	<g>
		<g>
			<defs>
				<rect id="SVGID_66_" x="3.5" y="2.7" width="184.1" height="82.7"/>
			</defs>
			<clipPath id="SVGID_67_">
				<use xlink:href="#SVGID_66_"  style="overflow:visible;"/>
			</clipPath>
			<pattern  id="SVGID_68_" xlink:href="#SVGID_51_" patternTransform="matrix(1.2722 0 0 1.2722 8208.416 22816.625)">
			</pattern>
			<polyline class="st23" points="0.2,4.4 0.2,4.4 94.2,22.8 191,4.4 191,4.5 			"/>
		</g>
	</g>
	<g>
		<g>
			<defs>
				<rect id="SVGID_69_" x="3.5" y="2.7" width="184.1" height="82.7"/>
			</defs>
			<clipPath id="SVGID_70_">
				<use xlink:href="#SVGID_69_"  style="overflow:visible;"/>
			</clipPath>
			<pattern  id="SVGID_71_" xlink:href="#SVGID_54_" patternTransform="matrix(1.2722 0 0 1.2722 8208.416 22816.625)">
			</pattern>
			<polyline class="st24" points="0.2,8.7 0.2,8.7 94.2,27.1 191,8.7 191,8.7 			"/>
		</g>
	</g>
	<g>
		<g>
			<defs>
				<rect id="SVGID_72_" x="3.5" y="2.7" width="184.1" height="82.7"/>
			</defs>
			<clipPath id="SVGID_73_">
				<use xlink:href="#SVGID_72_"  style="overflow:visible;"/>
			</clipPath>
			<pattern  id="SVGID_74_" xlink:href="#SVGID_57_" patternTransform="matrix(1.2722 0 0 1.2722 8208.416 22816.625)">
			</pattern>
			<polyline class="st25" points="0.2,13 0.2,13 94.2,31.3 191,13 191,13.1 			"/>
		</g>
	</g>
	<g>
		<g>
			<defs>
				<rect id="SVGID_75_" x="3.5" y="2.7" width="184.1" height="82.7"/>
			</defs>
			<clipPath id="SVGID_76_">
				<use xlink:href="#SVGID_75_"  style="overflow:visible;"/>
			</clipPath>
			<pattern  id="SVGID_77_" xlink:href="#SVGID_60_" patternTransform="matrix(1.2722 0 0 1.2722 8208.416 22816.625)">
			</pattern>
			<polyline class="st26" points="0.2,17.3 0.2,17.3 94.2,35.7 191,17.3 191,17.4 			"/>
		</g>
	</g>
</g>
</svg>
