<?xml version="1.0" encoding="utf-8"?>
<!-- Generator: Adobe Illustrator 28.1.0, SVG Export Plug-In . SVG Version: 6.00 Build 0)  -->
<svg version="1.1" id="Capa_1" xmlns="http://www.w3.org/2000/svg" xmlns:xlink="http://www.w3.org/1999/xlink" x="0px" y="0px"
	 viewBox="0 0 964 262" style="enable-background:new 0 0 964 262;" xml:space="preserve">
<style type="text/css">
	.st0{fill:#FFFFFF;}
	.st1{fill:#FFFFFF;stroke:#FFFFFF;stroke-width:2;stroke-miterlimit:10;}
	.st2{fill:url(#SVGID_1_);stroke:#FFFFFF;stroke-width:2;stroke-miterlimit:10;}
	.st3{fill:url(#SVGID_00000168803810115607678910000008466219591573488799_);stroke:#FFFFFF;stroke-width:2;stroke-miterlimit:10;}
	.st4{fill:url(#SVGID_00000008868950493716015700000002228720110471632820_);stroke:#FFFFFF;stroke-width:2;stroke-miterlimit:10;}
	.st5{fill:url(#SVGID_00000176012676652336048190000012085007479581707936_);stroke:#FFFFFF;stroke-width:2;stroke-miterlimit:10;}
	.st6{fill:url(#SVGID_00000124122487830112804460000000441448412285483653_);stroke:#FFFFFF;stroke-width:2;stroke-miterlimit:10;}
	.st7{fill:url(#SVGID_00000043440909720118528080000004399728973383208844_);stroke:#FFFFFF;stroke-width:2;stroke-miterlimit:10;}
	.st8{fill:url(#SVGID_00000168088538700657875540000002006273381297564808_);stroke:#FFFFFF;stroke-width:2;stroke-miterlimit:10;}
	.st9{fill:url(#SVGID_00000083805079700996619180000006716748434274770583_);stroke:#FFFFFF;stroke-width:2;stroke-miterlimit:10;}
	.st10{fill:url(#SVGID_00000126290692639488872460000014687281833242751649_);stroke:#FFFFFF;stroke-width:2;stroke-miterlimit:10;}
	.st11{fill:url(#SVGID_00000013905715091683267770000011359070800398822584_);stroke:#FFFFFF;stroke-width:2;stroke-miterlimit:10;}
	.st12{fill:url(#SVGID_00000036952104365242225800000008615794799349839035_);stroke:#FFFFFF;stroke-width:2;stroke-miterlimit:10;}
	.st13{fill:url(#SVGID_00000003811174320513091300000001592508724159390369_);stroke:#FFFFFF;stroke-width:2;stroke-miterlimit:10;}
	.st14{fill:url(#SVGID_00000161625806052582855340000002026402464416343942_);stroke:#FFFFFF;stroke-width:2;stroke-miterlimit:10;}
	.st15{fill:url(#SVGID_00000168103480715661831420000001063794626057165200_);stroke:#FFFFFF;stroke-width:2;stroke-miterlimit:10;}
	.st16{fill:url(#SVGID_00000145040934114598907580000006494690926574288009_);stroke:#FFFFFF;stroke-width:2;stroke-miterlimit:10;}
	.st17{fill:url(#SVGID_00000145737357209460875090000010134229048750302849_);stroke:#FFFFFF;stroke-width:2;stroke-miterlimit:10;}
	.st18{fill:url(#SVGID_00000098925389318086322950000015456694767555542913_);stroke:#FFFFFF;stroke-width:2;stroke-miterlimit:10;}
	.st19{fill:url(#SVGID_00000057110202728498703510000006757474495427067054_);stroke:#FFFFFF;stroke-width:2;stroke-miterlimit:10;}
	.st20{fill:url(#SVGID_00000134240914571452801770000013457099071877899963_);stroke:#FFFFFF;stroke-width:2;stroke-miterlimit:10;}
	.st21{fill:url(#SVGID_00000136400605116908925520000010203595998171942331_);}
	.st22{fill:url(#SVGID_00000127743650680970857980000001348493445047316384_);}
	.st23{fill:url(#SVGID_00000141454256304945452810000015588695102768521364_);stroke:#FFFFFF;stroke-width:2;stroke-miterlimit:10;}
	.st24{fill:url(#SVGID_00000148621592389121589040000005578249510729934217_);stroke:#FFFFFF;stroke-width:2;stroke-miterlimit:10;}
	.st25{fill:url(#SVGID_00000006697916196221691030000014025222331219344830_);stroke:#FFFFFF;stroke-width:2;stroke-miterlimit:10;}
	.st26{fill:url(#SVGID_00000078734120068027305560000008987353158446576515_);stroke:#FFFFFF;stroke-width:2;stroke-miterlimit:10;}
	.st27{fill:url(#SVGID_00000038389369901691440220000013440093966007214220_);stroke:#FFFFFF;stroke-width:2;stroke-miterlimit:10;}
	.st28{fill:url(#SVGID_00000155851378891325138160000010879405092159310769_);stroke:#FFFFFF;stroke-width:2;stroke-miterlimit:10;}
	.st29{fill:url(#SVGID_00000074427137666246241460000007224147053562833815_);stroke:#FFFFFF;stroke-width:2;stroke-miterlimit:10;}
	.st30{fill:url(#SVGID_00000165226023934705890550000007903496216395803531_);stroke:#FFFFFF;stroke-width:2;stroke-miterlimit:10;}
	.st31{fill:url(#SVGID_00000074413688114659067260000013736913680989333687_);stroke:#FFFFFF;stroke-width:2;stroke-miterlimit:10;}
	.st32{fill:url(#SVGID_00000008840848686037463180000014567106466475792274_);stroke:#FFFFFF;stroke-width:2;stroke-miterlimit:10;}
	.st33{fill:url(#SVGID_00000041279659578780442490000008513095975212858531_);stroke:#FFFFFF;stroke-width:2;stroke-miterlimit:10;}
	.st34{fill:url(#SVGID_00000023255143918198915720000005036485177211481483_);stroke:#FFFFFF;stroke-width:2;stroke-miterlimit:10;}
	.st35{fill:url(#SVGID_00000164480113074464241470000012454669957859753146_);stroke:#FFFFFF;stroke-width:2;stroke-miterlimit:10;}
	.st36{fill:url(#SVGID_00000180331811443996027410000004194899057805959851_);stroke:#FFFFFF;stroke-width:2;stroke-miterlimit:10;}
	.st37{fill:url(#SVGID_00000155853227378795231580000004329442977310608803_);stroke:#FFFFFF;stroke-width:2;stroke-miterlimit:10;}
	.st38{fill:url(#SVGID_00000176006139815949317640000009932934809214883746_);stroke:#FFFFFF;stroke-width:2;stroke-miterlimit:10;}
	.st39{fill:url(#SVGID_00000031183997125566142720000009840787260136850324_);stroke:#FFFFFF;stroke-width:2;stroke-miterlimit:10;}
	.st40{fill:url(#SVGID_00000109727261414302575420000010036138038005633419_);stroke:#FFFFFF;stroke-width:2;stroke-miterlimit:10;}
	.st41{fill:url(#SVGID_00000098218418065815781640000009954947130467761538_);stroke:#FFFFFF;stroke-width:2;stroke-miterlimit:10;}
	.st42{fill:url(#SVGID_00000136376121985716920530000011685382094806595472_);stroke:#FFFFFF;stroke-width:2;stroke-miterlimit:10;}
	.st43{fill:url(#SVGID_00000057840106941717632950000009317609349039705251_);}
	.st44{fill:url(#SVGID_00000165230455506011950810000014255753157456320898_);}
	.st45{fill:url(#SVGID_00000010996474021784166660000016338464415351108277_);}
	.st46{fill:url(#SVGID_00000027587587337214668550000010715488167150306699_);}
	.st47{fill:url(#SVGID_00000127752153058660871560000001006624422694874521_);}
	.st48{fill:url(#SVGID_00000128454618752246946560000005552555295838203525_);}
	.st49{fill:url(#SVGID_00000124866534251363805440000013346218235609401222_);}
	.st50{fill:url(#SVGID_00000080200942899751921440000016892110258047814068_);}
	.st51{fill:url(#SVGID_00000000201755415487920120000008219151087490631061_);}
	.st52{fill:url(#SVGID_00000174587826995951637750000002643725935163797383_);}
	.st53{fill:url(#SVGID_00000161614734119515776800000007131559818232332183_);}
	.st54{fill:url(#SVGID_00000041985602960196472480000000316959819696531089_);}
	.st55{fill:url(#SVGID_00000165230728355719581930000012593249553231368373_);}
	.st56{fill:url(#SVGID_00000033370631366219730060000017577010200959431572_);}
	.st57{fill:url(#SVGID_00000067197293170065938700000017854498892051502490_);}
	.st58{fill:url(#SVGID_00000088095058245844267780000017285816847636285624_);}
	.st59{fill:url(#SVGID_00000036943756474267173720000004383061081670516135_);}
	.st60{fill:url(#SVGID_00000103237683456125577210000014732988377560736154_);}
	.st61{fill:url(#SVGID_00000005960559553439904660000014202911271636022162_);}
	.st62{fill:url(#SVGID_00000030446204208769218730000009809592106299758739_);}
	.st63{fill:url(#SVGID_00000034798000363770911330000015388991942592481960_);}
	.st64{fill:url(#SVGID_00000020368710288875789530000002285556000315532938_);}
	.st65{fill:#018CFF;}
	.st66{fill:#AF00AE;}
	.st67{fill:#26306D;}
	.st68{fill:#562E91;}
	.st69{fill:#10648D;}
	.st70{fill:#9682D7;}
	.st71{fill:url(#SVGID_00000176032187188547174740000012614571020964262829_);}
	.st72{fill:url(#SVGID_00000054246865602426331830000004357056433680865723_);}
	.st73{fill:url(#SVGID_00000086656007921797910490000007670466862896946089_);}
	.st74{fill:url(#SVGID_00000031914766734045644810000000753788798774804401_);}
	.st75{fill:url(#SVGID_00000096747081184875085660000015612320913417156279_);}
	.st76{fill:url(#SVGID_00000142873768524610180550000007580471499698674619_);}
	.st77{fill:url(#SVGID_00000075842284500837933340000018335133259029527970_);}
	.st78{fill:url(#SVGID_00000004541944162099863170000017407129070023171478_);}
	.st79{fill:url(#SVGID_00000061456096205068866390000017057628232751902870_);}
	.st80{fill:url(#SVGID_00000039833184006852189310000005962574552331303859_);}
	.st81{fill:url(#SVGID_00000108306337112717267820000014091237890669857664_);}
	.st82{fill:url(#SVGID_00000100372039375792617560000018185011954788683198_);}
	.st83{fill:url(#SVGID_00000087405302483320100610000007636776650921496765_);}
	.st84{fill:url(#SVGID_00000145036006584509871040000005456704271596541882_);}
	.st85{fill:url(#SVGID_00000150808671620059842270000014093177870659287468_);}
	.st86{fill:url(#SVGID_00000033356556735537796700000000188011437689440178_);}
	.st87{fill:url(#SVGID_00000080904429686797724430000011321320394640566455_);}
	.st88{fill:url(#SVGID_00000134217831560611105550000002211222287794298516_);}
	.st89{fill:url(#SVGID_00000083796602288522827150000018225914289647933072_);}
	.st90{fill:url(#SVGID_00000000195872060317972350000010740472586638274950_);}
	.st91{fill:url(#SVGID_00000018209526003685487830000017632778083905553087_);}
	.st92{fill:url(#SVGID_00000033349095133520035610000014860555307398498964_);}
	.st93{fill:url(#SVGID_00000101075033329799242870000014181134634655743627_);}
	.st94{fill:url(#SVGID_00000143604647765995336480000002139602723664431292_);}
	.st95{fill:url(#SVGID_00000134949463813883174490000016998205437888759434_);}
	.st96{fill:url(#SVGID_00000004505753786822010400000004215285691253142177_);}
	.st97{fill:url(#SVGID_00000148642049879557863560000000463833158913544098_);}
	.st98{fill:url(#SVGID_00000137818656434452151840000003320286532438726324_);}
	.st99{fill:url(#SVGID_00000098931069374831877530000007243477959296431799_);}
	.st100{fill:url(#SVGID_00000083052845406733966780000008086364272912555691_);}
	.st101{fill:url(#SVGID_00000128457779537290061270000016359279361764993982_);}
	.st102{fill:url(#SVGID_00000062155413679433186430000008315504819002959772_);}
	.st103{fill:url(#SVGID_00000174586361517220056060000018049919831080092568_);}
	.st104{fill:url(#SVGID_00000119104402670988029640000001910239256112623503_);}
	.st105{fill:url(#SVGID_00000101064224770710837930000012526146435639824034_);}
	.st106{fill:url(#SVGID_00000084490432859402548200000002389627001521907097_);}
	.st107{fill:url(#SVGID_00000156582213132569564190000004780386240677312132_);}
	.st108{fill:url(#SVGID_00000020400827281038175580000009948915855609977248_);}
	.st109{fill:url(#SVGID_00000127762504982410537690000005176552701701242009_);}
	.st110{fill:url(#SVGID_00000054960005009642602010000011841960693603915192_);}
	.st111{fill:url(#SVGID_00000093869745764412286860000018006162735816931755_);}
	.st112{fill:url(#SVGID_00000103986850346911698540000005243485489894416047_);}
	.st113{fill:url(#SVGID_00000114031602311742179320000000068920577773029297_);}
	.st114{fill:url(#SVGID_00000173119217921727618740000013054498934431944627_);}
	.st115{fill:url(#SVGID_00000102532339417286006510000001282027770673827752_);}
	.st116{fill:url(#SVGID_00000083791738117682474860000013263029896688616370_);}
	.st117{fill:url(#SVGID_00000123410774183329594740000006132511671646432169_);}
	.st118{fill:url(#SVGID_00000061452207107945851500000015135332442363199381_);}
	.st119{fill:url(#SVGID_00000078733609666855906500000009758042324815777681_);}
	.st120{fill:url(#SVGID_00000121258390432150484450000004983221440993901206_);}
	.st121{fill:url(#SVGID_00000140733074075242457300000013186240915239965067_);}
	.st122{fill:url(#SVGID_00000181087380881384692320000005517164326758385577_);}
	.st123{fill:url(#SVGID_00000139277586033169927420000008065554641166408355_);}
	.st124{fill:url(#SVGID_00000178908028898341679210000012981046251714265753_);}
	.st125{fill:url(#SVGID_00000039133782796776073030000018261415310888030391_);}
	.st126{fill:url(#SVGID_00000155838520372444578660000004380262746894935465_);}
	.st127{fill:url(#SVGID_00000181086969468065761710000001956316178082684825_);}
	.st128{fill:url(#SVGID_00000013902527904815118690000001678670355771984797_);}
	.st129{fill:url(#SVGID_00000049925269758065036890000016782811200473515418_);}
	.st130{fill:url(#SVGID_00000081629284938342591700000006431768517361443260_);}
	.st131{fill:url(#SVGID_00000134943472600744559980000008708108602647446161_);}
	.st132{fill:url(#SVGID_00000083071595710845613180000015318429517039339166_);}
	.st133{fill:url(#SVGID_00000152983439852383517330000004807608748347048343_);}
	.st134{fill:url(#SVGID_00000001649538540777968880000006111972250078450360_);}
	.st135{fill:url(#SVGID_00000129912624395619751600000000058063242242256826_);}
	.st136{fill:url(#SVGID_00000076573839960523883050000004131821986243588238_);}
	.st137{fill:url(#SVGID_00000097496441107694641300000007812637182642002306_);}
	.st138{fill:url(#SVGID_00000080208376463980829370000010022381649505883779_);}
	.st139{fill:url(#SVGID_00000065066414679171508130000016241755736543371667_);}
	.st140{fill:url(#SVGID_00000181059026523617589140000009965887184960801702_);}
	.st141{fill:url(#SVGID_00000031889962761265658100000008876081292153466552_);}
	.st142{fill:url(#SVGID_00000181767713106618591020000014219699227935973025_);}
	.st143{fill:url(#SVGID_00000114774509563421755500000008332694696194819973_);}
	.st144{fill:url(#SVGID_00000085252773901196131810000009419810086459056002_);}
	.st145{fill:url(#SVGID_00000094618525436263150850000007165587343211926656_);}
	.st146{fill:url(#SVGID_00000080179694155995029200000004189100013452168081_);}
	.st147{fill:url(#SVGID_00000178909772933751115430000018368020683336415395_);}
	.st148{fill:url(#SVGID_00000005961122690876731540000005931528476036916112_);}
	.st149{fill:url(#SVGID_00000032638483624215231590000005641794629581797511_);}
	.st150{fill:url(#SVGID_00000150063582265665148020000000055946461744300695_);}
	.st151{fill:url(#SVGID_00000067949567145492880490000001142428732481053360_);}
</style>
<g>
	<linearGradient id="SVGID_1_" gradientUnits="userSpaceOnUse" x1="276.9193" y1="-67.4894" x2="276.9193" y2="393.9833">
		<stop  offset="0" style="stop-color:#AF00AE"/>
		<stop  offset="0.1606" style="stop-color:#AD02AF"/>
		<stop  offset="0.2287" style="stop-color:#A607B2"/>
		<stop  offset="0.2793" style="stop-color:#9911B8"/>
		<stop  offset="0.3212" style="stop-color:#8820C0"/>
		<stop  offset="0.3578" style="stop-color:#7132CB"/>
		<stop  offset="0.3906" style="stop-color:#5449D8"/>
		<stop  offset="0.4207" style="stop-color:#3264E8"/>
		<stop  offset="0.4477" style="stop-color:#0C83FA"/>
		<stop  offset="0.4547" style="stop-color:#018CFF"/>
		<stop  offset="0.5159" style="stop-color:#0985FB"/>
		<stop  offset="0.6117" style="stop-color:#1F74F1"/>
		<stop  offset="0.73" style="stop-color:#4456E0"/>
		<stop  offset="0.865" style="stop-color:#762EC9"/>
		<stop  offset="1" style="stop-color:#AF00AE"/>
	</linearGradient>
	<path style="fill:url(#SVGID_1_);" d="M276.92,65.44c-12.18,0-21.82,3.84-28.91,11.51c-7.09,7.67-10.64,18.3-10.64,31.87
		S240.91,133,248,140.67c7.09,7.67,16.73,11.51,28.91,11.51c12.18,0,21.82-3.83,28.91-11.51c7.09-7.67,10.64-18.29,10.64-31.86
		s-3.55-24.19-10.64-31.87C298.74,69.27,289.1,65.44,276.92,65.44z M276.92,135.99c-12.95,0-19.43-9.06-19.43-27.18
		c0-18.12,6.48-27.18,19.43-27.18c12.95,0,19.43,9.06,19.43,27.18C296.35,126.93,289.87,135.99,276.92,135.99z"/>
	
		<linearGradient id="SVGID_00000007406108574121713910000006559607377759984030_" gradientUnits="userSpaceOnUse" x1="361.4629" y1="-67.4894" x2="361.4629" y2="393.9833">
		<stop  offset="0" style="stop-color:#AF00AE"/>
		<stop  offset="0.1606" style="stop-color:#AD02AF"/>
		<stop  offset="0.2287" style="stop-color:#A607B2"/>
		<stop  offset="0.2793" style="stop-color:#9911B8"/>
		<stop  offset="0.3212" style="stop-color:#8820C0"/>
		<stop  offset="0.3578" style="stop-color:#7132CB"/>
		<stop  offset="0.3906" style="stop-color:#5449D8"/>
		<stop  offset="0.4207" style="stop-color:#3264E8"/>
		<stop  offset="0.4477" style="stop-color:#0C83FA"/>
		<stop  offset="0.4547" style="stop-color:#018CFF"/>
		<stop  offset="0.5159" style="stop-color:#0985FB"/>
		<stop  offset="0.6117" style="stop-color:#1F74F1"/>
		<stop  offset="0.73" style="stop-color:#4456E0"/>
		<stop  offset="0.865" style="stop-color:#762EC9"/>
		<stop  offset="1" style="stop-color:#AF00AE"/>
	</linearGradient>
	<path style="fill:url(#SVGID_00000007406108574121713910000006559607377759984030_);" d="M387.49,66.59h-5.67
		c-1.78,0-3.32,0.66-4.63,1.97c-1.31,1.31-1.97,2.85-1.97,4.63v45.11c0,0.08-0.04,0.12-0.12,0.12c-0.08,0-0.12-0.04-0.12-0.12
		l-24.29-45.92c-2.01-3.85-5.21-5.78-9.6-5.78h-5.67c-1.77,0-3.32,0.66-4.63,1.97c-1.31,1.31-1.97,2.85-1.97,4.63v71.24
		c0,1.77,0.65,3.32,1.97,4.62c1.31,1.31,2.85,1.97,4.63,1.97h5.67c1.77,0,3.31-0.65,4.62-1.97c1.31-1.31,1.97-2.85,1.97-4.62V99.32
		c0-0.08,0.04-0.12,0.12-0.12c0.08,0,0.12,0.04,0.12,0.12l24.29,45.91c2,3.86,5.21,5.78,9.6,5.78h5.67c1.77,0,3.31-0.65,4.62-1.97
		c1.31-1.31,1.97-2.85,1.97-4.62V73.19c0-1.77-0.65-3.32-1.97-4.63C390.8,67.25,389.26,66.59,387.49,66.59z"/>
	
		<linearGradient id="SVGID_00000047036999201157240850000004556366959797610684_" gradientUnits="userSpaceOnUse" x1="442.0741" y1="-67.4894" x2="442.0741" y2="393.9833">
		<stop  offset="0" style="stop-color:#AF00AE"/>
		<stop  offset="0.1606" style="stop-color:#AD02AF"/>
		<stop  offset="0.2287" style="stop-color:#A607B2"/>
		<stop  offset="0.2793" style="stop-color:#9911B8"/>
		<stop  offset="0.3212" style="stop-color:#8820C0"/>
		<stop  offset="0.3578" style="stop-color:#7132CB"/>
		<stop  offset="0.3906" style="stop-color:#5449D8"/>
		<stop  offset="0.4207" style="stop-color:#3264E8"/>
		<stop  offset="0.4477" style="stop-color:#0C83FA"/>
		<stop  offset="0.4547" style="stop-color:#018CFF"/>
		<stop  offset="0.5159" style="stop-color:#0985FB"/>
		<stop  offset="0.6117" style="stop-color:#1F74F1"/>
		<stop  offset="0.73" style="stop-color:#4456E0"/>
		<stop  offset="0.865" style="stop-color:#762EC9"/>
		<stop  offset="1" style="stop-color:#AF00AE"/>
	</linearGradient>
	<path style="fill:url(#SVGID_00000047036999201157240850000004556366959797610684_);" d="M454.57,72.84
		c-0.54-1.85-1.62-3.35-3.24-4.51c-1.62-1.16-3.43-1.73-5.44-1.73h-7.63c-1.93,0-3.68,0.58-5.26,1.73c-1.58,1.16-2.68,2.66-3.3,4.51
		l-23.36,71.94c-0.54,1.54-0.33,2.97,0.64,4.28c0.96,1.31,2.26,1.97,3.88,1.97h7.29c1.93,0,3.66-0.6,5.21-1.79
		c1.54-1.2,2.54-2.72,3.01-4.57l2.78-10.99c0.15-0.62,0.54-0.93,1.16-0.93h23.13c0.69,0,1.08,0.31,1.16,0.93l2.78,10.99
		c0.46,1.85,1.46,3.37,3.01,4.57c1.54,1.2,3.28,1.79,5.21,1.79h7.75c1.62,0,2.91-0.65,3.87-1.97c0.96-1.31,1.17-2.73,0.64-4.28
		L454.57,72.84z M450.23,117.54c-0.19,0.2-0.41,0.29-0.64,0.29h-15.5c-0.23,0-0.44-0.09-0.64-0.29c-0.19-0.19-0.25-0.4-0.17-0.63
		l8.44-33.19c0-0.08,0.04-0.12,0.11-0.12s0.12,0.04,0.12,0.12l8.44,33.19C450.48,117.14,450.42,117.35,450.23,117.54z"/>
	
		<linearGradient id="SVGID_00000139982185423332582960000013806645662749365934_" gradientUnits="userSpaceOnUse" x1="550.0945" y1="-67.4894" x2="550.0945" y2="393.9833">
		<stop  offset="0" style="stop-color:#AF00AE"/>
		<stop  offset="0.1606" style="stop-color:#AD02AF"/>
		<stop  offset="0.2287" style="stop-color:#A607B2"/>
		<stop  offset="0.2793" style="stop-color:#9911B8"/>
		<stop  offset="0.3212" style="stop-color:#8820C0"/>
		<stop  offset="0.3578" style="stop-color:#7132CB"/>
		<stop  offset="0.3906" style="stop-color:#5449D8"/>
		<stop  offset="0.4207" style="stop-color:#3264E8"/>
		<stop  offset="0.4477" style="stop-color:#0C83FA"/>
		<stop  offset="0.4547" style="stop-color:#018CFF"/>
		<stop  offset="0.5159" style="stop-color:#0985FB"/>
		<stop  offset="0.6117" style="stop-color:#1F74F1"/>
		<stop  offset="0.73" style="stop-color:#4456E0"/>
		<stop  offset="0.865" style="stop-color:#762EC9"/>
		<stop  offset="1" style="stop-color:#AF00AE"/>
	</linearGradient>
	<path style="fill:url(#SVGID_00000139982185423332582960000013806645662749365934_);" d="M571.49,134.71h-28.11
		c-0.69,0-1.04-0.31-1.04-0.93v-60.6c0-1.77-0.64-3.32-1.91-4.63c-1.27-1.31-2.8-1.97-4.57-1.97h-7.17c-1.78,0-3.32,0.66-4.63,1.97
		c-1.31,1.31-1.97,2.85-1.97,4.63v71.24c0,1.77,0.65,3.32,1.97,4.62c1.31,1.31,2.85,1.97,4.63,1.97h42.79
		c1.77,0,3.31-0.65,4.63-1.97c1.31-1.31,1.97-2.85,1.97-4.62v-3.12c0-1.77-0.66-3.32-1.97-4.63
		C574.81,135.37,573.26,134.71,571.49,134.71z"/>
	
		<linearGradient id="SVGID_00000119799990073247529560000007794560753840554123_" gradientUnits="userSpaceOnUse" x1="624.3446" y1="-67.4894" x2="624.3446" y2="393.9833">
		<stop  offset="0" style="stop-color:#AF00AE"/>
		<stop  offset="0.1606" style="stop-color:#AD02AF"/>
		<stop  offset="0.2287" style="stop-color:#A607B2"/>
		<stop  offset="0.2793" style="stop-color:#9911B8"/>
		<stop  offset="0.3212" style="stop-color:#8820C0"/>
		<stop  offset="0.3578" style="stop-color:#7132CB"/>
		<stop  offset="0.3906" style="stop-color:#5449D8"/>
		<stop  offset="0.4207" style="stop-color:#3264E8"/>
		<stop  offset="0.4477" style="stop-color:#0C83FA"/>
		<stop  offset="0.4547" style="stop-color:#018CFF"/>
		<stop  offset="0.5159" style="stop-color:#0985FB"/>
		<stop  offset="0.6117" style="stop-color:#1F74F1"/>
		<stop  offset="0.73" style="stop-color:#4456E0"/>
		<stop  offset="0.865" style="stop-color:#762EC9"/>
		<stop  offset="1" style="stop-color:#AF00AE"/>
	</linearGradient>
	<path style="fill:url(#SVGID_00000119799990073247529560000007794560753840554123_);" d="M636.84,72.84
		c-0.54-1.85-1.62-3.35-3.24-4.51c-1.62-1.16-3.43-1.73-5.44-1.73h-7.63c-1.93,0-3.68,0.58-5.26,1.73c-1.58,1.16-2.68,2.66-3.3,4.51
		l-23.36,71.94c-0.54,1.54-0.33,2.97,0.64,4.28c0.96,1.31,2.26,1.97,3.88,1.97h7.29c1.93,0,3.66-0.6,5.21-1.79
		c1.54-1.2,2.54-2.72,3.01-4.57l2.78-10.99c0.15-0.62,0.54-0.93,1.16-0.93h23.13c0.69,0,1.08,0.31,1.16,0.93l2.78,10.99
		c0.46,1.85,1.46,3.37,3.01,4.57c1.54,1.2,3.28,1.79,5.21,1.79h7.75c1.62,0,2.91-0.65,3.87-1.97c0.96-1.31,1.17-2.73,0.64-4.28
		L636.84,72.84z M632.5,117.54c-0.19,0.2-0.41,0.29-0.64,0.29h-15.5c-0.23,0-0.44-0.09-0.64-0.29c-0.19-0.19-0.25-0.4-0.17-0.63
		L624,83.71c0-0.08,0.04-0.12,0.11-0.12s0.12,0.04,0.12,0.12l8.44,33.19C632.75,117.14,632.69,117.35,632.5,117.54z"/>
	
		<linearGradient id="SVGID_00000044863479678713309910000006330574047231618226_" gradientUnits="userSpaceOnUse" x1="701.9491" y1="-67.4894" x2="701.9491" y2="393.9833">
		<stop  offset="0" style="stop-color:#AF00AE"/>
		<stop  offset="0.1606" style="stop-color:#AD02AF"/>
		<stop  offset="0.2287" style="stop-color:#A607B2"/>
		<stop  offset="0.2793" style="stop-color:#9911B8"/>
		<stop  offset="0.3212" style="stop-color:#8820C0"/>
		<stop  offset="0.3578" style="stop-color:#7132CB"/>
		<stop  offset="0.3906" style="stop-color:#5449D8"/>
		<stop  offset="0.4207" style="stop-color:#3264E8"/>
		<stop  offset="0.4477" style="stop-color:#0C83FA"/>
		<stop  offset="0.4547" style="stop-color:#018CFF"/>
		<stop  offset="0.5159" style="stop-color:#0985FB"/>
		<stop  offset="0.6117" style="stop-color:#1F74F1"/>
		<stop  offset="0.73" style="stop-color:#4456E0"/>
		<stop  offset="0.865" style="stop-color:#762EC9"/>
		<stop  offset="1" style="stop-color:#AF00AE"/>
	</linearGradient>
	<path style="fill:url(#SVGID_00000044863479678713309910000006330574047231618226_);" d="M696.17,65.44
		c-6.09,0-12.42,0.31-18.97,0.92c-1.85,0.16-3.39,0.97-4.63,2.43c-1.24,1.46-1.85,3.12-1.85,4.97v70.67c0,1.77,0.65,3.32,1.97,4.62
		c1.31,1.31,2.85,1.97,4.63,1.97h6.13c1.77,0,3.32-0.65,4.63-1.97c1.31-1.31,1.97-2.85,1.97-4.62v-20.59c0-0.61,0.35-0.93,1.04-0.93
		c2.54,0.23,5.28,0.35,8.21,0.35c11.1,0,19.53-2.56,25.27-7.69c5.74-5.13,8.62-12.67,8.62-22.61
		C733.18,74.61,720.84,65.44,696.17,65.44z M710.22,104.93c-3.05,2.58-7.34,3.88-12.9,3.88c-1.54,0-3.63-0.16-6.25-0.46
		c-0.69-0.15-1.04-0.5-1.04-1.04V82.09c0-0.62,0.31-1,0.93-1.16c2.31-0.39,4.43-0.58,6.36-0.58c11.64,0,17.46,4.59,17.46,13.77
		C714.79,98.74,713.26,102.35,710.22,104.93z"/>
	
		<linearGradient id="SVGID_00000042018402706208307890000001358247503737090968_" gradientUnits="userSpaceOnUse" x1="772.7314" y1="-67.4894" x2="772.7314" y2="393.9833">
		<stop  offset="0" style="stop-color:#AF00AE"/>
		<stop  offset="0.1606" style="stop-color:#AD02AF"/>
		<stop  offset="0.2287" style="stop-color:#A607B2"/>
		<stop  offset="0.2793" style="stop-color:#9911B8"/>
		<stop  offset="0.3212" style="stop-color:#8820C0"/>
		<stop  offset="0.3578" style="stop-color:#7132CB"/>
		<stop  offset="0.3906" style="stop-color:#5449D8"/>
		<stop  offset="0.4207" style="stop-color:#3264E8"/>
		<stop  offset="0.4477" style="stop-color:#0C83FA"/>
		<stop  offset="0.4547" style="stop-color:#018CFF"/>
		<stop  offset="0.5159" style="stop-color:#0985FB"/>
		<stop  offset="0.6117" style="stop-color:#1F74F1"/>
		<stop  offset="0.73" style="stop-color:#4456E0"/>
		<stop  offset="0.865" style="stop-color:#762EC9"/>
		<stop  offset="1" style="stop-color:#AF00AE"/>
	</linearGradient>
	<path style="fill:url(#SVGID_00000042018402706208307890000001358247503737090968_);" d="M798.52,66.59h-51.58
		c-1.78,0-3.32,0.66-4.63,1.97c-1.31,1.31-1.97,2.85-1.97,4.63v3.12c0,1.77,0.65,3.32,1.97,4.63c1.31,1.31,2.85,1.96,4.63,1.96h14.8
		c0.62,0,0.93,0.31,0.93,0.93v60.61c0,1.77,0.65,3.32,1.97,4.62c1.31,1.31,2.85,1.97,4.63,1.97h6.94c1.77,0,3.31-0.65,4.63-1.97
		c1.31-1.31,1.97-2.85,1.97-4.62V83.82c0-0.62,0.31-0.93,0.93-0.93h14.8c1.77,0,3.32-0.65,4.63-1.96c1.31-1.31,1.97-2.85,1.97-4.63
		v-3.12c0-1.77-0.66-3.32-1.97-4.63C801.84,67.25,800.3,66.59,798.52,66.59z"/>
	
		<linearGradient id="SVGID_00000114032011502498583560000012961507229258719629_" gradientUnits="userSpaceOnUse" x1="849.5272" y1="-67.4894" x2="849.5272" y2="393.9833">
		<stop  offset="0" style="stop-color:#AF00AE"/>
		<stop  offset="0.1606" style="stop-color:#AD02AF"/>
		<stop  offset="0.2287" style="stop-color:#A607B2"/>
		<stop  offset="0.2793" style="stop-color:#9911B8"/>
		<stop  offset="0.3212" style="stop-color:#8820C0"/>
		<stop  offset="0.3578" style="stop-color:#7132CB"/>
		<stop  offset="0.3906" style="stop-color:#5449D8"/>
		<stop  offset="0.4207" style="stop-color:#3264E8"/>
		<stop  offset="0.4477" style="stop-color:#0C83FA"/>
		<stop  offset="0.4547" style="stop-color:#018CFF"/>
		<stop  offset="0.5159" style="stop-color:#0985FB"/>
		<stop  offset="0.6117" style="stop-color:#1F74F1"/>
		<stop  offset="0.73" style="stop-color:#4456E0"/>
		<stop  offset="0.865" style="stop-color:#762EC9"/>
		<stop  offset="1" style="stop-color:#AF00AE"/>
	</linearGradient>
	<path style="fill:url(#SVGID_00000114032011502498583560000012961507229258719629_);" d="M849.53,65.44
		c-12.18,0-21.82,3.84-28.91,11.51c-7.09,7.67-10.64,18.3-10.64,31.87s3.54,24.19,10.64,31.86c7.09,7.67,16.73,11.51,28.91,11.51
		c12.18,0,21.82-3.83,28.91-11.51c7.09-7.67,10.64-18.29,10.64-31.86s-3.55-24.19-10.64-31.87
		C871.35,69.27,861.71,65.44,849.53,65.44z M849.53,135.99c-12.95,0-19.43-9.06-19.43-27.18c0-18.12,6.48-27.18,19.43-27.18
		c12.95,0,19.43,9.06,19.43,27.18C868.96,126.93,862.48,135.99,849.53,135.99z"/>
	
		<linearGradient id="SVGID_00000012462336801183571900000011284644939832984476_" gradientUnits="userSpaceOnUse" x1="932.6833" y1="-67.4894" x2="932.6833" y2="393.9833">
		<stop  offset="0" style="stop-color:#AF00AE"/>
		<stop  offset="0.1606" style="stop-color:#AD02AF"/>
		<stop  offset="0.2287" style="stop-color:#A607B2"/>
		<stop  offset="0.2793" style="stop-color:#9911B8"/>
		<stop  offset="0.3212" style="stop-color:#8820C0"/>
		<stop  offset="0.3578" style="stop-color:#7132CB"/>
		<stop  offset="0.3906" style="stop-color:#5449D8"/>
		<stop  offset="0.4207" style="stop-color:#3264E8"/>
		<stop  offset="0.4477" style="stop-color:#0C83FA"/>
		<stop  offset="0.4547" style="stop-color:#018CFF"/>
		<stop  offset="0.5159" style="stop-color:#0985FB"/>
		<stop  offset="0.6117" style="stop-color:#1F74F1"/>
		<stop  offset="0.73" style="stop-color:#4456E0"/>
		<stop  offset="0.865" style="stop-color:#762EC9"/>
		<stop  offset="1" style="stop-color:#AF00AE"/>
	</linearGradient>
	<path style="fill:url(#SVGID_00000012462336801183571900000011284644939832984476_);" d="M926.9,65.44
		c-6.09,0-12.42,0.31-18.97,0.92c-1.85,0.16-3.39,0.97-4.63,2.43c-1.24,1.46-1.85,3.12-1.85,4.97v70.67c0,1.77,0.65,3.32,1.97,4.62
		c1.31,1.31,2.85,1.97,4.63,1.97h6.13c1.77,0,3.32-0.65,4.63-1.97c1.31-1.31,1.97-2.85,1.97-4.62v-20.59c0-0.61,0.35-0.93,1.04-0.93
		c2.54,0.23,5.28,0.35,8.21,0.35c11.1,0,19.53-2.56,25.27-7.69c5.74-5.13,8.62-12.67,8.62-22.61
		C963.91,74.61,951.57,65.44,926.9,65.44z M940.95,104.93c-3.05,2.58-7.34,3.88-12.9,3.88c-1.54,0-3.63-0.16-6.25-0.46
		c-0.69-0.15-1.04-0.5-1.04-1.04V82.09c0-0.62,0.31-1,0.93-1.16c2.31-0.39,4.43-0.58,6.36-0.58c11.64,0,17.46,4.59,17.46,13.77
		C945.52,98.74,944,102.35,940.95,104.93z"/>
	<g>
		
			<linearGradient id="SVGID_00000173123582628989191350000015148852646154694577_" gradientUnits="userSpaceOnUse" x1="112.1804" y1="-115.0837" x2="112.1804" y2="384.1222">
			<stop  offset="0" style="stop-color:#AF00AE"/>
			<stop  offset="0.1606" style="stop-color:#AD02AF"/>
			<stop  offset="0.2287" style="stop-color:#A607B2"/>
			<stop  offset="0.2793" style="stop-color:#9911B8"/>
			<stop  offset="0.3212" style="stop-color:#8820C0"/>
			<stop  offset="0.3578" style="stop-color:#7132CB"/>
			<stop  offset="0.3906" style="stop-color:#5449D8"/>
			<stop  offset="0.4207" style="stop-color:#3264E8"/>
			<stop  offset="0.4477" style="stop-color:#0C83FA"/>
			<stop  offset="0.4547" style="stop-color:#018CFF"/>
			<stop  offset="0.5159" style="stop-color:#0985FB"/>
			<stop  offset="0.6117" style="stop-color:#1F74F1"/>
			<stop  offset="0.73" style="stop-color:#4456E0"/>
			<stop  offset="0.865" style="stop-color:#762EC9"/>
			<stop  offset="1" style="stop-color:#AF00AE"/>
		</linearGradient>
		<path style="fill:url(#SVGID_00000173123582628989191350000015148852646154694577_);" d="M9.43,121.57c5.16,0,9.34-4.18,9.34-9.34
			c0-51.51,41.9-93.41,93.41-93.41s93.41,41.9,93.41,93.41c0,5.16,4.18,9.34,9.34,9.34c5.16,0,9.34-4.18,9.34-9.34
			c0-61.81-50.28-112.09-112.09-112.09C50.37,0.13,0.09,50.42,0.09,112.22C0.09,117.38,4.27,121.57,9.43,121.57z"/>
		
			<linearGradient id="SVGID_00000076566194376168054150000010083878110223117235_" gradientUnits="userSpaceOnUse" x1="111.6848" y1="-115.0837" x2="111.6848" y2="384.1222">
			<stop  offset="0" style="stop-color:#AF00AE"/>
			<stop  offset="0.1606" style="stop-color:#AD02AF"/>
			<stop  offset="0.2287" style="stop-color:#A607B2"/>
			<stop  offset="0.2793" style="stop-color:#9911B8"/>
			<stop  offset="0.3212" style="stop-color:#8820C0"/>
			<stop  offset="0.3578" style="stop-color:#7132CB"/>
			<stop  offset="0.3906" style="stop-color:#5449D8"/>
			<stop  offset="0.4207" style="stop-color:#3264E8"/>
			<stop  offset="0.4477" style="stop-color:#0C83FA"/>
			<stop  offset="0.4547" style="stop-color:#018CFF"/>
			<stop  offset="0.5159" style="stop-color:#0985FB"/>
			<stop  offset="0.6117" style="stop-color:#1F74F1"/>
			<stop  offset="0.73" style="stop-color:#4456E0"/>
			<stop  offset="0.865" style="stop-color:#762EC9"/>
			<stop  offset="1" style="stop-color:#AF00AE"/>
		</linearGradient>
		<path style="fill:url(#SVGID_00000076566194376168054150000010083878110223117235_);" d="M122.35,256.85l94.96-114.77
			c3.29-3.97,2.73-9.86-1.24-13.15c-3.98-3.29-9.86-2.73-13.15,1.24l-91.23,110.26L20.45,130.17c-3.29-3.97-9.18-4.53-13.15-1.24
			c-3.97,3.29-4.53,9.18-1.24,13.15l94.96,114.77c2.64,3.19,6.53,5.02,10.67,5.02C115.82,261.87,119.71,260.04,122.35,256.85z"/>
		
			<linearGradient id="SVGID_00000059269045938964806840000004377568427823209105_" gradientUnits="userSpaceOnUse" x1="112.2096" y1="-115.0837" x2="112.2096" y2="384.1222">
			<stop  offset="0" style="stop-color:#AF00AE"/>
			<stop  offset="0.1606" style="stop-color:#AD02AF"/>
			<stop  offset="0.2287" style="stop-color:#A607B2"/>
			<stop  offset="0.2793" style="stop-color:#9911B8"/>
			<stop  offset="0.3212" style="stop-color:#8820C0"/>
			<stop  offset="0.3578" style="stop-color:#7132CB"/>
			<stop  offset="0.3906" style="stop-color:#5449D8"/>
			<stop  offset="0.4207" style="stop-color:#3264E8"/>
			<stop  offset="0.4477" style="stop-color:#0C83FA"/>
			<stop  offset="0.4547" style="stop-color:#018CFF"/>
			<stop  offset="0.5159" style="stop-color:#0985FB"/>
			<stop  offset="0.6117" style="stop-color:#1F74F1"/>
			<stop  offset="0.73" style="stop-color:#4456E0"/>
			<stop  offset="0.865" style="stop-color:#762EC9"/>
			<stop  offset="1" style="stop-color:#AF00AE"/>
		</linearGradient>
		<path style="fill:url(#SVGID_00000059269045938964806840000004377568427823209105_);" d="M66,157.61c0.01,0,0.02,0,0.04,0
			l92.43-0.38c5.01-0.02,9.05-4.1,9.03-9.11c-0.02-5-4.08-9.03-9.07-9.03c-0.01,0-0.03,0-0.04,0l-17.34,0.07v-1.22h-7.55v1.25
			l-1.33,0.01v-1.25h-7.55v1.28l-1.33,0.01v-1.29h-7.55v1.32l-1.33,0.01v-1.32h-7.55v1.36l-1.33,0.01v-1.36h-7.55v1.39l-2.22,0.01
			v-1.4h-6.59l48.7-49.1c3.53-3.56,3.5-9.3-0.05-12.83c-3.56-3.53-9.3-3.5-12.83,0.05L59.89,141.7c-0.44,0.45-0.83,0.93-1.16,1.43
			c-1.13,1.52-1.81,3.4-1.8,5.45C56.95,153.58,61,157.61,66,157.61z M88.2,138.91v0.47l-0.47,0L88.2,138.91z M66.31,142.21
			c3.53,0,6.38,2.86,6.38,6.38c0,3.53-2.86,6.38-6.38,6.38c-3.53,0-6.38-2.86-6.38-6.38C59.93,145.07,62.78,142.21,66.31,142.21z"/>
		
			<linearGradient id="SVGID_00000121240193461315629100000013233530276687266713_" gradientUnits="userSpaceOnUse" x1="89.9752" y1="-115.0837" x2="89.9752" y2="384.1222">
			<stop  offset="0" style="stop-color:#AF00AE"/>
			<stop  offset="0.1606" style="stop-color:#AD02AF"/>
			<stop  offset="0.2287" style="stop-color:#A607B2"/>
			<stop  offset="0.2793" style="stop-color:#9911B8"/>
			<stop  offset="0.3212" style="stop-color:#8820C0"/>
			<stop  offset="0.3578" style="stop-color:#7132CB"/>
			<stop  offset="0.3906" style="stop-color:#5449D8"/>
			<stop  offset="0.4207" style="stop-color:#3264E8"/>
			<stop  offset="0.4477" style="stop-color:#0C83FA"/>
			<stop  offset="0.4547" style="stop-color:#018CFF"/>
			<stop  offset="0.5159" style="stop-color:#0985FB"/>
			<stop  offset="0.6117" style="stop-color:#1F74F1"/>
			<stop  offset="0.73" style="stop-color:#4456E0"/>
			<stop  offset="0.865" style="stop-color:#762EC9"/>
			<stop  offset="1" style="stop-color:#AF00AE"/>
		</linearGradient>
		<path style="fill:url(#SVGID_00000121240193461315629100000013233530276687266713_);" d="M66.14,69.77h47.67
			c5.01,0,9.07-4.06,9.07-9.07c0-5.01-4.06-9.07-9.07-9.07H66.14c-5.01,0-9.07,4.06-9.07,9.07C57.07,65.71,61.13,69.77,66.14,69.77z
			"/>
		
			<linearGradient id="SVGID_00000156589874408490097150000010518633102849109646_" gradientUnits="userSpaceOnUse" x1="143.5401" y1="-115.0837" x2="143.5401" y2="384.1222">
			<stop  offset="0" style="stop-color:#AF00AE"/>
			<stop  offset="0.1606" style="stop-color:#AD02AF"/>
			<stop  offset="0.2287" style="stop-color:#A607B2"/>
			<stop  offset="0.2793" style="stop-color:#9911B8"/>
			<stop  offset="0.3212" style="stop-color:#8820C0"/>
			<stop  offset="0.3578" style="stop-color:#7132CB"/>
			<stop  offset="0.3906" style="stop-color:#5449D8"/>
			<stop  offset="0.4207" style="stop-color:#3264E8"/>
			<stop  offset="0.4477" style="stop-color:#0C83FA"/>
			<stop  offset="0.4547" style="stop-color:#018CFF"/>
			<stop  offset="0.5159" style="stop-color:#0985FB"/>
			<stop  offset="0.6117" style="stop-color:#1F74F1"/>
			<stop  offset="0.73" style="stop-color:#4456E0"/>
			<stop  offset="0.865" style="stop-color:#762EC9"/>
			<stop  offset="1" style="stop-color:#AF00AE"/>
		</linearGradient>
		<path style="fill:url(#SVGID_00000156589874408490097150000010518633102849109646_);" d="M141.7,50.23
			c-1.84-0.01-3.55,0.53-5,1.46c4.85,0.76,9.43,2.41,13.68,4.9C149.19,52.92,145.77,50.25,141.7,50.23z"/>
		
			<linearGradient id="SVGID_00000074402080205881361770000013625626639401616574_" gradientUnits="userSpaceOnUse" x1="143.5448" y1="-115.0837" x2="143.5448" y2="384.1222">
			<stop  offset="0" style="stop-color:#AF00AE"/>
			<stop  offset="0.1606" style="stop-color:#AD02AF"/>
			<stop  offset="0.2287" style="stop-color:#A607B2"/>
			<stop  offset="0.2793" style="stop-color:#9911B8"/>
			<stop  offset="0.3212" style="stop-color:#8820C0"/>
			<stop  offset="0.3578" style="stop-color:#7132CB"/>
			<stop  offset="0.3906" style="stop-color:#5449D8"/>
			<stop  offset="0.4207" style="stop-color:#3264E8"/>
			<stop  offset="0.4477" style="stop-color:#0C83FA"/>
			<stop  offset="0.4547" style="stop-color:#018CFF"/>
			<stop  offset="0.5159" style="stop-color:#0985FB"/>
			<stop  offset="0.6117" style="stop-color:#1F74F1"/>
			<stop  offset="0.73" style="stop-color:#4456E0"/>
			<stop  offset="0.865" style="stop-color:#762EC9"/>
			<stop  offset="1" style="stop-color:#AF00AE"/>
		</linearGradient>
		<path style="fill:url(#SVGID_00000074402080205881361770000013625626639401616574_);" d="M134.38,52.2
			c-5.01,0-9.07,4.06-9.07,9.07c0,5.01,4.06,9.07,9.07,9.07c5.11,0,9.26,4.16,9.26,9.26c0,5.01,4.06,9.07,9.07,9.07
			c5.01,0,9.07-4.06,9.07-9.07c0-8.74-4.13-16.53-10.53-21.55c-4.96-3.11-10.28-5.2-16.08-5.84
			C134.91,52.21,134.64,52.2,134.38,52.2z"/>
	</g>
</g>
</svg>
